<svg width="10" height="10" viewBox="0 0 10 10" fill="none" xmlns="http://www.w3.org/2000/svg">
<path d="M5.12212 2.20529C5.28484 2.04257 5.54866 2.04257 5.71138 2.20529L8.21137 4.70529C8.28952 4.78343 8.33341 4.88941 8.33341 4.99992C8.33341 5.11043 8.28952 5.21641 8.21137 5.29455L5.71138 7.79455C5.54866 7.95727 5.28484 7.95727 5.12212 7.79455C4.9594 7.63183 4.9594 7.36801 5.12212 7.20529L6.91082 5.41659L2.08341 5.41659C1.8533 5.41659 1.66675 5.23004 1.66675 4.99992C1.66675 4.7698 1.8533 4.58325 2.08341 4.58325L6.91082 4.58325L5.12212 2.79455C4.9594 2.63183 4.9594 2.36801 5.12212 2.20529Z" fill="white"/>
</svg>
