<svg width="51" height="51" viewBox="0 0 51 51" fill="none" xmlns="http://www.w3.org/2000/svg">
<g filter="url(#filter0_d)">
<circle cx="25.5" cy="21.5" r="15.5" fill="white"/>
</g>
<path fill-rule="evenodd" clip-rule="evenodd" d="M24.8407 25.7908C25.1411 26.0697 25.6281 26.0697 25.9285 25.7908C26.2289 25.5118 26.2289 25.0596 25.9285 24.7806L22.6263 21.7143L32 21.7143L32 20.2857L22.6263 20.2857L25.9285 17.2194C26.2289 16.9404 26.2289 16.4882 25.9285 16.2092C25.6281 15.9303 25.1411 15.9303 24.8407 16.2092L20.2253 20.4949C20.081 20.6289 20 20.8106 20 21C20 21.1894 20.081 21.3711 20.2253 21.5051L24.8407 25.7908Z" fill="#00214E"/>
<defs>
<filter id="filter0_d" x="0" y="0" width="51" height="51" filterUnits="userSpaceOnUse" color-interpolation-filters="sRGB">
<feFlood flood-opacity="0" result="BackgroundImageFix"/>
<feColorMatrix in="SourceAlpha" type="matrix" values="0 0 0 0 0 0 0 0 0 0 0 0 0 0 0 0 0 0 127 0"/>
<feOffset dy="4"/>
<feGaussianBlur stdDeviation="5"/>
<feColorMatrix type="matrix" values="0 0 0 0 0 0 0 0 0 0 0 0 0 0 0 0 0 0 0.1 0"/>
<feBlend mode="normal" in2="BackgroundImageFix" result="effect1_dropShadow"/>
<feBlend mode="normal" in="SourceGraphic" in2="effect1_dropShadow" result="shape"/>
</filter>
</defs>
</svg>
