<svg width="83" height="65" viewBox="0 0 83 65" fill="none" xmlns="http://www.w3.org/2000/svg">
<path d="M0.403 31.4907C0.403 30.9273 0.502667 30.3727 0.702 29.8267C0.91 29.272 1.209 28.778 1.599 28.3447C1.989 27.9113 2.46567 27.5603 3.029 27.2917C3.59233 27.023 4.23367 26.8887 4.953 26.8887C5.80233 26.8887 6.53467 27.075 7.15 27.4477C7.774 27.8203 8.23767 28.3057 8.541 28.9037L7.163 29.8527C7.04167 29.5927 6.89433 29.376 6.721 29.2027C6.54767 29.0207 6.36133 28.8777 6.162 28.7737C5.96267 28.6697 5.75467 28.596 5.538 28.5527C5.32133 28.5007 5.109 28.4747 4.901 28.4747C4.45033 28.4747 4.056 28.5657 3.718 28.7477C3.38867 28.9297 3.11133 29.168 2.886 29.4627C2.66933 29.7487 2.50467 30.078 2.392 30.4507C2.27933 30.8147 2.223 31.1787 2.223 31.5427C2.223 31.95 2.288 32.3443 2.418 32.7257C2.548 33.0983 2.73 33.4277 2.964 33.7137C3.20667 33.9997 3.49267 34.2293 3.822 34.4027C4.16 34.576 4.52833 34.6627 4.927 34.6627C5.135 34.6627 5.35167 34.6367 5.577 34.5847C5.80233 34.5327 6.01467 34.4503 6.214 34.3377C6.422 34.225 6.61267 34.082 6.786 33.9087C6.95933 33.7267 7.098 33.51 7.202 33.2587L8.671 34.1037C8.52367 34.4503 8.31133 34.758 8.034 35.0267C7.76533 35.2867 7.45767 35.5077 7.111 35.6897C6.773 35.8717 6.409 36.0103 6.019 36.1057C5.629 36.201 5.24767 36.2487 4.875 36.2487C4.21633 36.2487 3.614 36.11 3.068 35.8327C2.522 35.5553 2.04967 35.1957 1.651 34.7537C1.261 34.303 0.953333 33.796 0.728 33.2327C0.511333 32.6607 0.403 32.08 0.403 31.4907ZM13.7242 36.2357C13.0482 36.2357 12.4329 36.1057 11.8782 35.8457C11.3322 35.577 10.8599 35.226 10.4612 34.7927C10.0712 34.3507 9.76791 33.848 9.55124 33.2847C9.33458 32.7213 9.22624 32.145 9.22624 31.5557C9.22624 30.9403 9.33891 30.351 9.56424 29.7877C9.79824 29.2243 10.1146 28.726 10.5132 28.2927C10.9206 27.8593 11.4016 27.517 11.9562 27.2657C12.5109 27.0057 13.1132 26.8757 13.7632 26.8757C14.4306 26.8757 15.0372 27.0143 15.5832 27.2917C16.1379 27.5603 16.6102 27.9157 17.0002 28.3577C17.3902 28.7997 17.6936 29.3023 17.9102 29.8657C18.1269 30.429 18.2352 31.001 18.2352 31.5817C18.2352 32.197 18.1226 32.7863 17.8972 33.3497C17.6719 33.9043 17.3599 34.3983 16.9612 34.8317C16.5626 35.2563 16.0859 35.5987 15.5312 35.8587C14.9766 36.11 14.3742 36.2357 13.7242 36.2357ZM11.0462 31.5557C11.0462 31.9543 11.1069 32.34 11.2282 32.7127C11.3496 33.0853 11.5229 33.4147 11.7482 33.7007C11.9822 33.9867 12.2639 34.2163 12.5932 34.3897C12.9312 34.563 13.3126 34.6497 13.7372 34.6497C14.1706 34.6497 14.5519 34.563 14.8812 34.3897C15.2192 34.2077 15.5009 33.9693 15.7262 33.6747C15.9602 33.38 16.1336 33.0507 16.2462 32.6867C16.3676 32.314 16.4282 31.937 16.4282 31.5557C16.4282 31.157 16.3632 30.7713 16.2332 30.3987C16.1119 30.026 15.9342 29.6967 15.7002 29.4107C15.4749 29.1247 15.1932 28.8993 14.8552 28.7347C14.5259 28.5613 14.1532 28.4747 13.7372 28.4747C13.3039 28.4747 12.9182 28.5657 12.5802 28.7477C12.2422 28.921 11.9606 29.155 11.7352 29.4497C11.5099 29.7357 11.3366 30.065 11.2152 30.4377C11.1026 30.8017 11.0462 31.1743 11.0462 31.5557ZM21.4054 30.2557V36.1707H19.6114V26.9407H21.0024L25.8124 32.9987V26.9537H27.6064V36.1707H26.1504L21.4054 30.2557ZM33.4655 36.2357C32.7895 36.2357 32.1741 36.1057 31.6195 35.8457C31.0735 35.577 30.6011 35.226 30.2025 34.7927C29.8125 34.3507 29.5091 33.848 29.2925 33.2847C29.0758 32.7213 28.9675 32.145 28.9675 31.5557C28.9675 30.9403 29.0801 30.351 29.3055 29.7877C29.5395 29.2243 29.8558 28.726 30.2545 28.2927C30.6618 27.8593 31.1428 27.517 31.6975 27.2657C32.2521 27.0057 32.8545 26.8757 33.5045 26.8757C34.1718 26.8757 34.7785 27.0143 35.3245 27.2917C35.8791 27.5603 36.3515 27.9157 36.7415 28.3577C37.1315 28.7997 37.4348 29.3023 37.6515 29.8657C37.8681 30.429 37.9765 31.001 37.9765 31.5817C37.9765 32.197 37.8638 32.7863 37.6385 33.3497C37.4131 33.9043 37.1011 34.3983 36.7025 34.8317C36.3038 35.2563 35.8271 35.5987 35.2725 35.8587C34.7178 36.11 34.1155 36.2357 33.4655 36.2357ZM30.7875 31.5557C30.7875 31.9543 30.8481 32.34 30.9695 32.7127C31.0908 33.0853 31.2641 33.4147 31.4895 33.7007C31.7235 33.9867 32.0051 34.2163 32.3345 34.3897C32.6725 34.563 33.0538 34.6497 33.4785 34.6497C33.9118 34.6497 34.2931 34.563 34.6225 34.3897C34.9605 34.2077 35.2421 33.9693 35.4675 33.6747C35.7015 33.38 35.8748 33.0507 35.9875 32.6867C36.1088 32.314 36.1695 31.937 36.1695 31.5557C36.1695 31.157 36.1045 30.7713 35.9745 30.3987C35.8531 30.026 35.6755 29.6967 35.4415 29.4107C35.2161 29.1247 34.9345 28.8993 34.5965 28.7347C34.2671 28.5613 33.8945 28.4747 33.4785 28.4747C33.0451 28.4747 32.6595 28.5657 32.3215 28.7477C31.9835 28.921 31.7018 29.155 31.4765 29.4497C31.2511 29.7357 31.0778 30.065 30.9565 30.4377C30.8438 30.8017 30.7875 31.1743 30.7875 31.5557ZM38.7936 31.4907C38.7936 30.9273 38.8933 30.3727 39.0926 29.8267C39.3006 29.272 39.5996 28.778 39.9896 28.3447C40.3796 27.9113 40.8563 27.5603 41.4196 27.2917C41.983 27.023 42.6243 26.8887 43.3436 26.8887C44.193 26.8887 44.9253 27.075 45.5406 27.4477C46.1646 27.8203 46.6283 28.3057 46.9316 28.9037L45.5536 29.8527C45.4323 29.5927 45.285 29.376 45.1116 29.2027C44.9383 29.0207 44.752 28.8777 44.5526 28.7737C44.3533 28.6697 44.1453 28.596 43.9286 28.5527C43.712 28.5007 43.4996 28.4747 43.2916 28.4747C42.841 28.4747 42.4466 28.5657 42.1086 28.7477C41.7793 28.9297 41.502 29.168 41.2766 29.4627C41.06 29.7487 40.8953 30.078 40.7826 30.4507C40.67 30.8147 40.6136 31.1787 40.6136 31.5427C40.6136 31.95 40.6786 32.3443 40.8086 32.7257C40.9386 33.0983 41.1206 33.4277 41.3546 33.7137C41.5973 33.9997 41.8833 34.2293 42.2126 34.4027C42.5506 34.576 42.919 34.6627 43.3176 34.6627C43.5256 34.6627 43.7423 34.6367 43.9676 34.5847C44.193 34.5327 44.4053 34.4503 44.6046 34.3377C44.8126 34.225 45.0033 34.082 45.1766 33.9087C45.35 33.7267 45.4886 33.51 45.5926 33.2587L47.0616 34.1037C46.9143 34.4503 46.702 34.758 46.4246 35.0267C46.156 35.2867 45.8483 35.5077 45.5016 35.6897C45.1636 35.8717 44.7996 36.0103 44.4096 36.1057C44.0196 36.201 43.6383 36.2487 43.2656 36.2487C42.607 36.2487 42.0046 36.11 41.4586 35.8327C40.9126 35.5553 40.4403 35.1957 40.0416 34.7537C39.6516 34.303 39.344 33.796 39.1186 33.2327C38.902 32.6607 38.7936 32.08 38.7936 31.4907ZM54.6737 34.5977V36.1707H48.2647V26.9407H54.5567V28.5137H50.0587V30.7367H53.9457V32.1927H50.0587V34.5977H54.6737ZM57.8664 30.2557V36.1707H56.0724V26.9407H57.4634L62.2734 32.9987V26.9537H64.0674V36.1707H62.6114L57.8664 30.2557ZM69.9264 36.2357C69.2504 36.2357 68.6351 36.1057 68.0804 35.8457C67.5344 35.577 67.0621 35.226 66.6634 34.7927C66.2734 34.3507 65.9701 33.848 65.7534 33.2847C65.5367 32.7213 65.4284 32.145 65.4284 31.5557C65.4284 30.9403 65.5411 30.351 65.7664 29.7877C66.0004 29.2243 66.3167 28.726 66.7154 28.2927C67.1227 27.8593 67.6037 27.517 68.1584 27.2657C68.7131 27.0057 69.3154 26.8757 69.9654 26.8757C70.6327 26.8757 71.2394 27.0143 71.7854 27.2917C72.3401 27.5603 72.8124 27.9157 73.2024 28.3577C73.5924 28.7997 73.8957 29.3023 74.1124 29.8657C74.3291 30.429 74.4374 31.001 74.4374 31.5817C74.4374 32.197 74.3247 32.7863 74.0994 33.3497C73.8741 33.9043 73.5621 34.3983 73.1634 34.8317C72.7647 35.2563 72.2881 35.5987 71.7334 35.8587C71.1787 36.11 70.5764 36.2357 69.9264 36.2357ZM67.2484 31.5557C67.2484 31.9543 67.3091 32.34 67.4304 32.7127C67.5517 33.0853 67.7251 33.4147 67.9504 33.7007C68.1844 33.9867 68.4661 34.2163 68.7954 34.3897C69.1334 34.563 69.5147 34.6497 69.9394 34.6497C70.3727 34.6497 70.7541 34.563 71.0834 34.3897C71.4214 34.2077 71.7031 33.9693 71.9284 33.6747C72.1624 33.38 72.3357 33.0507 72.4484 32.6867C72.5697 32.314 72.6304 31.937 72.6304 31.5557C72.6304 31.157 72.5654 30.7713 72.4354 30.3987C72.3141 30.026 72.1364 29.6967 71.9024 29.4107C71.6771 29.1247 71.3954 28.8993 71.0574 28.7347C70.7281 28.5613 70.3554 28.4747 69.9394 28.4747C69.5061 28.4747 69.1204 28.5657 68.7824 28.7477C68.4444 28.921 68.1627 29.155 67.9374 29.4497C67.7121 29.7357 67.5387 30.065 67.4174 30.4377C67.3047 30.8017 67.2484 31.1743 67.2484 31.5557ZM81.3126 29.3587C81.2519 29.298 81.1392 29.2157 80.9746 29.1117C80.8186 29.0077 80.6236 28.908 80.3896 28.8127C80.1642 28.7087 79.9172 28.622 79.6486 28.5527C79.3799 28.4833 79.1069 28.4487 78.8296 28.4487C78.3356 28.4487 77.9672 28.5397 77.7246 28.7217C77.4819 28.9037 77.3606 29.1593 77.3606 29.4887C77.3606 29.6793 77.4039 29.8397 77.4906 29.9697C77.5859 30.091 77.7202 30.1993 77.8936 30.2947C78.0669 30.39 78.2836 30.4767 78.5436 30.5547C78.8122 30.6327 79.1199 30.715 79.4666 30.8017C79.9172 30.923 80.3246 31.053 80.6886 31.1917C81.0612 31.3303 81.3732 31.5037 81.6246 31.7117C81.8846 31.9197 82.0839 32.171 82.2226 32.4657C82.3612 32.7517 82.4306 33.107 82.4306 33.5317C82.4306 34.0257 82.3352 34.4503 82.1446 34.8057C81.9626 35.1523 81.7112 35.434 81.3906 35.6507C81.0786 35.8673 80.7146 36.0277 80.2986 36.1317C79.8912 36.227 79.4622 36.2747 79.0116 36.2747C78.3182 36.2747 77.6336 36.1707 76.9576 35.9627C76.2816 35.7547 75.6749 35.46 75.1376 35.0787L75.9306 33.5317C76.0086 33.6097 76.1472 33.7137 76.3466 33.8437C76.5546 33.965 76.7972 34.0907 77.0746 34.2207C77.3519 34.342 77.6596 34.446 77.9976 34.5327C78.3356 34.6193 78.6822 34.6627 79.0376 34.6627C80.0256 34.6627 80.5196 34.3463 80.5196 33.7137C80.5196 33.5143 80.4632 33.3453 80.3506 33.2067C80.2379 33.068 80.0776 32.9467 79.8696 32.8427C79.6616 32.7387 79.4102 32.6433 79.1156 32.5567C78.8209 32.47 78.4916 32.3747 78.1276 32.2707C77.6856 32.1493 77.2999 32.0193 76.9706 31.8807C76.6499 31.7333 76.3812 31.5643 76.1646 31.3737C75.9479 31.1743 75.7832 30.949 75.6706 30.6977C75.5666 30.4377 75.5146 30.13 75.5146 29.7747C75.5146 29.3067 75.6012 28.8907 75.7746 28.5267C75.9479 28.1627 76.1862 27.8593 76.4896 27.6167C76.8016 27.374 77.1612 27.192 77.5686 27.0707C77.9759 26.9407 78.4136 26.8757 78.8816 26.8757C79.5316 26.8757 80.1296 26.9797 80.6756 27.1877C81.2216 27.387 81.6982 27.6253 82.1056 27.9027L81.3126 29.3587Z" fill="white"/>
<path fill-rule="evenodd" clip-rule="evenodd" d="M46.5442 59.5799C46.8446 59.2774 46.8446 58.7869 46.5442 58.4843C46.2438 58.1818 45.7568 58.1818 45.4564 58.4843L42.1541 61.81L42.1541 44.3129L40.6157 44.3129L40.6157 61.8101L37.3134 58.4843C37.013 58.1818 36.526 58.1818 36.2255 58.4843C35.9251 58.7869 35.9251 59.2774 36.2255 59.5799L40.841 64.2281C40.9852 64.3734 41.1809 64.455 41.3849 64.455C41.5889 64.455 41.7846 64.3734 41.9288 64.2281L46.5442 59.5799Z" fill="white"/>
<path fill-rule="evenodd" clip-rule="evenodd" d="M41.4615 19.3675L41.4615 -3.11653e-08L43 0L43 19.3675L41.4615 19.3675Z" fill="white"/>
</svg>
