<svg width="83" height="82" viewBox="0 0 83 82" fill="none" xmlns="http://www.w3.org/2000/svg">
<path d="M0.403 37.7811C0.403 37.2177 0.502667 36.6631 0.702 36.1171C0.91 35.5624 1.209 35.0684 1.599 34.6351C1.989 34.2017 2.46567 33.8507 3.029 33.5821C3.59233 33.3134 4.23367 33.1791 4.953 33.1791C5.80233 33.1791 6.53467 33.3654 7.15 33.7381C7.774 34.1107 8.23767 34.5961 8.541 35.1941L7.163 36.1431C7.04167 35.8831 6.89433 35.6664 6.721 35.4931C6.54767 35.3111 6.36133 35.1681 6.162 35.0641C5.96267 34.9601 5.75467 34.8864 5.538 34.8431C5.32133 34.7911 5.109 34.7651 4.901 34.7651C4.45033 34.7651 4.056 34.8561 3.718 35.0381C3.38867 35.2201 3.11133 35.4584 2.886 35.7531C2.66933 36.0391 2.50467 36.3684 2.392 36.7411C2.27933 37.1051 2.223 37.4691 2.223 37.8331C2.223 38.2404 2.288 38.6347 2.418 39.0161C2.548 39.3887 2.73 39.7181 2.964 40.0041C3.20667 40.2901 3.49267 40.5197 3.822 40.6931C4.16 40.8664 4.52833 40.9531 4.927 40.9531C5.135 40.9531 5.35167 40.9271 5.577 40.8751C5.80233 40.8231 6.01467 40.7407 6.214 40.6281C6.422 40.5154 6.61267 40.3724 6.786 40.1991C6.95933 40.0171 7.098 39.8004 7.202 39.5491L8.671 40.3941C8.52367 40.7407 8.31133 41.0484 8.034 41.3171C7.76533 41.5771 7.45767 41.7981 7.111 41.9801C6.773 42.1621 6.409 42.3007 6.019 42.3961C5.629 42.4914 5.24767 42.5391 4.875 42.5391C4.21633 42.5391 3.614 42.4004 3.068 42.1231C2.522 41.8457 2.04967 41.4861 1.651 41.0441C1.261 40.5934 0.953333 40.0864 0.728 39.5231C0.511333 38.9511 0.403 38.3704 0.403 37.7811ZM13.7242 42.5261C13.0482 42.5261 12.4329 42.3961 11.8782 42.1361C11.3322 41.8674 10.8599 41.5164 10.4612 41.0831C10.0712 40.6411 9.76791 40.1384 9.55124 39.5751C9.33458 39.0117 9.22624 38.4354 9.22624 37.8461C9.22624 37.2307 9.33891 36.6414 9.56424 36.0781C9.79824 35.5147 10.1146 35.0164 10.5132 34.5831C10.9206 34.1497 11.4016 33.8074 11.9562 33.5561C12.5109 33.2961 13.1132 33.1661 13.7632 33.1661C14.4306 33.1661 15.0372 33.3047 15.5832 33.5821C16.1379 33.8507 16.6102 34.2061 17.0002 34.6481C17.3902 35.0901 17.6936 35.5927 17.9102 36.1561C18.1269 36.7194 18.2352 37.2914 18.2352 37.8721C18.2352 38.4874 18.1226 39.0767 17.8972 39.6401C17.6719 40.1947 17.3599 40.6887 16.9612 41.1221C16.5626 41.5467 16.0859 41.8891 15.5312 42.1491C14.9766 42.4004 14.3742 42.5261 13.7242 42.5261ZM11.0462 37.8461C11.0462 38.2447 11.1069 38.6304 11.2282 39.0031C11.3496 39.3757 11.5229 39.7051 11.7482 39.9911C11.9822 40.2771 12.2639 40.5067 12.5932 40.6801C12.9312 40.8534 13.3126 40.9401 13.7372 40.9401C14.1706 40.9401 14.5519 40.8534 14.8812 40.6801C15.2192 40.4981 15.5009 40.2597 15.7262 39.9651C15.9602 39.6704 16.1336 39.3411 16.2462 38.9771C16.3676 38.6044 16.4282 38.2274 16.4282 37.8461C16.4282 37.4474 16.3632 37.0617 16.2332 36.6891C16.1119 36.3164 15.9342 35.9871 15.7002 35.7011C15.4749 35.4151 15.1932 35.1897 14.8552 35.0251C14.5259 34.8517 14.1532 34.7651 13.7372 34.7651C13.3039 34.7651 12.9182 34.8561 12.5802 35.0381C12.2422 35.2114 11.9606 35.4454 11.7352 35.7401C11.5099 36.0261 11.3366 36.3554 11.2152 36.7281C11.1026 37.0921 11.0462 37.4647 11.0462 37.8461ZM21.4054 36.5461V42.4611H19.6114V33.2311H21.0024L25.8124 39.2891V33.2441H27.6064V42.4611H26.1504L21.4054 36.5461ZM33.4655 42.5261C32.7895 42.5261 32.1741 42.3961 31.6195 42.1361C31.0735 41.8674 30.6011 41.5164 30.2025 41.0831C29.8125 40.6411 29.5091 40.1384 29.2925 39.5751C29.0758 39.0117 28.9675 38.4354 28.9675 37.8461C28.9675 37.2307 29.0801 36.6414 29.3055 36.0781C29.5395 35.5147 29.8558 35.0164 30.2545 34.5831C30.6618 34.1497 31.1428 33.8074 31.6975 33.5561C32.2521 33.2961 32.8545 33.1661 33.5045 33.1661C34.1718 33.1661 34.7785 33.3047 35.3245 33.5821C35.8791 33.8507 36.3515 34.2061 36.7415 34.6481C37.1315 35.0901 37.4348 35.5927 37.6515 36.1561C37.8681 36.7194 37.9765 37.2914 37.9765 37.8721C37.9765 38.4874 37.8638 39.0767 37.6385 39.6401C37.4131 40.1947 37.1011 40.6887 36.7025 41.1221C36.3038 41.5467 35.8271 41.8891 35.2725 42.1491C34.7178 42.4004 34.1155 42.5261 33.4655 42.5261ZM30.7875 37.8461C30.7875 38.2447 30.8481 38.6304 30.9695 39.0031C31.0908 39.3757 31.2641 39.7051 31.4895 39.9911C31.7235 40.2771 32.0051 40.5067 32.3345 40.6801C32.6725 40.8534 33.0538 40.9401 33.4785 40.9401C33.9118 40.9401 34.2931 40.8534 34.6225 40.6801C34.9605 40.4981 35.2421 40.2597 35.4675 39.9651C35.7015 39.6704 35.8748 39.3411 35.9875 38.9771C36.1088 38.6044 36.1695 38.2274 36.1695 37.8461C36.1695 37.4474 36.1045 37.0617 35.9745 36.6891C35.8531 36.3164 35.6755 35.9871 35.4415 35.7011C35.2161 35.4151 34.9345 35.1897 34.5965 35.0251C34.2671 34.8517 33.8945 34.7651 33.4785 34.7651C33.0451 34.7651 32.6595 34.8561 32.3215 35.0381C31.9835 35.2114 31.7018 35.4454 31.4765 35.7401C31.2511 36.0261 31.0778 36.3554 30.9565 36.7281C30.8438 37.0921 30.7875 37.4647 30.7875 37.8461ZM38.7936 37.7811C38.7936 37.2177 38.8933 36.6631 39.0926 36.1171C39.3006 35.5624 39.5996 35.0684 39.9896 34.6351C40.3796 34.2017 40.8563 33.8507 41.4196 33.5821C41.983 33.3134 42.6243 33.1791 43.3436 33.1791C44.193 33.1791 44.9253 33.3654 45.5406 33.7381C46.1646 34.1107 46.6283 34.5961 46.9316 35.1941L45.5536 36.1431C45.4323 35.8831 45.285 35.6664 45.1116 35.4931C44.9383 35.3111 44.752 35.1681 44.5526 35.0641C44.3533 34.9601 44.1453 34.8864 43.9286 34.8431C43.712 34.7911 43.4996 34.7651 43.2916 34.7651C42.841 34.7651 42.4466 34.8561 42.1086 35.0381C41.7793 35.2201 41.502 35.4584 41.2766 35.7531C41.06 36.0391 40.8953 36.3684 40.7826 36.7411C40.67 37.1051 40.6136 37.4691 40.6136 37.8331C40.6136 38.2404 40.6786 38.6347 40.8086 39.0161C40.9386 39.3887 41.1206 39.7181 41.3546 40.0041C41.5973 40.2901 41.8833 40.5197 42.2126 40.6931C42.5506 40.8664 42.919 40.9531 43.3176 40.9531C43.5256 40.9531 43.7423 40.9271 43.9676 40.8751C44.193 40.8231 44.4053 40.7407 44.6046 40.6281C44.8126 40.5154 45.0033 40.3724 45.1766 40.1991C45.35 40.0171 45.4886 39.8004 45.5926 39.5491L47.0616 40.3941C46.9143 40.7407 46.702 41.0484 46.4246 41.3171C46.156 41.5771 45.8483 41.7981 45.5016 41.9801C45.1636 42.1621 44.7996 42.3007 44.4096 42.3961C44.0196 42.4914 43.6383 42.5391 43.2656 42.5391C42.607 42.5391 42.0046 42.4004 41.4586 42.1231C40.9126 41.8457 40.4403 41.4861 40.0416 41.0441C39.6516 40.5934 39.344 40.0864 39.1186 39.5231C38.902 38.9511 38.7936 38.3704 38.7936 37.7811ZM54.6737 40.8881V42.4611H48.2647V33.2311H54.5567V34.8041H50.0587V37.0271H53.9457V38.4831H50.0587V40.8881H54.6737ZM57.8664 36.5461V42.4611H56.0724V33.2311H57.4634L62.2734 39.2891V33.2441H64.0674V42.4611H62.6114L57.8664 36.5461ZM69.9264 42.5261C69.2504 42.5261 68.6351 42.3961 68.0804 42.1361C67.5344 41.8674 67.0621 41.5164 66.6634 41.0831C66.2734 40.6411 65.9701 40.1384 65.7534 39.5751C65.5367 39.0117 65.4284 38.4354 65.4284 37.8461C65.4284 37.2307 65.5411 36.6414 65.7664 36.0781C66.0004 35.5147 66.3167 35.0164 66.7154 34.5831C67.1227 34.1497 67.6037 33.8074 68.1584 33.5561C68.7131 33.2961 69.3154 33.1661 69.9654 33.1661C70.6327 33.1661 71.2394 33.3047 71.7854 33.5821C72.3401 33.8507 72.8124 34.2061 73.2024 34.6481C73.5924 35.0901 73.8957 35.5927 74.1124 36.1561C74.3291 36.7194 74.4374 37.2914 74.4374 37.8721C74.4374 38.4874 74.3247 39.0767 74.0994 39.6401C73.8741 40.1947 73.5621 40.6887 73.1634 41.1221C72.7647 41.5467 72.2881 41.8891 71.7334 42.1491C71.1787 42.4004 70.5764 42.5261 69.9264 42.5261ZM67.2484 37.8461C67.2484 38.2447 67.3091 38.6304 67.4304 39.0031C67.5517 39.3757 67.7251 39.7051 67.9504 39.9911C68.1844 40.2771 68.4661 40.5067 68.7954 40.6801C69.1334 40.8534 69.5147 40.9401 69.9394 40.9401C70.3727 40.9401 70.7541 40.8534 71.0834 40.6801C71.4214 40.4981 71.7031 40.2597 71.9284 39.9651C72.1624 39.6704 72.3357 39.3411 72.4484 38.9771C72.5697 38.6044 72.6304 38.2274 72.6304 37.8461C72.6304 37.4474 72.5654 37.0617 72.4354 36.6891C72.3141 36.3164 72.1364 35.9871 71.9024 35.7011C71.6771 35.4151 71.3954 35.1897 71.0574 35.0251C70.7281 34.8517 70.3554 34.7651 69.9394 34.7651C69.5061 34.7651 69.1204 34.8561 68.7824 35.0381C68.4444 35.2114 68.1627 35.4454 67.9374 35.7401C67.7121 36.0261 67.5387 36.3554 67.4174 36.7281C67.3047 37.0921 67.2484 37.4647 67.2484 37.8461ZM81.3126 35.6491C81.2519 35.5884 81.1392 35.5061 80.9746 35.4021C80.8186 35.2981 80.6236 35.1984 80.3896 35.1031C80.1642 34.9991 79.9172 34.9124 79.6486 34.8431C79.3799 34.7737 79.1069 34.7391 78.8296 34.7391C78.3356 34.7391 77.9672 34.8301 77.7246 35.0121C77.4819 35.1941 77.3606 35.4497 77.3606 35.7791C77.3606 35.9697 77.4039 36.1301 77.4906 36.2601C77.5859 36.3814 77.7202 36.4897 77.8936 36.5851C78.0669 36.6804 78.2836 36.7671 78.5436 36.8451C78.8122 36.9231 79.1199 37.0054 79.4666 37.0921C79.9172 37.2134 80.3246 37.3434 80.6886 37.4821C81.0612 37.6207 81.3732 37.7941 81.6246 38.0021C81.8846 38.2101 82.0839 38.4614 82.2226 38.7561C82.3612 39.0421 82.4306 39.3974 82.4306 39.8221C82.4306 40.3161 82.3352 40.7407 82.1446 41.0961C81.9626 41.4427 81.7112 41.7244 81.3906 41.9411C81.0786 42.1577 80.7146 42.3181 80.2986 42.4221C79.8912 42.5174 79.4622 42.5651 79.0116 42.5651C78.3182 42.5651 77.6336 42.4611 76.9576 42.2531C76.2816 42.0451 75.6749 41.7504 75.1376 41.3691L75.9306 39.8221C76.0086 39.9001 76.1472 40.0041 76.3466 40.1341C76.5546 40.2554 76.7972 40.3811 77.0746 40.5111C77.3519 40.6324 77.6596 40.7364 77.9976 40.8231C78.3356 40.9097 78.6822 40.9531 79.0376 40.9531C80.0256 40.9531 80.5196 40.6367 80.5196 40.0041C80.5196 39.8047 80.4632 39.6357 80.3506 39.4971C80.2379 39.3584 80.0776 39.2371 79.8696 39.1331C79.6616 39.0291 79.4102 38.9337 79.1156 38.8471C78.8209 38.7604 78.4916 38.6651 78.1276 38.5611C77.6856 38.4397 77.2999 38.3097 76.9706 38.1711C76.6499 38.0237 76.3812 37.8547 76.1646 37.6641C75.9479 37.4647 75.7832 37.2394 75.6706 36.9881C75.5666 36.7281 75.5146 36.4204 75.5146 36.0651C75.5146 35.5971 75.6012 35.1811 75.7746 34.8171C75.9479 34.4531 76.1862 34.1497 76.4896 33.9071C76.8016 33.6644 77.1612 33.4824 77.5686 33.3611C77.9759 33.2311 78.4136 33.1661 78.8816 33.1661C79.5316 33.1661 80.1296 33.2701 80.6756 33.4781C81.2216 33.6774 81.6982 33.9157 82.1056 34.1931L81.3126 35.6491Z" fill="#00264E"/>
<path fill-rule="evenodd" clip-rule="evenodd" d="M46.5442 75.0854C46.8446 74.7042 46.8446 74.086 46.5442 73.7047C46.2438 73.3235 45.7568 73.3235 45.4564 73.7047L42.1541 77.8959L42.1541 55.8452L40.6157 55.8452L40.6157 77.896L37.3134 73.7047C37.013 73.3235 36.5259 73.3235 36.2255 73.7047C35.9251 74.086 35.9251 74.7042 36.2255 75.0854L40.841 80.9433C40.9852 81.1264 41.1809 81.2293 41.3849 81.2293C41.5889 81.2293 41.7846 81.1264 41.9288 80.9433L46.5442 75.0854Z" fill="#00264E"/>
<path fill-rule="evenodd" clip-rule="evenodd" d="M41.4615 24.4077L41.4615 -3.92758e-08L43 0L43 24.4077L41.4615 24.4077Z" fill="#00264E"/>
</svg>
