<svg width="19" height="20" viewBox="0 0 19 20" fill="none" xmlns="http://www.w3.org/2000/svg">
<path d="M9.87049 14.8517L11.8968 12.8255C12.1395 12.5827 12.5213 12.549 12.8028 12.7453L15.6644 14.7411C16.026 14.9934 16.0718 15.5112 15.76 15.823L15.3292 16.2538C14.8261 16.7569 14.1056 16.9749 13.427 16.7612C11.8516 16.2651 8.86637 15.0705 6.4004 12.6045C3.93442 10.1385 2.73976 7.15326 2.24366 5.5779C2.02995 4.89926 2.24799 4.17879 2.75109 3.67569L3.18192 3.24486C3.49371 2.93307 4.01153 2.97886 4.26377 3.34052L6.25955 6.20207C6.45591 6.48361 6.42215 6.86542 6.17943 7.10814L4.15317 9.1344" stroke="#F7F7F7" stroke-width="0.77474" stroke-linecap="round"/>
</svg>
