<?xml version="1.0" encoding="UTF-8"?>
<svg width="50px" height="52px" viewBox="0 0 50 52" version="1.1" xmlns="http://www.w3.org/2000/svg" xmlns:xlink="http://www.w3.org/1999/xlink">
    <!-- Generator: Sketch 57.1 (83088) - https://sketch.com -->
    <title>whatsapp-flotante@1,5x</title>
    <desc>Created with Sketch.</desc>
    <defs>
        <polygon id="path-1" points="5.37634409e-05 0.123079883 49.879086 0.123079883 49.879086 51.0545455 5.37634409e-05 51.0545455"></polygon>
    </defs>
    <g id="Desktop" stroke="none" stroke-width="1" fill="none" fill-rule="evenodd">
        <g id="Mayorista---Index" transform="translate(-170.000000, -4329.000000)">
            <g id="whatsapp-flotante" transform="translate(170.000000, 4329.000000)">
                <g id="Group-6">
                    <g id="Group-3">
                        <mask id="mask-2" fill="white">
                            <use xlink:href="#path-1"></use>
                        </mask>
                        <g id="Clip-2"></g>
                        <path d="M5.37634409e-05,25.5888676 C5.37634409e-05,11.5247127 11.1661828,0.123079883 24.9398387,0.123079883 C38.7134946,0.123079883 49.879086,11.5247127 49.879086,25.5888676 C49.879086,39.6530224 38.7134946,51.0546552 24.9398387,51.0546552 C11.1661828,51.0546552 5.37634409e-05,39.6530224 5.37634409e-05,25.5888676" id="Fill-1" fill="#00C022" mask="url(#mask-2)"></path>
                    </g>
                    <path d="M25.7624596,11 C17.901288,11 11.5271132,17.54267 11.5271132,25.6140275 C11.5271132,28.375237 12.2741768,30.9568326 13.5702937,33.1600571 L11,41 L18.8820147,38.4105216 C20.9219043,39.5675945 23.267311,40.228055 25.7624596,40.228055 C33.6263736,40.228055 40,33.684822 40,25.6140275 C40,17.54267 33.6263736,11 25.7624596,11 M25.7624596,37.7799028 C23.3567173,37.7799028 21.1144295,37.0383626 19.2434794,35.7675532 L14.6886951,37.2641467 L16.1691097,32.7467765 C14.7501277,30.7411835 13.9125608,28.2772658 13.9125608,25.6140275 C13.9125608,18.904694 19.2286698,13.4475892 25.7624596,13.4475892 C32.2984434,13.4475892 37.6140039,18.904694 37.6140039,25.6140275 C37.6140039,32.3216719 32.2984434,37.7799028 25.7624596,37.7799028 M32.4383121,28.9343481 C32.081784,28.7339014 30.328214,27.7626358 30.0002081,27.625251 C29.6716536,27.4884293 29.43086,27.4169216 29.1747083,27.7812166 C28.9196535,28.1443854 28.1912391,28.9579963 27.9712886,29.1984197 C27.7502412,29.4399692 27.5368728,29.4624913 27.1792476,29.2614816 C26.824365,29.0610349 25.6670197,28.6212909 24.3253769,27.2975545 C23.2810236,26.2677315 22.5964896,25.018318 22.3984793,24.6371314 C22.1988236,24.2553818 22.3968338,24.0605657 22.5855195,23.882078 C22.755556,23.720482 22.9650848,23.4592256 23.1548675,23.249207 C23.3435532,23.0386254 23.4099223,22.8854751 23.5404664,22.6411103 C23.6710106,22.3973086 23.6178056,22.1771551 23.5333359,21.9868433 C23.4499631,21.7970946 22.7901118,19.9333909 22.5147623,19.1749592 C22.2388644,18.4170905 21.9322502,18.529138 21.7199788,18.5206922 C21.5077074,18.5133725 21.2669138,18.4728327 21.0250232,18.4626978 C20.781487,18.4536889 20.384918,18.5319532 20.0388114,18.8923068 C19.6921564,19.2526604 18.7196573,20.1191982 18.6532882,21.9553124 C18.5858221,23.7903005 19.823249,25.6140275 19.9960281,25.8690903 C20.1682586,26.1252792 22.35789,30.1038081 25.9966711,31.7394756 C29.6370978,33.3762692 29.656844,32.8774047 30.3238259,32.8408063 C30.9930018,32.8042079 32.5068752,32.0198758 32.8420117,31.1612207 C33.1771482,30.3020026 33.2034764,29.555395 33.1190066,29.3966142 C33.0334399,29.2378334 32.7942918,29.1347948 32.4383121,28.9343481" id="Fill-4" fill="#FFFFFF"></path>
                </g>
            </g>
        </g>
    </g>
</svg>