<svg width="13" height="13" viewBox="0 0 13 13" fill="none" xmlns="http://www.w3.org/2000/svg">
<path d="M9.8047 4.05277C10.1947 4.05277 10.5108 3.73665 10.5108 3.3467C10.5108 2.95674 10.1947 2.64062 9.8047 2.64062C9.41475 2.64062 9.09863 2.95674 9.09863 3.3467C9.09863 3.73665 9.41475 4.05277 9.8047 4.05277Z" fill="#00264E"/>
<path fill-rule="evenodd" clip-rule="evenodd" d="M3.81421 6.36823C3.81421 7.99073 5.13368 9.3102 6.75617 9.3102C8.37867 9.3102 9.69814 7.99073 9.69814 6.36823C9.69814 4.74574 8.37867 3.42627 6.75617 3.42627C5.13368 3.42627 3.81421 4.74574 3.81421 6.36823ZM5.28496 6.36764C5.28496 5.55639 5.94469 4.89665 6.75594 4.89665C7.56719 4.89665 8.22692 5.55639 8.22692 6.36764C8.22692 7.17888 7.56719 7.83862 6.75594 7.83862C5.94469 7.83862 5.28496 7.17888 5.28496 6.36764Z" fill="#00264E"/>
<path fill-rule="evenodd" clip-rule="evenodd" d="M3.8144 12.2517H9.69833C11.2105 12.2517 12.6403 10.8219 12.6403 9.30978V3.42585C12.6403 1.91368 11.2105 0.483887 9.69833 0.483887H3.8144C2.30223 0.483887 0.872437 1.91368 0.872437 3.42585V9.30978C0.872437 10.8219 2.30223 12.2517 3.8144 12.2517ZM2.34326 3.42581C2.34326 2.73813 3.12656 1.95483 3.81424 1.95483H9.69817C10.3859 1.95483 11.1692 2.73813 11.1692 3.42581V9.30974C11.1692 9.99742 10.3859 10.7807 9.69817 10.7807H3.81424C3.11332 10.7807 2.34326 10.0107 2.34326 9.30974V3.42581Z" fill="#00264E"/>
</svg>
