<svg width="9" height="10" viewBox="0 0 9 10" fill="none" xmlns="http://www.w3.org/2000/svg">
<path d="M6.37216 3.1917C6.65034 3.1917 6.87584 2.96619 6.87584 2.68801C6.87584 2.40983 6.65034 2.18433 6.37216 2.18433C6.09398 2.18433 5.86847 2.40983 5.86847 2.68801C5.86847 2.96619 6.09398 3.1917 6.37216 3.1917Z" fill="#F7F7F7"/>
<path fill-rule="evenodd" clip-rule="evenodd" d="M2.09814 4.84382C2.09814 6.00125 3.03941 6.94251 4.19684 6.94251C5.35427 6.94251 6.29554 6.00125 6.29554 4.84382C6.29554 3.68638 5.35427 2.74512 4.19684 2.74512C3.03941 2.74512 2.09814 3.68638 2.09814 4.84382ZM3.14739 4.84338C3.14739 4.26466 3.61803 3.79403 4.19674 3.79403C4.77546 3.79403 5.24609 4.26466 5.24609 4.84338C5.24609 5.42209 4.77546 5.89273 4.19674 5.89273C3.61803 5.89273 3.14739 5.42209 3.14739 4.84338Z" fill="#F7F7F7"/>
<path fill-rule="evenodd" clip-rule="evenodd" d="M2.0987 9.04079H6.29609C7.37482 9.04079 8.39479 8.02082 8.39479 6.94209V2.74469C8.39479 1.66596 7.37482 0.645996 6.29609 0.645996H2.0987C1.01997 0.645996 0 1.66596 0 2.74469V6.94209C0 8.02082 1.01997 9.04079 2.0987 9.04079ZM1.04844 2.74466C1.04844 2.25409 1.60721 1.69532 2.09778 1.69532H6.29518C6.78575 1.69532 7.34453 2.25409 7.34453 2.74466V6.94206C7.34453 7.43263 6.78575 7.99141 6.29518 7.99141H2.09778C1.59777 7.99141 1.04844 7.44207 1.04844 6.94206V2.74466Z" fill="#F7F7F7"/>
</svg>
