<svg width="13" height="13" viewBox="0 0 13 13" fill="none" xmlns="http://www.w3.org/2000/svg">
<path d="M2.01114 3.539C2.85479 3.539 3.5387 2.85509 3.5387 2.01145C3.5387 1.1678 2.85479 0.483887 2.01114 0.483887C1.16749 0.483887 0.483582 1.1678 0.483582 2.01145C0.483582 2.85509 1.16749 3.539 2.01114 3.539Z" fill="#00264E"/>
<path d="M3.2838 4.55762H0.737869C0.597334 4.55762 0.483276 4.67167 0.483276 4.81221V12.45C0.483276 12.5905 0.597334 12.7046 0.737869 12.7046H3.2838C3.42434 12.7046 3.53839 12.5905 3.53839 12.45V4.81221C3.53839 4.67167 3.42434 4.55762 3.2838 4.55762Z" fill="#00264E"/>
<path d="M10.8688 4.20648C9.78065 3.83376 8.41959 4.16117 7.60337 4.74826C7.57536 4.63878 7.47556 4.55731 7.35692 4.55731H4.81099C4.67045 4.55731 4.5564 4.67137 4.5564 4.8119V12.4497C4.5564 12.5902 4.67045 12.7043 4.81099 12.7043H7.35692C7.49746 12.7043 7.61151 12.5902 7.61151 12.4497V6.96067C8.02294 6.60628 8.553 6.49324 8.98682 6.67756C9.40741 6.85527 9.64826 7.2891 9.64826 7.86702V12.4497C9.64826 12.5902 9.76232 12.7043 9.90285 12.7043H12.4488C12.5893 12.7043 12.7034 12.5902 12.7034 12.4497V7.35427C12.6744 5.26203 11.6901 4.48755 10.8688 4.20648Z" fill="#00264E"/>
</svg>
