<svg width="9" height="10" viewBox="0 0 9 10" fill="none" xmlns="http://www.w3.org/2000/svg">
<path d="M1.08995 2.82541C1.69178 2.82541 2.17966 2.33753 2.17966 1.7357C2.17966 1.13388 1.69178 0.645996 1.08995 0.645996C0.488123 0.645996 0.000244141 1.13388 0.000244141 1.7357C0.000244141 2.33753 0.488123 2.82541 1.08995 2.82541Z" fill="#F7F7F7"/>
<path d="M1.9978 3.552H0.181618C0.0813649 3.552 0 3.63337 0 3.73362V9.18216C0 9.28241 0.0813649 9.36378 0.181618 9.36378H1.9978C2.09805 9.36378 2.17942 9.28241 2.17942 9.18216V3.73362C2.17942 3.63337 2.09805 3.552 1.9978 3.552Z" fill="#F7F7F7"/>
<path d="M7.40874 3.30146C6.6325 3.03558 5.66157 3.26914 5.07931 3.68795C5.05933 3.60985 4.98813 3.55173 4.9035 3.55173H3.08732C2.98707 3.55173 2.9057 3.6331 2.9057 3.73335V9.18189C2.9057 9.28215 2.98707 9.36351 3.08732 9.36351H4.9035C5.00375 9.36351 5.08512 9.28215 5.08512 9.18189V5.26621C5.37861 5.0134 5.75674 4.93276 6.06622 5.06425C6.36625 5.19102 6.53806 5.5005 6.53806 5.91277V9.18189C6.53806 9.28215 6.61943 9.36351 6.71968 9.36351H8.53586C8.63611 9.36351 8.71748 9.28215 8.71748 9.18189V5.54699C8.69677 4.05445 7.99464 3.50197 7.40874 3.30146Z" fill="#F7F7F7"/>
</svg>
