<svg width="16" height="11" viewBox="0 0 16 11" fill="none" xmlns="http://www.w3.org/2000/svg">
<path fill-rule="evenodd" clip-rule="evenodd" d="M13.5761 0.699469C14.1963 0.863625 14.6848 1.34472 14.8512 1.95445C15.1602 3.0673 15.1458 5.38752 15.1458 5.38752C15.1458 5.38752 15.1436 7.69495 14.844 8.80709C14.6754 9.41611 14.1847 9.8965 13.5653 10.0599C12.432 10.3513 7.89827 10.3463 7.89827 10.3463C7.89827 10.3463 3.37682 10.3414 2.23198 10.0358C1.61108 9.87162 1.12261 9.39052 0.956163 8.78151C0.659461 7.68003 0.662355 5.36052 0.662355 5.36052C0.662355 5.36052 0.66525 3.05238 0.964123 1.93953C1.13201 1.33051 1.63424 0.838753 2.24211 0.676018C3.3761 0.383947 7.90913 0.388921 7.90913 0.388921C7.90913 0.388921 12.4429 0.393896 13.5761 0.699469ZM6.46229 3.23493L6.45867 7.49873L10.2304 5.37038L6.46229 3.23493Z" fill="#00264E"/>
</svg>
