<svg width="11" height="8" viewBox="0 0 11 8" fill="none" xmlns="http://www.w3.org/2000/svg">
<path fill-rule="evenodd" clip-rule="evenodd" d="M9.21226 0.513042C9.65467 0.630145 10.0031 0.973345 10.1219 1.4083C10.3423 2.20217 10.332 3.85734 10.332 3.85734C10.332 3.85734 10.3304 5.50338 10.1167 6.29675C9.99642 6.7312 9.64641 7.07389 9.20451 7.19049C8.39608 7.39833 5.16186 7.39478 5.16186 7.39478C5.16186 7.39478 1.93641 7.39124 1.11972 7.17325C0.676789 7.05615 0.328328 6.71295 0.209594 6.2785C-0.00206344 5.49274 7.55554e-07 3.83808 7.55554e-07 3.83808C7.55554e-07 3.83808 0.00206647 2.19153 0.215272 1.39766C0.335039 0.963206 0.693308 0.612402 1.12695 0.496312C1.93589 0.287959 5.1696 0.291508 5.1696 0.291508C5.1696 0.291508 8.40383 0.295056 9.21226 0.513042ZM4.1366 2.32177L4.13402 5.36343L6.82465 3.84514L4.1366 2.32177Z" fill="#F7F7F7"/>
</svg>
