<svg width="190" height="84" viewBox="0 0 190 84" fill="none" xmlns="http://www.w3.org/2000/svg">
<path d="M34.8726 35.1248H40.9294C42.9319 35.1248 44.3768 35.5197 45.2643 36.3059C46.1518 37.092 46.5955 38.2086 46.5955 39.6517C46.5955 40.2708 46.4514 41.2582 46.1669 42.614C45.8825 43.9698 45.0292 45.2117 43.6107 46.3473C42.1923 47.4828 40.4894 48.0487 38.4983 48.0487H32.1382L34.8726 35.1248ZM37.7664 45.113H38.267C38.6614 45.113 38.999 45.0446 39.2872 44.9079C39.5716 44.7712 39.8295 44.5699 40.0571 44.3078C40.2846 44.0458 40.4781 43.6926 40.6374 43.2521C40.7966 42.8115 40.9559 42.2229 41.1114 41.4899C41.2669 40.7569 41.3428 40.1493 41.3428 39.6745C41.3428 39.3517 41.2935 39.0707 41.1911 38.8352C41.0887 38.5959 40.9294 38.4099 40.7094 38.2693C40.4894 38.1326 40.1747 38.0643 39.7726 38.0643H39.272L37.7664 45.113Z" fill="#BF0811"/>
<path d="M55.2084 34.7678C57.0061 34.7678 58.3638 35.2008 59.274 36.0667C60.1842 36.9326 60.6393 38.1213 60.6393 39.6366C60.6393 40.2443 60.4952 41.2393 60.2032 42.6141C59.9112 43.9927 59.0654 45.2953 57.666 46.5258C56.2665 47.7525 54.4802 48.3677 52.3146 48.3677C50.517 48.3677 49.1592 47.9348 48.249 47.0689C47.3388 46.203 46.8837 45.0143 46.8837 43.499C46.8837 42.8913 47.0278 41.8963 47.3198 40.5177C47.6118 39.1391 48.4576 37.8364 49.8571 36.606C51.2565 35.3831 53.0428 34.7678 55.2084 34.7678ZM53.0314 45.0029C53.4828 45.0029 53.8734 44.7788 54.2033 44.3231C54.5295 43.8712 54.8177 43.0622 55.0605 41.9001C55.3032 40.738 55.4246 39.9062 55.4246 39.4049C55.4246 38.915 55.3487 38.5808 55.1932 38.4023C55.0377 38.2238 54.8064 38.1327 54.4954 38.1327C54.0289 38.1327 53.6345 38.3643 53.3083 38.8315C52.9783 39.2948 52.6939 40.0999 52.4512 41.2393C52.2084 42.3786 52.0833 43.2103 52.0833 43.7344C52.0833 44.2243 52.1667 44.5586 52.3336 44.7371C52.5005 44.9155 52.7318 45.0029 53.0314 45.0029Z" fill="#BF0811"/>
<path d="M62.9643 35.1248H69.0969L70.1854 42.9482L71.8655 35.1248H76.0108L73.2763 48.0487H67.1475L66.0932 40.172L64.3789 48.0487H60.2299L62.9643 35.1248Z" fill="#BF0811"/>
<path d="M83.7667 35.1248H91.2722C92.5351 35.1248 93.487 35.4096 94.1242 35.9755C94.7614 36.5413 95.0799 37.3085 95.0799 38.2769C95.0799 38.5048 95.0723 38.6833 95.061 38.8124C95.0496 38.9453 94.9548 39.4011 94.7841 40.191C94.6097 40.9772 93.999 41.7595 92.9523 42.5343C91.9055 43.309 90.5023 43.6964 88.7539 43.6964H87.0738L86.1446 48.0449H81.0322L83.7667 35.1248ZM87.9499 40.7645C88.5832 40.7645 89.0687 40.6468 89.4062 40.4151C89.7476 40.1834 89.9486 39.91 90.013 39.591C90.0775 39.2758 90.1117 39.0555 90.1117 38.9378C90.1117 38.3529 89.6755 38.0605 88.807 38.0605H88.2723L87.6996 40.7645H87.9499Z" fill="#BF0811"/>
<path d="M96.8133 35.1248H106.625L105.927 38.4896H101.012L100.708 39.8682H105.248L104.535 43.2331H99.9953L99.6919 44.6838H104.766L104.05 48.0487H94.0789L96.8133 35.1248Z" fill="#BF0811"/>
<path d="M107.895 35.1248H113.952C115.954 35.1248 117.399 35.5197 118.287 36.3059C119.174 37.092 119.618 38.2086 119.618 39.6517C119.618 40.2708 119.474 41.2582 119.189 42.614C118.905 43.9698 118.052 45.2117 116.633 46.3473C115.215 47.4828 113.512 48.0487 111.521 48.0487H105.157L107.895 35.1248ZM110.789 45.113H111.289C111.684 45.113 112.021 45.0446 112.31 44.9079C112.594 44.7712 112.852 44.5699 113.08 44.3078C113.307 44.0458 113.501 43.6926 113.66 43.2521C113.819 42.8115 113.978 42.2229 114.134 41.4899C114.289 40.7569 114.365 40.1493 114.365 39.6745C114.365 39.3517 114.316 39.0707 114.214 38.8352C114.111 38.5959 113.952 38.4099 113.732 38.2693C113.512 38.1326 113.197 38.0643 112.795 38.0643H112.294L110.789 45.113Z" fill="#BF0811"/>
<path d="M121.939 35.1248H129.57C130.833 35.1248 131.785 35.3108 132.429 35.6792C133.074 36.0476 133.393 36.6629 133.393 37.5212C133.393 37.7832 133.332 38.1934 133.214 38.7479C133.097 39.3023 132.782 39.8416 132.278 40.3657C131.773 40.8898 131.034 41.262 130.07 41.4747C131.284 41.619 131.895 42.1773 131.895 43.1571C131.895 43.3622 131.853 43.9357 131.77 44.8851C131.686 45.8346 131.644 46.5106 131.644 46.9169C131.644 47.2853 131.663 47.6613 131.697 48.0449H126.695C126.684 47.9499 126.676 47.8474 126.676 47.7335C126.676 47.6195 126.676 47.5284 126.676 47.4562C126.676 47.0499 126.703 46.4346 126.756 45.6143C126.809 44.7902 126.835 44.3686 126.835 44.342C126.835 44.0192 126.76 43.7913 126.604 43.6546C126.449 43.5179 126.175 43.4495 125.781 43.4495H125.193L124.211 48.0487H119.208L121.939 35.1248ZM126.229 40.5138C126.763 40.5138 127.207 40.4113 127.552 40.21C127.897 40.0087 128.098 39.7467 128.159 39.4315C128.22 39.1162 128.25 38.934 128.25 38.8846C128.25 38.5732 128.129 38.3605 127.882 38.239C127.636 38.1212 127.275 38.0605 126.801 38.0605H126.335L125.8 40.5138H126.229Z" fill="#BF0811"/>
<path d="M141.6 34.7678C143.397 34.7678 144.755 35.2008 145.665 36.0667C146.576 36.9326 147.031 38.1213 147.031 39.6366C147.031 40.2443 146.887 41.2393 146.595 42.6141C146.303 43.9927 145.457 45.2953 144.057 46.5258C142.658 47.7525 140.872 48.3677 138.706 48.3677C136.908 48.3677 135.551 47.9348 134.64 47.0689C133.73 46.203 133.275 45.0143 133.275 43.499C133.275 42.8913 133.419 41.8963 133.711 40.5177C134.003 39.1391 134.849 37.8364 136.248 36.606C137.648 35.3831 139.43 34.7678 141.6 34.7678ZM139.419 45.0029C139.874 45.0029 140.261 44.7788 140.591 44.3231C140.917 43.8712 141.205 43.0622 141.448 41.9001C141.691 40.738 141.812 39.9062 141.812 39.4049C141.812 38.915 141.736 38.5808 141.581 38.4023C141.425 38.2238 141.194 38.1327 140.883 38.1327C140.42 38.1327 140.022 38.3643 139.696 38.8315C139.366 39.2948 139.081 40.0999 138.839 41.2393C138.596 42.3786 138.471 43.2103 138.471 43.7344C138.471 44.2243 138.554 44.5586 138.721 44.7371C138.888 44.9155 139.119 45.0029 139.419 45.0029Z" fill="#BF0811"/>
<path d="M37.7817 28.369H36.3708L36.5415 27.5791H40.391L40.2203 28.369H38.8095L37.9675 32.3453H36.9435L37.7817 28.369Z" fill="#00264E"/>
<path d="M40.8575 27.5791H42.6779C43.0534 27.5791 43.3416 27.5943 43.5388 27.6285C43.736 27.6589 43.8915 27.7386 44.0015 27.8601C44.1115 27.9817 44.1911 28.0994 44.2328 28.2133C44.2746 28.3273 44.2973 28.445 44.2973 28.5703C44.2973 28.6653 44.2784 28.8058 44.2366 28.9881C44.1987 29.1704 44.0736 29.3603 43.8688 29.554C43.664 29.7476 43.3833 29.892 43.0268 29.9907C43.2923 30.0135 43.463 30.0856 43.5388 30.2072C43.6147 30.3287 43.6526 30.5224 43.6526 30.7882V31.0845C43.6185 31.6124 43.5995 31.9162 43.5995 32.0073C43.5995 32.1099 43.6109 32.1858 43.6298 32.2352C43.6488 32.2846 43.664 32.3226 43.6716 32.3491H42.5489C42.5489 32.277 42.5641 32.0339 42.5945 31.6124C42.6248 31.1908 42.64 30.9174 42.64 30.7882V30.6971C42.6286 30.6059 42.5869 30.5376 42.5262 30.492C42.4617 30.4502 42.3517 30.4275 42.1887 30.4275H41.2936L40.8878 32.3491H39.8486L40.8575 27.5791ZM41.4226 29.6641H42.2455C42.3555 29.6641 42.4503 29.6565 42.5338 29.6451C42.6172 29.6337 42.6931 29.6033 42.7613 29.554C42.8296 29.5084 42.9054 29.44 42.9927 29.3565C43.0799 29.2729 43.133 29.1704 43.1558 29.0526C43.1785 28.9311 43.1937 28.8476 43.1937 28.7944C43.1937 28.7032 43.1785 28.6273 43.1482 28.5703C43.1178 28.5134 43.0761 28.464 43.023 28.4222C42.9699 28.3804 42.9017 28.3539 42.8106 28.3425C42.7234 28.3311 42.5793 28.3273 42.3821 28.3273H41.6994L41.4226 29.6641Z" fill="#00264E"/>
<path d="M47.8055 27.5791L48.4426 32.3453H47.4186L47.2935 31.3199H45.4124L44.8397 32.3453H43.865L46.5919 27.5791H47.8055ZM47.2025 30.549L46.9711 28.5172L45.8409 30.549H47.2025Z" fill="#00264E"/>
<path d="M50.0657 27.5791H51.5372L52.5233 31.3313L53.3198 27.5791H54.2679L53.2553 32.3453H51.852L50.8546 28.388L50.0126 32.3453H49.0531L50.0657 27.5791Z" fill="#00264E"/>
<path d="M55.2842 30.8147C55.2766 30.8679 55.2652 30.9249 55.2576 30.9894C55.25 31.054 55.2462 31.0996 55.2462 31.1261C55.2462 31.297 55.2955 31.4376 55.3979 31.5515C55.5003 31.6654 55.6862 31.7186 55.9554 31.7186C56.2361 31.7186 56.4674 31.6578 56.6533 31.5401C56.8391 31.4224 56.9415 31.297 56.9719 31.1679C57.0022 31.0388 57.0136 30.9514 57.0136 30.9097C57.0136 30.7767 56.9567 30.6818 56.8429 30.621C56.7291 30.5603 56.4712 30.4767 56.0692 30.3704C55.6672 30.264 55.3486 30.1273 55.1135 29.9564C54.8784 29.7855 54.757 29.5501 54.757 29.2538C54.757 29.1779 54.7835 29.007 54.8404 28.7411C54.8973 28.4753 55.1097 28.2018 55.4814 27.9246C55.853 27.6474 56.3537 27.5068 56.9794 27.5068C57.2639 27.5068 57.5256 27.5486 57.7607 27.6322C57.9959 27.7157 58.1551 27.8297 58.2424 27.974C58.3258 28.1183 58.3751 28.236 58.3941 28.3234C58.413 28.4107 58.4206 28.4981 58.4206 28.5854C58.4206 28.6538 58.413 28.7259 58.4054 28.7981C58.3941 28.8702 58.3865 28.9196 58.3827 28.9462H57.4118C57.4156 28.9006 57.4194 28.8513 57.4194 28.7867C57.4194 28.6348 57.3739 28.5019 57.2866 28.3879C57.1994 28.274 57.0325 28.2208 56.786 28.2208C56.5547 28.2208 56.3537 28.2778 56.183 28.3993C56.0123 28.5171 55.9137 28.6386 55.8872 28.7563C55.8606 28.8778 55.8455 28.9576 55.8455 28.9956C55.8455 29.1399 55.9137 29.2462 56.0465 29.3184C56.1792 29.3867 56.4447 29.4741 56.8429 29.5766C57.2411 29.6792 57.5521 29.8007 57.7835 29.9412C58.0148 30.0817 58.1286 30.3096 58.1286 30.6248C58.1286 30.7008 58.0982 30.8755 58.0414 31.1527C57.9845 31.43 57.7455 31.7148 57.3246 32.0072C56.9036 32.2997 56.3764 32.4478 55.7393 32.4478C55.1438 32.4478 54.7342 32.3414 54.5181 32.125C54.2981 31.9085 54.1881 31.6388 54.1881 31.316C54.1881 31.2325 54.1919 31.1489 54.2033 31.0692C54.2147 30.9894 54.2298 30.9021 54.245 30.8147H55.2842Z" fill="#00264E"/>
<path d="M59.5091 27.5977H60.973C61.3864 27.5977 61.7126 27.6318 61.9515 27.6926C62.1942 27.7572 62.3611 27.8635 62.4521 28.0116C62.5431 28.1597 62.6 28.2851 62.6228 28.38C62.6455 28.4787 62.6569 28.5699 62.6569 28.6648C62.6569 28.718 62.6531 28.775 62.6417 28.8433C62.6341 28.9079 62.6114 29.0218 62.5811 29.1813C62.5469 29.3408 62.4559 29.5307 62.3004 29.7548C62.1449 29.9751 61.9705 30.1422 61.7732 30.2523C61.576 30.3625 61.3902 30.4308 61.2119 30.4574C61.0337 30.484 60.8365 30.4954 60.6165 30.4954H59.9262L59.5318 32.3449H58.5002L59.5091 27.5977ZM60.0628 29.7358H60.4686C60.7417 29.7358 60.973 29.694 61.1702 29.6143C61.3636 29.5345 61.485 29.3978 61.5267 29.2041C61.5684 29.0104 61.5912 28.8889 61.5912 28.8357C61.5912 28.6345 61.5229 28.5053 61.3826 28.4522C61.2461 28.399 61.0716 28.3686 60.8668 28.3686H60.3548L60.0628 29.7358Z" fill="#00264E"/>
<path d="M65.6837 27.4875C65.9909 27.4875 66.2829 27.5369 66.5598 27.6319C66.8366 27.7268 67.0414 27.8749 67.1742 28.0686C67.3069 28.2623 67.3979 28.4598 67.4434 28.6573C67.4889 28.8548 67.5117 29.0484 67.5117 29.2421C67.5117 29.3713 67.5079 29.4852 67.4965 29.5877C67.4852 29.6903 67.4548 29.8612 67.4055 30.0966C67.3562 30.3321 67.2424 30.6207 67.068 30.9549C66.8935 31.2892 66.6735 31.5778 66.4156 31.8132C66.154 32.0487 65.8581 32.2158 65.5282 32.3146C65.1982 32.4095 64.8948 32.4589 64.618 32.4589C64.2842 32.4589 63.9884 32.4057 63.7229 32.2994C63.4612 32.193 63.2602 32.0487 63.1199 31.8626C62.9834 31.6765 62.8923 31.498 62.8468 31.3271C62.8013 31.1562 62.7823 30.9701 62.7823 30.7688C62.7823 30.6321 62.7899 30.5106 62.8051 30.3967C62.8203 30.2865 62.8734 30.0169 62.9606 29.5953C63.0478 29.1738 63.3285 28.718 63.7988 28.2243C64.2653 27.7344 64.8948 27.4875 65.6837 27.4875ZM64.0074 31.3347C64.0642 31.4487 64.1515 31.5398 64.2728 31.612C64.3942 31.6803 64.5649 31.7183 64.781 31.7183C65.1831 31.7183 65.4789 31.6082 65.6685 31.3879C65.8581 31.1676 66.0023 30.9511 66.1084 30.7347C66.2146 30.5182 66.2905 30.3055 66.336 30.0966C66.3815 29.884 66.4118 29.7207 66.427 29.5953C66.4422 29.4738 66.4498 29.3637 66.4498 29.2725C66.4498 29.2269 66.4498 29.1852 66.4498 29.1396C66.4422 29.1016 66.427 29.0067 66.4118 28.8548C66.3929 28.7066 66.3057 28.5623 66.1502 28.4218C65.9909 28.2851 65.7861 28.2129 65.532 28.2129C65.3385 28.2129 65.1641 28.2471 65.0048 28.3155C64.8455 28.3838 64.6976 28.4902 64.5535 28.6307C64.4094 28.775 64.288 28.9649 64.1818 29.2042C64.0756 29.4434 64.0036 29.6675 63.9581 29.8802C63.9125 30.0928 63.886 30.2448 63.8708 30.3359C63.8557 30.427 63.8519 30.5334 63.8519 30.6511C63.8557 30.9208 63.905 31.1448 64.0074 31.3347Z" fill="#00264E"/>
<path d="M68.6117 27.5791H70.4322C70.8076 27.5791 71.0959 27.5943 71.2931 27.6285C71.4903 27.6589 71.6458 27.7386 71.7558 27.8601C71.8658 27.9817 71.9454 28.0994 71.9871 28.2133C72.0288 28.3273 72.0516 28.445 72.0516 28.5703C72.0516 28.6653 72.0326 28.8058 71.9909 28.9881C71.953 29.1704 71.8278 29.3603 71.623 29.554C71.4182 29.7476 71.1376 29.892 70.7811 29.9907C71.0466 30.0135 71.2172 30.0856 71.2931 30.2072C71.3689 30.3287 71.4069 30.5224 71.4069 30.7882V31.0845C71.3727 31.6124 71.3538 31.9162 71.3538 32.0073C71.3538 32.1099 71.3651 32.1858 71.3841 32.2352C71.4031 32.2846 71.4182 32.3226 71.4258 32.3491H70.3032C70.3032 32.277 70.3184 32.0339 70.3487 31.6124C70.3791 31.1908 70.3942 30.9174 70.3942 30.7882V30.6971C70.3791 30.6059 70.3411 30.5376 70.2805 30.492C70.216 30.4502 70.106 30.4275 69.9429 30.4275H69.0479L68.6421 32.3491H67.6029L68.6117 27.5791ZM69.1768 29.6641H69.9998C70.1098 29.6641 70.2046 29.6565 70.2881 29.6451C70.3715 29.6337 70.4473 29.6033 70.5156 29.554C70.5839 29.5084 70.6597 29.44 70.747 29.3565C70.8342 29.2729 70.8873 29.1704 70.91 29.0526C70.9328 28.9311 70.948 28.8476 70.948 28.7944C70.948 28.7032 70.9328 28.6273 70.9024 28.5703C70.8721 28.5134 70.8304 28.464 70.7773 28.4222C70.7242 28.3804 70.6559 28.3539 70.5649 28.3425C70.4777 28.3311 70.3336 28.3273 70.1363 28.3273H69.4537L69.1768 29.6641Z" fill="#00264E"/>
<path d="M73.9362 28.369H72.5254L72.6961 27.5791H76.5455L76.3749 28.369H74.9602L74.1221 32.3453H73.0943L73.9362 28.369Z" fill="#00264E"/>
<path d="M77.1031 27.5791H80.2851L80.122 28.3539H77.9602L77.7175 29.4932H79.7389L79.5758 30.2717H77.5506L77.2813 31.5554H79.5152L79.3445 32.3453H76.0905L77.1031 27.5791Z" fill="#00264E"/>
<path d="M83.7476 27.6052L84.2672 29.77L85.7273 27.6052H86.7741L84.5327 30.6131L84.1648 32.3449H83.156L83.5239 30.5979L82.5605 27.6052H83.7476Z" fill="#00264E"/>
<path d="M89.1181 27.5901H90.1572L89.3229 31.5322H91.3595L91.1888 32.3449H88.113L89.1181 27.5901Z" fill="#00264E"/>
<path d="M94.9017 27.4875C95.2089 27.4875 95.5009 27.5369 95.7778 27.6319C96.0546 27.7268 96.2594 27.8749 96.3922 28.0686C96.5249 28.2623 96.6159 28.4598 96.6614 28.6573C96.7069 28.8548 96.7297 29.0484 96.7297 29.2421C96.7297 29.3713 96.7259 29.4852 96.7145 29.5877C96.7031 29.6903 96.6728 29.8612 96.6235 30.0966C96.5742 30.3321 96.4604 30.6207 96.286 30.9549C96.1115 31.2892 95.8915 31.5778 95.6336 31.8132C95.372 32.0487 95.0761 32.2158 94.7462 32.3146C94.4162 32.4095 94.1128 32.4589 93.836 32.4589C93.5022 32.4589 93.2064 32.4057 92.9409 32.2994C92.6792 32.193 92.4782 32.0487 92.3417 31.8626C92.2052 31.6765 92.1141 31.498 92.0686 31.3271C92.0231 31.1562 92.0042 30.9701 92.0042 30.7688C92.0042 30.6321 92.0117 30.5106 92.0269 30.3967C92.0421 30.2865 92.0952 30.0169 92.1824 29.5953C92.2696 29.1738 92.5503 28.718 93.0206 28.2243C93.4833 27.7344 94.1128 27.4875 94.9017 27.4875ZM93.2254 31.3347C93.2822 31.4487 93.3695 31.5398 93.4908 31.612C93.6122 31.6803 93.7829 31.7183 93.999 31.7183C94.4011 31.7183 94.6969 31.6082 94.8865 31.3879C95.0761 31.1676 95.2203 30.9511 95.3264 30.7347C95.4326 30.5182 95.5085 30.3055 95.554 30.0966C95.5995 29.884 95.6298 29.7207 95.645 29.5953C95.6602 29.4738 95.6678 29.3637 95.6678 29.2725C95.6678 29.2269 95.6678 29.1852 95.6678 29.1396C95.6602 29.1016 95.645 29.0067 95.6298 28.8548C95.6109 28.7066 95.5237 28.5623 95.3682 28.4218C95.2089 28.2851 95.0041 28.2129 94.75 28.2129C94.5566 28.2129 94.3821 28.2471 94.2228 28.3155C94.0635 28.3838 93.9156 28.4902 93.7715 28.6307C93.6274 28.775 93.506 28.9649 93.3998 29.2042C93.2936 29.4434 93.2216 29.6675 93.1761 29.8802C93.1305 30.0928 93.104 30.2448 93.0888 30.3359C93.0737 30.427 93.0699 30.5334 93.0699 30.6511C93.0737 30.9208 93.1268 31.1448 93.2254 31.3347Z" fill="#00264E"/>
<path d="M100.765 29.0522C100.769 29.0219 100.776 28.9877 100.78 28.9573C100.788 28.9231 100.791 28.8813 100.791 28.8282C100.791 28.7674 100.788 28.718 100.78 28.6915C100.772 28.6611 100.75 28.6003 100.712 28.5016C100.67 28.4066 100.583 28.3307 100.446 28.2775C100.31 28.2243 100.169 28.1977 100.021 28.1977C99.5018 28.1977 99.1036 28.38 98.823 28.7446C98.5385 29.1092 98.3678 29.432 98.3072 29.7169C98.2465 30.0017 98.2086 30.1878 98.1972 30.2751C98.1858 30.3625 98.182 30.4612 98.182 30.5714C98.182 30.7119 98.1972 30.841 98.2237 30.9549C98.2503 31.0727 98.3072 31.1904 98.3906 31.3119C98.474 31.4335 98.5954 31.5246 98.7509 31.593C98.9064 31.6575 99.1264 31.6917 99.3994 31.6917C99.6156 31.6917 99.7749 31.6841 99.8773 31.6689C99.9835 31.6537 100.086 31.6309 100.192 31.6006L100.401 30.6055H99.4791L99.6497 29.8156H101.588L101.083 32.1854C100.856 32.2538 100.602 32.3184 100.321 32.3677C100.04 32.4209 99.699 32.4475 99.297 32.4475C98.7888 32.4475 98.3868 32.3905 98.0948 32.2842C97.8027 32.174 97.5828 32.0297 97.4425 31.855C97.3021 31.6803 97.2035 31.498 97.1542 31.3119C97.1049 31.1258 97.0784 30.9284 97.0784 30.7157C97.0784 30.5828 97.0822 30.4802 97.0897 30.4043C97.0973 30.3283 97.1542 30.0435 97.2604 29.5536C97.3666 29.0598 97.6966 28.5889 98.2541 28.1332C98.8116 27.6774 99.4601 27.4534 100.2 27.4534C100.53 27.4534 100.825 27.5027 101.087 27.5977C101.349 27.6926 101.531 27.818 101.633 27.9661C101.732 28.1142 101.796 28.2433 101.823 28.3496C101.849 28.456 101.865 28.5585 101.865 28.6611C101.865 28.7332 101.857 28.8054 101.846 28.8813C101.834 28.9573 101.823 29.0143 101.819 29.0522H100.765Z" fill="#00264E"/>
<path d="M102.946 27.5791H103.966L102.954 32.3453H101.933L102.946 27.5791Z" fill="#00264E"/>
<path d="M104.955 30.8147C104.948 30.8679 104.936 30.9249 104.929 30.9894C104.921 31.054 104.917 31.0996 104.917 31.1261C104.917 31.297 104.967 31.4376 105.069 31.5515C105.171 31.6654 105.357 31.7186 105.627 31.7186C105.907 31.7186 106.139 31.6578 106.324 31.5401C106.506 31.4224 106.613 31.297 106.643 31.1679C106.673 31.0388 106.685 30.9514 106.685 30.9097C106.685 30.7767 106.628 30.6818 106.514 30.621C106.4 30.5603 106.142 30.4767 105.74 30.3704C105.338 30.264 105.02 30.1273 104.785 29.9564C104.55 29.7855 104.428 29.5501 104.428 29.2538C104.428 29.1779 104.455 29.007 104.512 28.7411C104.565 28.4753 104.781 28.2018 105.153 27.9246C105.524 27.6474 106.025 27.5068 106.651 27.5068C106.935 27.5068 107.197 27.5486 107.432 27.6322C107.667 27.7157 107.83 27.8297 107.914 27.974C107.997 28.1183 108.046 28.236 108.065 28.3234C108.084 28.4107 108.092 28.4981 108.092 28.5854C108.092 28.6538 108.084 28.7259 108.077 28.7981C108.065 28.8702 108.058 28.9196 108.054 28.9462H107.083C107.087 28.9006 107.091 28.8513 107.091 28.7867C107.091 28.6348 107.045 28.5019 106.958 28.3879C106.871 28.274 106.704 28.2208 106.457 28.2208C106.226 28.2208 106.025 28.2778 105.858 28.3993C105.687 28.5171 105.589 28.6386 105.562 28.7563C105.536 28.8778 105.52 28.9576 105.52 28.9956C105.52 29.1399 105.589 29.2462 105.721 29.3184C105.854 29.3867 106.12 29.4741 106.518 29.5766C106.912 29.6792 107.227 29.8007 107.458 29.9412C107.69 30.0817 107.804 30.3096 107.804 30.6248C107.804 30.7008 107.773 30.8755 107.716 31.1527C107.659 31.43 107.42 31.7148 107 32.0072C106.579 32.2997 106.051 32.4478 105.414 32.4478C104.819 32.4478 104.409 32.3414 104.189 32.125C103.969 31.9085 103.859 31.6388 103.859 31.316C103.859 31.2325 103.863 31.1489 103.874 31.0692C103.886 30.9894 103.901 30.9021 103.916 30.8147H104.955Z" fill="#00264E"/>
<path d="M110.099 28.369H108.684L108.855 27.5791H112.708L112.537 28.369H111.123L110.281 32.3453H109.257L110.099 28.369Z" fill="#00264E"/>
<path d="M113.174 27.5791H114.19L113.178 32.3453H112.161L113.174 27.5791Z" fill="#00264E"/>
<path d="M117.403 29.1396C117.407 29.0788 117.41 29.0219 117.41 28.9763C117.41 28.7902 117.373 28.6345 117.293 28.5016C117.213 28.3686 117.054 28.3041 116.815 28.3041C116.451 28.3041 116.148 28.4674 115.901 28.7902C115.655 29.113 115.495 29.4434 115.423 29.7738C115.351 30.1042 115.309 30.3245 115.294 30.4384C115.283 30.5524 115.275 30.6587 115.275 30.7575C115.275 31.0347 115.328 31.2626 115.435 31.4373C115.541 31.6158 115.734 31.7031 116.011 31.7031C116.246 31.7031 116.462 31.6272 116.656 31.479C116.849 31.3309 116.982 31.1031 117.058 30.7992H118.131C118.07 31.0195 117.995 31.217 117.907 31.3917C117.82 31.5664 117.668 31.7487 117.448 31.9348C117.228 32.1209 116.99 32.25 116.732 32.3297C116.474 32.4095 116.216 32.4475 115.962 32.4475C115.347 32.4475 114.904 32.2956 114.631 31.9879C114.357 31.6803 114.221 31.2816 114.221 30.784C114.221 30.5638 114.274 30.1992 114.384 29.6941C114.49 29.1852 114.79 28.7028 115.283 28.2433C115.776 27.7838 116.352 27.5559 117.016 27.5559C117.471 27.5559 117.831 27.666 118.093 27.8863C118.355 28.1066 118.488 28.4066 118.488 28.7864C118.488 28.9003 118.472 29.0181 118.446 29.1358H117.403V29.1396Z" fill="#00264E"/>
<path d="M121.946 27.5791L122.584 32.3453H121.56L121.434 31.3199H119.553L118.981 32.3453H118.006L120.733 27.5791H121.946ZM121.343 30.549L121.112 28.5172L119.982 30.549H121.343Z" fill="#00264E"/>
<path d="M22.7327 65.8764C-28.433 45.0341 6.8114 -14.5079 128.072 3.26963C33.0788 -0.854785 -4.09985 49.6256 22.7327 65.8764Z" fill="#196D9E"/>
<path d="M167.48 16.4893C232.758 53.8482 143.397 96.8166 61.4624 79.4378C148.578 83.6116 196.368 37.0658 167.48 16.4893Z" fill="#00264E"/>
<path d="M131.155 32.4437L133.373 23.2074C134.105 20.5907 132.122 19.2197 129.372 19.2197H74.0612L73.5037 21.7453H128.322C130.013 21.6959 130.817 22.3263 130.521 23.6897L128.42 32.4817L131.155 32.4437Z" fill="#00264E"/>
<path d="M155.701 30.2181C155.378 29.2459 154.419 26.2456 154.419 26.2456C153.433 23.9669 151.381 22.6035 148.468 22.6035L136.275 22.6225L135.74 25.1936H148.775C150.577 25.186 151.639 26.1583 152.439 28.6762C152.439 28.6762 152.663 29.6446 152.936 30.4536C153.395 32.0524 153.565 32.9335 153.243 35.5312C153.069 36.5794 150.095 51.2655 150.095 51.2655C149.841 52.2795 149.337 52.3099 148.571 52.2833H143.913L143.386 54.7861H149.189C151.442 54.7785 152.098 54.9038 152.632 52.4125C152.632 52.4125 155.651 37.639 155.981 35.8275C156.342 33.0589 156.023 31.1941 155.701 30.2181Z" fill="#00264E"/>
<path d="M135.706 50.1604C131.898 50.1604 128.459 53.2176 128.053 56.9623C127.651 60.7107 130.427 63.7679 134.235 63.7679C138.046 63.7679 141.486 60.7107 141.888 56.9623C142.298 53.2176 139.518 50.1604 135.706 50.1604ZM139.783 56.9623C139.495 59.6093 137.071 61.7627 134.383 61.7627C131.694 61.7627 129.733 59.6055 130.021 56.9623C130.306 54.319 132.733 52.1618 135.422 52.1618C138.107 52.1656 140.068 54.319 139.783 56.9623Z" fill="#00264E"/>
<path d="M135.046 55.8835C135.664 55.8835 136.115 56.3811 136.047 56.9887C135.982 57.5964 135.425 58.0939 134.807 58.0939C134.189 58.0939 133.737 57.5964 133.802 56.9887C133.87 56.3811 134.427 55.8835 135.046 55.8835Z" fill="#00264E"/>
<path d="M61.0114 50.1604C57.1999 50.1604 53.7676 53.2176 53.3618 56.9623C52.956 60.7107 55.7321 63.7679 59.5399 63.7679C63.3514 63.7679 66.7875 60.7107 67.1933 56.9623C67.6029 53.2176 64.8229 50.1604 61.0114 50.1604ZM65.0846 56.9623C64.7964 59.6093 62.3729 61.7627 59.684 61.7627C56.9951 61.7627 55.0343 59.6055 55.3188 56.9623C55.6032 54.319 58.0304 52.1618 60.7194 52.1618C63.4121 52.1656 65.3691 54.319 65.0846 56.9623Z" fill="#00264E"/>
<path d="M60.351 55.8835C60.9692 55.8835 61.4205 56.3811 61.3523 56.9887C61.2878 57.5964 60.7303 58.0939 60.1121 58.0939C59.4939 58.0939 59.0426 57.5964 59.1071 56.9887C59.1754 56.3811 59.7291 55.8835 60.351 55.8835Z" fill="#00264E" stroke="#201C6A" stroke-width="0.200196" stroke-miterlimit="22.9256"/>
<path d="M46.8267 50.1604C43.0189 50.1604 39.5828 53.2176 39.177 56.9623C38.7712 60.7107 41.5512 63.7679 45.3552 63.7679C49.1629 63.7679 52.599 60.7107 53.0048 56.9623C53.4068 53.2176 50.6344 50.1604 46.8267 50.1604ZM50.8923 56.9623C50.6079 59.6093 48.1844 61.7627 45.4955 61.7627C42.8103 61.7627 40.8496 59.6055 41.1378 56.9623C41.426 54.319 43.8495 52.1618 46.5346 52.1618C49.2236 52.1656 51.1806 54.319 50.8923 56.9623Z" fill="#00264E"/>
<path d="M47.1681 56.9853C47.0998 57.5929 46.5461 58.0905 45.9279 58.0905C45.3097 58.0905 44.8584 57.5929 44.9266 56.9853C44.9911 56.3814 45.5486 55.8801 46.1668 55.8801C46.7812 55.8839 47.2325 56.3814 47.1681 56.9853Z" fill="#00264E" stroke="#201C6A" stroke-width="0.200196" stroke-miterlimit="22.9256"/>
<path d="M126.46 54.7366H69.3168L69.8439 52.2148H127.009L126.46 54.7366Z" fill="#00264E"/>
<path d="M37.5922 53.4798H30.3484L30.8756 50.958H38.1459L37.5922 53.4798Z" fill="#00264E"/>
</svg>
