<svg width="240" height="29" viewBox="0 0 240 29" fill="none" xmlns="http://www.w3.org/2000/svg">
<path d="M5.71348 0.753906H18.3647C22.5478 0.753906 25.5661 1.58502 27.4196 3.23868C29.2731 4.89234 30.1998 7.24003 30.1998 10.2732C30.1998 11.5755 29.9022 13.649 29.3071 16.5022C28.7119 19.3469 26.9265 21.9602 23.9677 24.3421C21.0089 26.7241 17.4465 27.9151 13.2889 27.9151H0L5.71348 0.753906ZM11.7585 21.746H12.8043C13.629 21.746 14.3347 21.6003 14.9299 21.3176C15.525 21.0263 16.0606 20.6064 16.5368 20.058C17.0129 19.5097 17.4125 18.7642 17.7526 17.8389C18.0927 16.9135 18.4158 15.6797 18.7388 14.1374C19.0619 12.5951 19.2235 11.3185 19.2235 10.316C19.2235 9.63912 19.1129 9.04792 18.9089 8.55096C18.6963 8.04544 18.3647 7.6513 17.8971 7.36855C17.438 7.07723 16.7833 6.94014 15.9331 6.94014H14.8873L11.7585 21.746Z" fill="#DE0309"/>
<path d="M48.1904 0C51.9484 0 54.7796 0.908228 56.6841 2.72468C58.5886 4.54114 59.5409 7.04305 59.5409 10.2304C59.5409 11.5071 59.2348 13.5977 58.6226 16.4938C58.0105 19.3898 56.242 22.1316 53.3257 24.7107C50.401 27.2983 46.677 28.5835 42.1454 28.5835C38.3874 28.5835 35.5562 27.6753 33.6517 25.8588C31.7472 24.0423 30.7949 21.5404 30.7949 18.3531C30.7949 17.0764 31.101 14.9858 31.7132 12.0897C32.3253 9.19367 34.0853 6.45185 37.01 3.87282C39.9348 1.2938 43.6672 0 48.1904 0ZM43.6417 21.5233C44.5855 21.5233 45.4017 21.0435 46.0904 20.0924C46.7791 19.1413 47.3742 17.4448 47.8843 14.9943C48.3945 12.5524 48.6495 10.7959 48.6495 9.7506C48.6495 8.72242 48.488 8.01983 48.1649 7.64283C47.8418 7.26583 47.3572 7.07733 46.711 7.07733C45.7418 7.07733 44.9086 7.56571 44.2284 8.54249C43.5397 9.51926 42.9446 11.2072 42.4344 13.6063C41.9158 15.9968 41.6607 17.7447 41.6607 18.85C41.6607 19.8782 41.8308 20.5808 42.1794 20.9578C42.528 21.3348 43.0211 21.5233 43.6417 21.5233Z" fill="#DE0309"/>
<path d="M64.3957 0.753906H77.2L79.4786 17.1963L82.99 0.753906H91.6452L85.9317 27.9151H73.1274L70.9254 11.3613L67.3459 27.9151H58.6822L64.3957 0.753906Z" fill="#DE0309"/>
<path d="M107.85 0.753906H123.528C126.164 0.753906 128.154 1.35368 129.48 2.54466C130.806 3.73564 131.478 5.34646 131.478 7.37712C131.478 7.85694 131.461 8.23394 131.444 8.50812C131.419 8.7823 131.223 9.75051 130.866 11.4042C130.509 13.0578 129.225 14.7029 127.04 16.3309C124.846 17.9588 121.922 18.7728 118.266 18.7728H114.754L112.816 27.9151H102.137L107.85 0.753906ZM116.582 12.6037C117.9 12.6037 118.912 12.3552 119.626 11.8669C120.332 11.3785 120.757 10.8044 120.893 10.1361C121.029 9.46776 121.097 9.01364 121.097 8.76517C121.097 7.53992 120.187 6.92301 118.368 6.92301H117.245L116.055 12.6037H116.582Z" fill="#DE0309"/>
<path d="M135.1 0.753906H155.59L154.136 7.82267H143.874L143.237 10.7187H152.717L151.229 17.796H141.74L141.111 20.8378H151.713L150.217 27.9151H129.386L135.1 0.753906Z" fill="#DE0309"/>
<path d="M158.243 0.753906H170.903C175.086 0.753906 178.104 1.58502 179.957 3.23868C181.811 4.89234 182.738 7.24003 182.738 10.2732C182.738 11.5755 182.44 13.649 181.845 16.5022C181.25 19.3469 179.464 21.9602 176.506 24.3421C173.547 26.7241 169.984 27.9151 165.827 27.9151H152.529L158.243 0.753906ZM164.288 21.746H165.334C166.158 21.746 166.864 21.6003 167.459 21.3176C168.054 21.0263 168.59 20.6064 169.066 20.058C169.542 19.5097 169.942 18.7642 170.282 17.8389C170.622 16.9135 170.945 15.6797 171.268 14.1374C171.591 12.5951 171.753 11.3185 171.753 10.316C171.753 9.63912 171.642 9.04792 171.438 8.55096C171.226 8.04544 170.894 7.6513 170.426 7.36855C169.967 7.07723 169.313 6.94014 168.462 6.94014H167.417L164.288 21.746Z" fill="#DE0309"/>
<path d="M187.584 0.753906H203.526C206.161 0.753906 208.159 1.13947 209.503 1.91918C210.846 2.69889 211.518 3.99268 211.518 5.792C211.518 6.34037 211.39 7.20576 211.144 8.37103C210.897 9.5363 210.242 10.6759 209.18 11.7726C208.125 12.8779 206.586 13.6576 204.571 14.1032C207.114 14.403 208.38 15.5854 208.38 17.6418C208.38 18.0702 208.295 19.2783 208.117 21.2747C207.947 23.2711 207.853 24.6934 207.853 25.5417C207.853 26.3214 207.887 27.1097 207.964 27.9151H197.515C197.489 27.718 197.481 27.4952 197.481 27.2553C197.481 27.0154 197.481 26.8269 197.481 26.6727C197.481 25.8159 197.54 24.5306 197.651 22.7999C197.761 21.0691 197.821 20.178 197.821 20.1266C197.821 19.4497 197.659 18.9699 197.336 18.6786C197.013 18.3872 196.443 18.2416 195.619 18.2416H194.386L192.328 27.9065H181.879L187.584 0.753906ZM196.545 12.0725C197.668 12.0725 198.586 11.8583 199.309 11.4299C200.031 11.0015 200.456 10.4617 200.575 9.79335C200.703 9.12503 200.762 8.74803 200.762 8.64521C200.762 7.99403 200.507 7.53992 199.997 7.29144C199.487 7.04296 198.73 6.91444 197.736 6.91444H196.766L195.644 12.0725H196.545Z" fill="#DE0309"/>
<path d="M228.649 0C232.407 0 235.239 0.908228 237.143 2.72468C239.048 4.54114 240 7.04305 240 10.2304C240 11.5071 239.694 13.5977 239.082 16.4938C238.47 19.3898 236.701 22.1316 233.776 24.7107C230.852 27.2983 227.128 28.5835 222.596 28.5835C218.838 28.5835 216.007 27.6753 214.102 25.8588C212.198 24.0423 211.245 21.5404 211.245 18.3531C211.245 17.0764 211.552 14.9858 212.164 12.0897C212.776 9.19367 214.544 6.45185 217.469 3.87282C220.394 1.2938 224.118 0 228.649 0ZM224.092 21.5233C225.036 21.5233 225.852 21.0435 226.541 20.0924C227.221 19.1413 227.825 17.4448 228.335 14.9943C228.845 12.5524 229.1 10.7959 229.1 9.7506C229.1 8.72242 228.939 8.01983 228.615 7.64283C228.292 7.26583 227.808 7.07733 227.162 7.07733C226.192 7.07733 225.368 7.56571 224.679 8.54249C223.999 9.51926 223.395 11.2072 222.885 13.6063C222.375 16.0054 222.12 17.7533 222.12 18.8586C222.12 19.8868 222.29 20.5894 222.638 20.9664C222.987 21.3348 223.472 21.5233 224.092 21.5233Z" fill="#DE0309"/>
</svg>
