<svg width="173" height="21" viewBox="0 0 173 21" fill="none" xmlns="http://www.w3.org/2000/svg">
<path d="M4.11847 0.543457H13.2379C16.2532 0.543457 18.4289 1.14255 19.765 2.33457C21.101 3.52658 21.769 5.21887 21.769 7.40526C21.769 8.34405 21.5545 9.8387 21.1255 11.8954C20.6965 13.9459 19.4095 15.8297 17.2767 17.5467C15.1439 19.2636 12.576 20.1221 9.57911 20.1221H0L4.11847 0.543457ZM8.47595 15.6753H9.22978C9.82426 15.6753 10.3329 15.5703 10.7619 15.3664C11.191 15.1564 11.5771 14.8538 11.9203 14.4585C12.2635 14.0633 12.5515 13.5259 12.7967 12.8589C13.0418 12.1918 13.2747 11.3025 13.5076 10.1907C13.7405 9.07902 13.8569 8.15876 13.8569 7.43614C13.8569 6.94822 13.7772 6.52206 13.6302 6.16384C13.4769 5.79944 13.2379 5.51533 12.9008 5.31152C12.5699 5.10152 12.098 5.0027 11.4851 5.0027H10.7313L8.47595 15.6753Z" fill="white"/>
<path d="M34.7373 0C37.4461 0 39.487 0.654682 40.8598 1.96404C42.2326 3.27341 42.919 5.07687 42.919 7.37443C42.919 8.29469 42.6984 9.80169 42.2571 11.8893C41.8159 13.9768 40.5411 15.9532 38.439 17.8123C36.3307 19.6775 33.6464 20.6039 30.3798 20.6039C27.6709 20.6039 25.6301 19.9493 24.2572 18.6399C22.8844 17.3305 22.198 15.5271 22.198 13.2295C22.198 12.3092 22.4186 10.8022 22.8599 8.71467C23.3012 6.62711 24.5698 4.65071 26.6781 2.79166C28.7863 0.932612 31.4768 0 34.7373 0ZM31.4584 15.5147C32.1387 15.5147 32.7271 15.1688 33.2235 14.4833C33.7199 13.7977 34.1489 12.5748 34.5166 10.8084C34.8843 9.04819 35.0682 7.78206 35.0682 7.02856C35.0682 6.28741 34.9518 5.78096 34.7189 5.50921C34.486 5.23745 34.1366 5.10157 33.6709 5.10157C32.9722 5.10157 32.3716 5.45362 31.8813 6.15771C31.3849 6.8618 30.9559 8.07852 30.5881 9.80787C30.2143 11.531 30.0304 12.791 30.0304 13.5877C30.0304 14.3289 30.153 14.8353 30.4043 15.1071C30.6556 15.3788 31.011 15.5147 31.4584 15.5147Z" fill="white"/>
<path d="M46.4188 0.543457H55.6485L57.291 12.3957L59.8222 0.543457H66.0611L61.9427 20.1221H52.7129L51.1256 8.18964L48.5454 20.1221H42.3003L46.4188 0.543457Z" fill="white"/>
<path d="M77.742 0.543457H89.0433C90.9431 0.543457 92.3772 0.975794 93.3333 1.83429C94.2894 2.69279 94.7736 3.85392 94.7736 5.31769C94.7736 5.66356 94.7613 5.93532 94.749 6.13296C94.7307 6.3306 94.5897 7.02851 94.3323 8.22053C94.0749 9.41254 93.1495 10.5984 91.5744 11.7719C89.9932 12.9454 87.8849 13.5321 85.2496 13.5321H82.7185L81.3211 20.1221H73.6235L77.742 0.543457ZM84.0361 9.0852C84.9861 9.0852 85.7154 8.90609 86.2302 8.55404C86.7389 8.202 87.0453 7.78819 87.1434 7.30644C87.2414 6.8247 87.2905 6.49735 87.2905 6.31824C87.2905 5.43504 86.6347 4.99035 85.3232 4.99035H84.5142L83.6562 9.0852H84.0361Z" fill="white"/>
<path d="M97.3848 0.543457H112.155L111.107 5.63886H103.71L103.25 7.72643H110.083L109.011 12.828H102.171L101.718 15.0206H109.36L108.282 20.1221H93.2664L97.3848 0.543457Z" fill="white"/>
<path d="M114.067 0.543457H123.192C126.208 0.543457 128.383 1.14255 129.719 2.33457C131.055 3.52658 131.723 5.21887 131.723 7.40526C131.723 8.34405 131.509 9.8387 131.08 11.8954C130.651 13.9459 129.364 15.8297 127.231 17.5467C125.098 19.2636 122.53 20.1221 119.533 20.1221H109.948L114.067 0.543457ZM118.424 15.6753H119.178C119.773 15.6753 120.281 15.5703 120.71 15.3664C121.139 15.1564 121.525 14.8538 121.869 14.4585C122.212 14.0633 122.5 13.5259 122.745 12.8589C122.99 12.1918 123.223 11.3025 123.456 10.1907C123.689 9.07902 123.805 8.15876 123.805 7.43614C123.805 6.94822 123.725 6.52206 123.578 6.16384C123.425 5.79944 123.186 5.51533 122.849 5.31152C122.518 5.10152 122.046 5.0027 121.433 5.0027H120.68L118.424 15.6753Z" fill="white"/>
<path d="M135.217 0.543457H146.708C148.608 0.543457 150.048 0.821388 151.017 1.38343C151.985 1.94546 152.469 2.87808 152.469 4.17509C152.469 4.57037 152.377 5.19417 152.199 6.03414C152.022 6.87411 151.55 7.69555 150.784 8.4861C150.024 9.28284 148.914 9.84488 147.462 10.166C149.294 10.3822 150.208 11.2345 150.208 12.7168C150.208 13.0256 150.146 13.8965 150.018 15.3356C149.895 16.7746 149.828 17.7999 149.828 18.4113C149.828 18.9734 149.852 19.5416 149.907 20.1221H142.375C142.357 19.9801 142.351 19.8195 142.351 19.6466C142.351 19.4736 142.351 19.3378 142.351 19.2266C142.351 18.609 142.393 17.6825 142.473 16.4349C142.553 15.1873 142.596 14.545 142.596 14.5079C142.596 14.02 142.479 13.6741 142.246 13.4642C142.014 13.2542 141.603 13.1492 141.008 13.1492H140.12L138.637 20.116H131.104L135.217 0.543457ZM141.676 8.70227C142.485 8.70227 143.147 8.54787 143.668 8.23905C144.189 7.93024 144.496 7.54114 144.581 7.05939C144.673 6.57765 144.716 6.30589 144.716 6.23178C144.716 5.76238 144.532 5.43504 144.165 5.25593C143.797 5.07682 143.252 4.98417 142.534 4.98417H141.836L141.027 8.70227H141.676Z" fill="white"/>
<path d="M164.818 0C167.527 0 169.568 0.654682 170.94 1.96404C172.313 3.27341 173 5.07687 173 7.37443C173 8.29469 172.779 9.80169 172.338 11.8893C171.896 13.9768 170.622 15.9532 168.513 17.8123C166.405 19.6775 163.721 20.6039 160.454 20.6039C157.745 20.6039 155.705 19.9493 154.332 18.6399C152.959 17.3305 152.272 15.5271 152.272 13.2295C152.272 12.3092 152.493 10.8022 152.934 8.71467C153.376 6.62711 154.65 4.65071 156.759 2.79166C158.867 0.932612 161.551 0 164.818 0ZM161.533 15.5147C162.213 15.5147 162.802 15.1688 163.298 14.4833C163.788 13.7977 164.223 12.5748 164.591 10.8084C164.959 9.04819 165.143 7.78206 165.143 7.02856C165.143 6.28741 165.026 5.78096 164.793 5.50921C164.56 5.23745 164.211 5.10157 163.745 5.10157C163.047 5.10157 162.452 5.45362 161.956 6.15771C161.465 6.8618 161.03 8.07852 160.663 9.80787C160.295 11.5372 160.111 12.7972 160.111 13.5939C160.111 14.3351 160.234 14.8415 160.485 15.1133C160.736 15.3788 161.085 15.5147 161.533 15.5147Z" fill="white"/>
</svg>
