<svg width="725" height="1221" viewBox="0 0 725 1221" fill="none" xmlns="http://www.w3.org/2000/svg">
<path d="M723.603 0.203125V266.354L715.484 268.88C715.484 268.88 716.583 272.511 717.886 275.042C719.148 277.568 715.368 280.251 715.368 280.251L711.425 279.302C711.425 279.302 708.901 278.668 708.901 280.879C708.901 283.09 704.016 285.93 704.33 287.449C704.644 288.973 709.378 287.978 712.216 290.033C715.054 292.087 710.006 309.131 710.006 309.917C710.006 310.702 715.211 314.491 715.211 314.491L715.368 317.802C715.525 321.113 710.163 319.85 710.163 327.461C710.163 335.073 709.215 336.266 707.796 344.599C706.377 352.932 696.602 349.993 696.759 353.939C696.916 357.884 701.964 360.41 701.964 360.41C701.964 360.41 698.649 363.878 691.711 364.826C684.773 365.769 674.521 377.448 672.788 379.974C671.049 382.499 658.435 390.704 658.435 395.528C658.435 400.352 652.44 395.912 652.283 409.168C652.126 422.424 651.335 416.739 648.026 417.53C644.711 418.322 640.611 425.107 637.459 431.578C634.301 438.049 624.683 446.888 619.478 449.885C614.273 452.882 594.408 464.247 593.617 464.247C592.826 464.247 594.879 459.987 595.664 459.83C596.449 459.673 598.659 456.99 598.659 456.99C598.659 456.99 611.278 449.099 619.635 445.916C627.992 442.739 622.316 441.209 622.787 437.42C623.258 433.638 625.945 433.161 629.097 431.584C632.254 430.001 633.673 422.902 635.249 420.062C636.825 417.222 641.873 411.223 642.03 408.354C642.187 405.485 639.814 406.486 637.296 406.486C634.778 406.486 631.777 409.954 631.463 410.902C631.149 411.845 630.044 410.588 629.254 409.797C628.468 409.005 623.892 405.374 623.578 400.8C623.264 396.227 619.792 393.224 619.635 397.803C619.478 402.377 619.635 398.746 619.635 404.746C619.635 410.74 623.578 410.425 623.578 410.425C623.578 410.425 621.374 415.005 619.007 419.579C616.64 424.159 617.588 424.63 617.588 426.05C617.588 427.47 608.283 433.941 606.707 434.412C605.125 434.883 596.612 439.777 596.612 443.717C596.612 447.656 586.348 454.203 585.109 454.762C583.864 455.32 590.104 467.447 590.104 467.447C590.104 467.447 578.485 484.835 578.485 488.623C578.485 492.412 568.477 504.085 561.882 510.23C555.287 516.375 543.314 524.993 542.488 525.796C541.656 526.599 534.625 536.998 534.625 537.615C534.625 538.232 519.319 545.709 519.319 545.709L508.561 550.661H498.378C496.471 550.661 486.736 542.73 483.427 543.568C480.118 544.412 477.53 548.788 469.667 547.502C461.805 546.216 464.893 543.568 464.893 543.568C464.893 543.568 458.083 540.315 455.524 540.315C452.966 540.315 448.034 533.111 448.034 533.111C448.034 533.111 440.294 529.142 427.936 529.171C415.578 529.2 409.6 513.081 409.6 513.081C411.304 523.742 410.042 521.496 408.92 523.602C407.797 525.703 408.64 530.265 411.164 533.111C413.688 535.956 420.841 544.569 429.401 546.652C437.962 548.729 438.101 551.959 441.608 556.172C445.115 560.379 445.952 563.33 443.289 565.436C440.625 567.537 436.415 572.029 436.415 573.717C436.415 575.405 435.292 579.751 439.084 584.808C442.876 589.865 445.679 589.726 449.61 589.726C453.541 589.726 456.769 591.64 454.803 600.02C452.838 608.399 449.889 617.663 444.981 622.86C440.067 628.056 437.683 632.671 433.193 638.927C428.704 645.182 428.704 642.511 428.704 646.305C428.704 650.094 430.844 650.076 420.934 655.773C411.031 661.47 406.704 664.42 400.586 664.7C394.468 664.979 390.973 665.677 383.39 667.365C375.807 669.052 375.528 670.862 371.038 672.695C366.549 674.528 361.559 675.791 351.144 675.791C340.728 675.791 317.187 676.774 311.419 674.947C305.65 673.12 310.558 663.751 305.65 663.943C300.736 664.135 299.195 668.069 299.195 671.438C299.195 674.808 300.596 677.333 303.684 683.373C306.766 689.408 309.575 691.375 309.575 697.834C309.575 704.293 308.831 704.154 305.062 705.416C301.294 706.679 300.177 715.245 300.177 715.245C300.177 715.245 299.061 726.197 300.177 726.901C301.288 727.605 304.097 729.292 304.097 731.958C304.097 734.629 301.149 739.68 295.258 742.77C289.361 745.86 286.418 750.631 280.242 750.492C274.066 750.352 260.918 747.262 254.934 744.737C250.642 742.927 249.258 739.674 246.809 737.876L234.225 755.252C235.144 759.785 236.01 764.754 235.621 769.386C234.917 777.731 236.854 781.38 236.854 781.38C236.854 781.38 242.663 778.715 245.175 782.363C247.688 786.012 247.263 785.738 247.827 787.699C248.385 789.666 249.787 790.929 252.596 789.946C255.405 788.962 258.911 790.37 259.051 786.297C259.19 782.224 262.139 777.731 263.68 777.731C265.227 777.731 269.013 774.176 269.013 779.884C269.013 785.593 269.571 788.264 270.275 791.633C270.972 795.002 269.013 798.372 266.343 800.478C263.68 802.585 257.364 805.675 257.364 805.675C257.364 805.675 257.26 796.131 254.928 795.288C252.59 794.444 246.559 791.075 244.594 793.885C242.628 796.696 237.743 796.835 236.958 796.975C236.173 797.115 235.359 801.328 236.958 801.468C238.557 801.613 247.257 808.631 248.659 808.631C250.06 808.631 246.525 811.581 246.525 811.581C246.525 811.581 232.928 821.148 232.515 826.473C232.102 831.797 226.351 836.01 229.858 838.256C233.364 840.503 232.515 846.962 232.515 846.962C232.515 846.962 233.085 856.651 231.544 858.053C229.997 859.456 227.921 860.439 224.891 862.685C221.861 864.931 220.826 867.882 222.257 869.424C223.682 870.966 226.909 869.144 226.909 871.67C226.909 874.196 228.125 878.548 222.257 877.285C216.389 876.017 212.458 874.056 209.794 875.319C207.125 876.581 202.467 875.883 202.694 879.392C202.915 882.901 206.846 883.745 200.531 883.745C194.215 883.745 187.835 891.775 187.835 891.775C187.835 891.775 184.055 898.397 183.172 900.83C182.288 903.262 180.828 911.968 180.828 911.968C180.828 911.968 178.862 920.388 183.172 925.445C187.481 930.496 196.041 932.184 196.041 932.184C196.041 932.184 192.813 940.33 200.81 940.61C208.806 940.895 214.203 940.33 217.186 941.314C220.169 942.297 223.961 939.068 225.223 943.42C226.49 947.767 223.961 947.767 223.821 953.807C223.682 959.848 227.473 961.25 222.28 962.373C217.087 963.496 210.452 966.482 211.475 967.709C212.499 968.937 220.879 964.195 223.263 966.022C225.647 967.849 220.035 973.028 220.035 973.459C220.035 973.889 215.406 984.277 208.108 988.629C200.815 992.982 199.414 991.58 196.745 995.932C194.081 1000.29 190.022 1004.64 187.841 1012.36C185.661 1020.08 185.16 1027.94 185.16 1027.94C185.16 1027.94 189.952 1031.74 183.177 1037.35C176.402 1042.97 170.488 1046.06 170.488 1046.06L160.689 1055.47C160.689 1055.47 159.003 1058 159.003 1062.77C159.003 1067.54 155.857 1072.04 155.955 1074.71C156.054 1077.38 159.282 1078.64 159.282 1078.64C159.282 1078.64 155.537 1084.33 158.322 1087.94C161.102 1091.56 170.04 1095.35 170.482 1098.02C170.924 1100.69 178.362 1107.71 178.083 1115.15C177.804 1122.59 175.699 1123.99 175.699 1125.4C175.699 1126.81 180.188 1132.7 182.293 1137.05C184.399 1141.41 179.322 1138.06 177.943 1140.42C176.565 1142.79 182.799 1147.73 183.177 1147.73C183.555 1147.73 185.521 1153.33 194.221 1161.76C202.921 1170.19 205.165 1170.89 209.236 1173.7C213.307 1176.51 214.011 1180.3 217.796 1181C221.588 1181.7 227.479 1183.67 228.183 1185.07C228.886 1186.48 229.59 1190.27 234.219 1189.01C238.848 1187.74 240.11 1183.95 242.215 1185.21C244.32 1186.48 248.083 1191.67 243.605 1193.7C239.127 1195.74 233.004 1196.58 229.049 1197.71C225.095 1198.83 222.146 1200.23 222.146 1200.23L218.215 1201.49C218.215 1201.49 204.468 1199.11 200.397 1199.11C197.826 1199.11 192.121 1198.94 187.841 1198.92C187.841 1198.92 186.19 1203.08 186.236 1207.82C186.283 1212.56 182.561 1212.97 179.269 1211.53C175.972 1210.09 175.152 1211.74 172.285 1212.35C169.424 1212.97 179.269 1223.06 171.145 1218.32C163.021 1213.59 160.951 1214.41 154.35 1212.56C147.75 1210.7 147.57 1207.2 156.223 1205.27C164.882 1203.33 155.595 1203.49 161.451 1198.75C167.307 1194.02 154.35 1198.75 154.35 1198.75C154.35 1198.75 146.337 1196.49 138.649 1196.89C132.665 1197.19 123.203 1201.15 120.557 1202.4C121.953 1200.56 115.143 1192.21 123.279 1189.78C131.926 1187.19 136.043 1193.6 136.863 1193.34C137.683 1193.08 138.713 1189.9 141.801 1184.75C144.889 1179.6 141.801 1184.75 157.241 1184.75H159.433H159.706C162.172 1184.75 165.673 1190.82 165.673 1190.82C165.673 1190.82 166.906 1188.24 171.134 1184.54C175.361 1180.83 166.481 1180.21 166.481 1180.21C166.481 1180.21 158.264 1178.57 151.419 1177.74C144.581 1176.91 149.826 1174.44 149.826 1166.13C149.826 1157.81 156.206 1160.03 160.596 1155.87C164.987 1151.7 162.998 1151.99 157.892 1151.79C152.786 1151.58 154.56 1153.44 150.03 1155.29C145.499 1157.15 146.942 1154.06 143.185 1152.61C139.428 1151.17 138.091 1144.17 145.337 1144.37C152.582 1144.58 141.382 1136.55 143.441 1134.49C145.499 1132.43 143.441 1134.49 149.82 1135.72C156.2 1136.95 147.965 1130.36 159.491 1124.47C171.017 1118.57 172.535 1126.36 172.535 1126.36L175.972 1142.67C174.989 1133.2 174.024 1123.44 174.303 1121.45C174.838 1117.66 170.064 1113.73 169.645 1113.73C169.389 1113.73 166.01 1112.76 161.428 1111.93C161.428 1111.93 158.648 1115.11 155.932 1119.12C153.216 1123.13 150.838 1125.22 145.982 1126.99C141.126 1128.77 138.073 1132.84 133.136 1135.1C128.193 1137.37 130.868 1138.81 130.914 1145.61C130.961 1152.4 135.096 1150.84 133.136 1154.46C131.176 1158.07 131.694 1165.58 130.048 1170.52C128.402 1175.47 122.639 1169.91 120.58 1167.16C118.522 1164.4 108.234 1166.41 105.763 1164.35C103.297 1162.29 102.058 1154.88 106.588 1154.05C111.119 1153.22 110.299 1161.46 112.561 1161.74C114.829 1162.03 114.416 1162.29 115.405 1155.7C116.393 1149.1 122.447 1147.87 125.122 1143.34C127.797 1138.8 124.919 1138.8 121.418 1136.24C117.923 1133.67 116.068 1129.95 111.95 1129.8C107.833 1129.66 106.804 1128.51 104.443 1131.8C102.082 1135.1 99.8019 1131.19 96.5104 1135.51C93.2189 1139.83 93.8353 1123.77 94.2482 1116.77C94.6611 1109.77 91.5731 1108.32 91.5731 1103.17C91.5731 1098.02 85.6065 1101.94 84.7807 1098.65C83.9608 1095.35 80.6692 1097.83 77.2963 1098.03C73.9292 1098.23 77.1684 1102.15 80.2563 1104.41C83.3443 1106.68 80.0528 1111.41 79.0235 1107.71C77.9941 1104 75.732 1106.88 72.0275 1109.37C68.3231 1111.86 66.061 1109.56 66.061 1107.29C66.061 1105.02 65.6481 1101.73 68.7244 1099.92C71.8008 1098.11 66.4738 1096.17 64.4152 1097.61C62.3565 1099.05 57.8322 1096.99 58.0764 1095.35C58.3265 1093.7 57.4193 1087.73 55.3606 1089.89C53.302 1092.05 46.7189 1084.02 49.5975 1084.02C52.482 1084.02 54.3313 1081.56 60.6061 1082.79C66.8751 1084.03 61.5366 1079.91 63.7988 1078.88C66.061 1077.85 65.3631 1073.13 65.3631 1073.13L64.8397 1067.57C64.8397 1067.57 59.2686 1069.82 59.4721 1074.56C59.6756 1079.29 58.2334 1078.05 55.9712 1076.99C53.709 1075.92 46.7131 1071.05 48.9753 1068.79C51.2375 1066.52 48.9753 1068.79 55.9712 1068.58C62.9672 1068.38 44.6486 1064.67 44.6486 1064.67C44.6486 1064.67 39.0891 1059.73 42.7063 1059.32C46.3235 1058.91 48.353 1060.15 53.709 1060.76C59.065 1061.38 54.3255 1059.12 52.4704 1057.61C50.6211 1056.1 47.1202 1055.61 53.709 1055.61C60.2979 1055.61 55.349 1050.05 49.3824 1050.05C43.4158 1050.05 46.7073 1045.11 47.7366 1043.05C48.7659 1040.99 49.3824 1041.61 49.3824 1039.76C49.3824 1037.9 51.0281 1041.4 58.972 1041.91C66.9158 1042.42 55.5583 1036.76 55.5583 1036.76C55.5583 1036.76 52.8832 1036.67 49.7953 1035.22C46.7073 1033.78 50.8246 1029.46 50.8711 1028.84C50.9176 1028.22 45.678 1028.43 45.678 1033.99C45.678 1039.55 43.4158 1035.22 42.7063 1033.99C41.9968 1032.76 39.7055 1016.69 40.5313 1016.69C41.3571 1016.69 41.1478 1012.16 42.7063 1011.97C44.259 1011.78 44.0264 1009.28 46.4979 1009.85C48.9695 1010.43 45.2651 1004.13 46.9108 1003.51C48.5566 1002.89 44.2357 995.269 38.4727 1000.01C32.7096 1004.74 31.6803 994.646 31.6803 991.603C31.6803 988.554 34.3554 990.73 42.7063 990.526C50.307 990.34 47.5563 995.438 52.1272 994.961L49.1788 979.645C48.6089 978.225 48.3589 975.99 45.8815 976.933C41.5607 978.58 43.8228 982.496 40.1184 984.143C36.414 985.79 31.0639 981.466 31.0639 981.466C31.0639 981.466 27.7723 977.346 32.0932 975.699C36.4198 974.052 26.743 971.579 33.9483 972.406C41.1536 973.226 27.1559 967.256 32.919 967.256C38.682 967.256 34.3612 960.872 37.6527 960.872C40.9442 960.872 28.5923 959.225 35.7976 955.932C42.9971 952.638 32.9132 952.842 29.4181 951.195C25.923 949.548 18.7119 952.428 18.7119 952.428C18.7119 952.428 12.3324 949.752 14.5946 945.632C16.8568 941.512 11.7102 944.398 5.7436 951.398C-0.228823 958.399 11.7102 960.046 11.7102 960.046C11.7102 960.046 9.44801 962.513 6.97646 962.926C4.50491 963.339 2.65562 960.04 1.38786 956.129C0.120101 952.219 2.24272 948.716 7.59289 942.798C12.9431 936.88 15.6181 934.092 18.2932 931.212C20.9683 928.331 19.5261 927.714 15.8217 929.006C12.1173 930.304 10.4715 929.978 10.4715 926.684C10.4715 923.391 14.5888 922.978 24.8821 922.978C35.1753 922.978 26.1208 935.541 26.3243 937.846C26.5278 940.15 23.6492 940.074 28.5865 941.931C33.5296 943.781 31.878 935.343 38.4669 936.781C45.0557 938.218 36.2047 949.961 38.4669 948.518C40.7291 947.075 44.2299 937.398 46.2886 937.846C48.3472 938.294 47.9402 933.074 44.4393 929.012C40.9384 924.956 43.6135 925.864 43.6135 919.277C43.6135 912.683 51.0223 911.653 49.993 910.42C48.9695 909.186 43.8229 908.36 44.4393 904.81C45.0557 901.26 46.9108 900.952 50.8188 900.859C54.7267 900.766 58.0182 901.569 60.5887 901.627C63.1532 901.685 58.844 899.299 55.3432 899.003C51.8423 898.706 47.725 899.299 44.4335 896.209C41.142 893.119 48.5508 888.796 50.1965 885.886C51.8423 882.977 56.7854 879.73 59.0476 875.406C61.3098 871.082 58.059 864.699 58.059 864.699C58.059 864.699 53.4939 863.872 53.6974 867.375C53.9009 870.879 46.2886 865.729 45.4628 865.315C44.6428 864.908 42.5842 860.788 42.5842 856.255C42.5842 851.728 44.6428 855.638 46.7015 848.51C48.7601 841.381 42.5842 837.104 42.5842 836.278C42.5842 835.451 40.7349 831.337 47.1144 832.012C53.4939 832.687 45.2593 822.481 48.7601 822.492C52.2552 822.504 54.9361 830.307 59.8734 830.511C64.8106 830.715 53.9068 823.097 53.081 822.492C52.261 821.887 46.4979 821.451 45.6721 813.211C44.8522 804.971 47.5273 806.827 47.5273 806.827L50.6152 808.474V805.593C50.6152 805.593 47.9402 802.713 47.7366 800.857C47.5273 799.006 47.7366 800.857 49.5859 797.563C51.4352 794.269 53.0868 801.27 54.3197 797.563C55.5525 793.856 53.2903 793.03 49.7895 791.796C46.2944 790.562 45.2651 790.359 44.8522 787.746C44.4393 785.133 47.1144 782.736 51.4352 781.292C55.7561 779.855 57.8147 775.939 55.5525 774.705C53.2903 773.472 53.9068 776.562 48.5566 778.912C43.2064 781.263 41.5607 775.322 39.0891 775.322C36.6176 775.322 34.5647 782.323 32.7096 784.383C30.8603 786.442 22.6257 785.412 27.3594 779.925C32.0932 774.438 26.3301 779.029 19.9506 778.907C13.5711 778.784 16.4498 773.256 15.8333 769.427C15.2169 765.598 13.1582 757.806 13.1582 757.806C13.1582 757.806 14.1876 751.626 14.1876 742.118C14.1876 732.609 19.9506 725.673 23.8644 726.435C27.7782 727.197 23.4515 719.702 21.6022 718.259C19.7529 716.816 21.3987 717.02 21.3987 707.308C21.3987 697.595 20.9858 698.486 20.9858 693.737C20.9858 688.989 22.6315 691.485 22.6315 686.673C22.6315 681.86 14.1934 680.359 13.3676 679.178C12.5418 677.997 12.9547 671.712 14.3969 667.592C15.8391 663.472 13.3676 661.004 11.7218 660.591C10.0761 660.178 5.95877 656.058 5.95877 656.058C5.95877 656.058 4.7259 647.615 4.7259 644.111C4.7259 640.608 1.02149 637.518 1.43438 634.004C1.84146 630.489 7.40098 630.931 11.6346 634.004C15.8682 637.076 13.9898 632.368 15.2227 629.11C16.4556 625.851 11.7218 619.223 11.7218 619.223C11.7218 619.223 10.6983 614.038 15.6356 614.818C20.5787 615.598 19.2063 615.068 19.2063 610.948C19.2063 606.834 21.1428 605.914 21.1428 605.914V596.418C21.1428 590.849 21.387 594.235 25.4985 585.536C29.6158 576.836 25.4985 578.25 25.4985 572.786C25.4985 567.322 25.7428 566.379 37.6004 550.638C49.458 534.897 37.3561 546.763 38.81 535.927C40.2638 525.086 40.7465 524.964 45.8292 512.977C50.9118 500.995 43.8926 507.041 43.41 505.831C42.9273 504.62 40.7465 500.023 40.7465 493.238C40.7465 486.453 48.4926 490.573 49.2195 481.035C49.9465 471.497 44.8638 473.371 43.8926 461.238C42.9215 449.099 41.7119 450.124 41.7119 438.52C41.7119 426.917 35.1812 425.41 34.9369 415.482C34.6927 405.549 33.0004 406.521 33.0004 406.521C33.0004 406.521 33.9657 399.253 40.0196 397.315C46.0734 395.377 39.2927 394.65 44.6196 387.905C49.9407 381.155 42.4388 383.995 42.4388 375.254C42.4388 366.514 41.2292 372.368 38.083 362.435C34.9369 352.501 32.2735 360.008 38.083 350.081C43.8926 340.147 42.4388 340.63 43.41 332.576C44.3753 324.523 43.8926 324.162 50.1849 312.157C56.483 300.152 47.283 310.12 47.283 297.766C47.283 285.412 49.2195 298.005 52.1214 287.46C55.0291 276.91 54.3022 279.599 54.3022 257.556C54.3022 235.513 58.6579 237.695 60.3793 235.03C62.0948 232.365 62.2868 230.91 59.1406 225.318C55.9945 219.72 58.0764 204.654 58.0764 204.654C58.0764 204.654 57.931 195.064 58.0764 189.733C58.2218 184.403 58.6579 178.351 58.0764 175.546C57.4949 172.747 52.1214 174.475 52.1214 174.475V167.207C52.1214 161.394 53.8137 156.791 54.5406 156.791C55.2676 156.791 58.8964 158.915 58.8964 158.915C58.8964 158.915 61.8041 158.246 64.2233 148.557C66.6425 138.868 63.2579 131.361 67.3694 113.194C71.4867 95.0264 64.2233 99.094 64.2233 99.094C64.4036 86.4839 63.95 88.7534 63.95 82.4047C63.95 76.056 63.0428 60.1929 63.0428 58.8312C63.0428 57.4695 60.862 37.5273 60.1409 36.1656C59.4198 34.8039 54.436 12.5921 54.436 11.2304V0" stroke="#1E4C83" stroke-width="2" stroke-miterlimit="10"/>
<path d="M125.715 1203.31C125.872 1203.25 125.989 1203.16 126.076 1203.04C125.326 1203.4 125.122 1203.54 125.715 1203.31Z" fill="#F2F2F2" stroke="#1E4C83" stroke-width="2" stroke-miterlimit="10"/>
<path d="M438.962 394.638C438.962 394.638 445.935 395.441 450.25 395.953C454.565 396.465 459.392 393.858 460.659 392.874C461.927 391.891 476.146 402.651 480.211 407.94C484.27 413.23 485.823 416.279 489.62 417.041C493.418 417.804 492.4 420.725 494.685 421.679C496.971 422.634 502.303 415.01 503.315 419.835C504.333 424.659 505.857 431.776 507.124 432.788C508.392 433.806 518.552 439.69 524.896 439.032C531.241 438.374 540.383 450.315 540.383 450.315C540.383 450.315 549.269 460.476 549.269 463.019C549.269 465.556 550.03 471.404 553.078 475.722C556.125 480.04 557.393 479.906 557.393 483.781C557.393 487.663 548.507 495.536 548.507 503.159C548.507 510.782 552.298 517.992 552.298 517.992" stroke="#1E4C83" stroke-width="2" stroke-miterlimit="10"/>
<path d="M296.659 126.781L310.209 84.8832V67.2046L327.667 35.0188L379.825 26.2377H410.571L436.973 44.7019V54.5305L439.055 59.8899L444.115 71.505V76.5095L446.196 82.2239V88.1827L441.05 99.7628C441.05 99.7628 440.788 120.159 447.61 124.966C454.425 129.766 451.337 133.886 455.798 134.399C460.258 134.916 469.859 135.946 477.059 135.946C484.258 135.946 490.091 130.453 491.12 130.453C492.15 130.453 495.872 135.26 498.808 135.946C501.751 136.633 512.038 134.916 512.038 141.091C512.038 147.265 516.836 148.638 516.836 161.335C516.836 174.033 515.464 179.52 516.836 183.64C518.209 187.76 521.297 191.944 526.094 191.397C530.898 190.85 537.143 189.25 537.143 189.25L547.355 192.689V206.504C547.355 211.438 543.994 217.874 543.959 225.981C543.924 234.087 539.551 239.743 539.551 239.743" stroke="#1E4C83" stroke-width="2" stroke-miterlimit="10"/>
<path d="M158.45 147.422L144.935 149.715L138.236 148.568L134.712 136.563L132.857 128.859L128.199 117.977V113.898L122.895 107.549V93.0417L117.458 85.3372H112.474V77.6326L104.041 68.5605L108.153 65.3891L106.129 61.3098L104.041 57.2306H109.752L108.153 47.2565L115.009 35.013L104.041 23.6831L99.331 19.15L94.5 0.499695" stroke="#1E4C83" stroke-width="2" stroke-miterlimit="10"/>
<path d="M436.973 54.5247L447.987 50.0556L439.951 40.227C445.307 29.2055 450.663 19.9763 450.663 19.9763V0.662476" stroke="#1E4C83" stroke-width="2" stroke-miterlimit="10"/>
<path d="M217.802 1202.14C217.802 1202.14 204.049 1199.75 199.984 1199.75C195.919 1199.75 183.986 1199.34 182.305 1199.75C180.619 1200.17 179.077 1200.88 179.077 1191.05C179.077 1181.22 177.397 1166.61 177.397 1162.41C177.397 1158.19 173.378 1125.9 173.913 1122.11C174.448 1118.32 169.68 1114.39 169.255 1114.39C168.831 1114.39 159.858 1111.73 151.018 1111.45C142.173 1111.16 136.142 1111.73 132.775 1111.45C129.408 1111.16 127.867 1111.29 118.184 1111.37C108.502 1111.45 107.24 1113.97 106.117 1112.01C104.995 1110.05 104.879 1106.96 101.151 1104.71C97.4234 1102.46 96.1556 1103.92 95.8765 1100.6C95.5973 1097.27 95.1728 1091.09 94.6145 1085.9C94.0504 1080.7 95.1728 1082.75 95.3182 1077.65C95.4578 1072.55 96.5801 1071.99 92.3698 1071.29C88.1594 1070.59 85.9147 1071.57 83.9491 1073.12C81.9835 1074.66 76.9357 1085.19 75.3888 1084.35C73.8477 1083.5 75.5284 1076.35 73.2836 1074.24C71.0389 1072.13 67.5322 1070.73 64.3047 1064.41C61.0771 1058.09 62.9031 1052.62 62.7636 1043.07C62.624 1033.52 63.8103 1038.3 62.3739 1032.54C60.9375 1026.79 58.1345 1026.5 60.9375 1026.08C63.7406 1025.66 67.9509 1025.38 67.9509 1025.38C67.9509 1025.38 69.3524 1023.83 70.3352 1018.5C71.318 1013.16 71.318 1011.9 73.4232 1009.37C75.5284 1006.85 78.4768 1005.02 78.6164 1003.05C78.7559 1001.09 83.385 995.612 82.2626 993.505C81.1403 991.399 78.4768 993.226 78.4768 986.906C78.4768 980.587 74.691 980.587 74.691 977.218C74.691 973.848 73.429 972.446 77.6394 965.707C81.8497 958.969 84.7981 959.108 84.7981 955.175C84.7981 951.241 83.1117 948.576 83.1117 945.905C83.1117 943.234 88.4037 935.797 88.4037 935.797C88.4037 935.797 82.2684 924.705 82.2684 923.018C82.2684 921.33 89.4214 922.593 89.4214 917.821C89.4214 913.05 83.2454 914.592 83.2454 909.256C83.2454 903.919 87.3162 901.493 87.3162 901.493C87.3162 901.493 84.7109 899.572 88.3979 896.343C92.0848 893.113 95.0332 892.694 90.9625 890.023C86.8917 887.358 88.1536 883.145 83.9491 883.285C79.7387 883.424 80.1633 886.514 77.7731 885.67C75.3888 884.827 70.8993 882.72 70.7598 880.334C70.6202 877.948 71.0389 876.546 73.4232 876.686C75.8075 876.825 81.8439 879.636 83.385 877.669C84.9261 875.702 87.1476 873.596 90.0378 875.144C92.9281 876.686 92.6489 877.948 93.3468 871.914C94.0504 865.879 93.9051 865.879 90.6833 865.879C87.4558 865.879 77.2846 867.421 76.895 866.584C76.5112 865.74 76.581 859.28 76.895 856.615C77.209 853.95 78.3314 853.06 78.0523 849.149C77.7731 845.239 80.5762 846.083 78.8955 843.132C77.209 840.182 73.2836 837.092 72.7195 836.109C72.1613 835.125 72.4404 832.32 72.8591 830.068C73.2778 827.822 74.8247 824.953 72.0159 825.192C69.207 825.436 68.6488 826.007 68.6488 823.126C68.6488 820.246 71.7367 819.477 67.1077 817.825C62.4786 816.172 61.775 817.295 62.1995 812.238C62.6182 807.182 66.4098 806.047 65.9853 803.527C65.5666 801.007 59.6582 797.917 59.7338 794.967C59.8094 792.017 72.8591 791.173 72.58 787.245C72.3008 783.317 67.3868 782.334 67.2473 777.696C67.1077 773.064 68.2301 770.957 67.3868 769.415C66.5436 767.873 65.0025 765.446 65.0025 761.955C65.0025 758.463 64.2988 752.569 63.601 748.775C62.8973 744.98 64.3047 744.09 64.3047 740.814C64.3047 737.544 68.7942 735.577 65.7062 731.922C62.6182 728.274 60.3734 729.758 60.6584 727.121C60.9375 724.485 69.1489 721.96 68.9046 719.149C68.6546 716.344 62.624 717.182 62.7636 711.427C62.9031 705.672 69.6374 708.762 69.6374 706.655C69.6374 704.549 72.4462 696.827 72.4462 692.334C72.4462 687.842 70.6202 685.433 73.5686 683.757C76.517 682.081 80.7448 680.242 80.7448 680.242C80.7448 680.242 83.3908 673.096 83.3908 669.308C83.3908 665.514 78.7617 664.676 78.343 664.251C77.9243 663.832 77.7789 658.124 77.7789 656.692C77.7789 655.266 71.7426 647.119 70.4806 644.873C69.2187 642.627 72.0217 639.752 72.0217 637.681C72.0217 635.609 71.0389 634.067 70.8993 628.591C70.7598 623.115 68.2359 616.999 70.341 612.967C72.4462 608.934 72.1671 605.565 72.4462 603.319C72.7254 601.072 73.2895 602.475 77.4998 599.245C81.7102 596.016 81.0065 586.606 84.5132 587.875C88.0199 589.137 90.0436 589.3 90.0436 589.3C90.0436 589.3 86.8103 579.763 86.7812 578.482C86.7579 577.202 92.2302 568.497 85.6356 566.39C79.0409 564.284 80.582 562.177 83.1117 558.947C85.6356 555.718 87.0894 557.202 86.787 553.373C86.4846 549.544 86.316 540.448 90.0494 537.131C93.7829 533.814 95.7427 532.878 96.3068 529.84C96.8709 526.797 99.2552 528.484 99.2552 526.657C99.2552 524.83 97.9933 520.663 97.9933 512.359C97.9933 504.055 101.5 500.552 99.2552 498.865C97.0105 497.177 93.5096 502.234 92.5908 502.088C91.6778 501.949 88.8689 497.573 88.7294 490.776C88.5898 483.979 87.8396 478.271 87.8396 478.271C87.8396 478.271 84.519 473.726 82.9779 469.658C81.4368 465.591 76.802 460.953 78.0639 457.863C79.3258 454.773 82.8325 452.806 78.2035 449.437C73.5744 446.067 73.0103 446.655 72.5916 440.114C72.1729 433.568 68.8058 434.551 69.7828 429.36C70.7656 424.164 72.1671 420.655 73.8535 424.304C75.54 427.952 77.4998 429.221 77.4998 426.131C77.4998 423.041 78.0581 413.684 78.2035 409.028C78.343 404.367 75.9587 405.211 79.0467 402.685C82.1347 400.16 82.8325 400.8 85.0831 400.41C87.3278 400.02 89.8285 398.606 90.0494 395.871C90.2704 393.136 85.3622 388.783 85.3622 380.357C85.3622 371.931 85.0831 370.744 83.5362 367.898C81.9951 365.053 82.4138 362.527 85.9205 362.103C89.4272 361.684 92.0674 356.406 90.0494 354.055C88.0257 351.71 89.6889 350.167 90.0494 349.184C90.41 348.201 93.9225 347.7 93.9225 344.581C93.9225 341.462 91.8173 331.075 94.0621 330.929C96.3068 330.79 101.221 332.192 101.919 327.7C102.622 323.207 103.32 320.693 105.71 319.914C108.095 319.134 105.431 313.099 108.17 307.903C110.903 302.706 113.009 302.706 113.009 298.778C113.009 294.845 111.322 289.508 113.567 289.508C115.812 289.508 124.093 292.738 124.093 291.196C124.093 289.654 130.833 291.906 130.548 288.112C130.263 284.318 129.705 279.965 127.32 279.121C124.936 278.277 121.144 273.785 120.162 270.841C119.179 267.89 120.58 265.784 121.988 263.677C123.389 261.571 126.338 265.365 124.372 252.446C122.406 239.528 120.586 244.584 119.882 239.667C119.179 234.75 120.441 227.732 122.267 226.609C124.093 225.486 128.861 223.1 124.791 219.87C120.72 216.641 119.458 216.129 119.458 211.613C119.458 207.097 123.104 207.586 123.25 206.498C123.389 205.41 126.448 203.024 128.216 202.18C129.984 201.336 138.172 197.729 144.953 194.621C151.733 191.508 158.328 185.054 159.869 173.678C161.41 162.307 162.533 159.799 162.533 159.799C162.533 159.799 165.132 153.451 161.8 150.436C158.462 147.422 157.764 148.97 158.462 147.422C159.16 145.874 161.125 140.404 164.213 138.012C167.301 135.626 173.192 136.61 173.192 134.503C173.192 132.397 173.617 129.167 176.001 128.329C178.385 127.485 179.676 128.143 180.432 122.83C181.188 117.517 179.2 110.36 184.753 110.779C190.307 111.198 195.5 118.221 198.728 120.048C201.955 121.876 205.183 124.541 209.393 124.541C213.604 124.541 219.465 122.295 224.182 123.697C228.898 125.1 235.574 124.262 236.446 127.346C237.319 130.436 237.737 136.755 240.686 138.297C243.634 139.839 242.791 147.422 247.699 140.683C252.613 133.945 252.921 135.766 252.764 129.592C252.607 123.412 253.451 121.026 257.242 121.026C261.028 121.026 264.139 120.462 265.459 123.412C266.785 126.362 268.326 128.533 269.728 126.042C271.129 123.552 271.129 121.591 277.166 121.591C283.202 121.591 292.6 120.467 296.671 126.787C300.741 133.107 303.684 135.638 311.122 144.198C318.56 152.764 322.346 151.216 329.504 159.078C336.663 166.939 338.053 170.594 343.88 175.924C349.713 181.26 349.568 183.786 353.08 183.786C356.587 183.786 359.396 180.981 372.16 184.63C384.931 188.278 391.386 197.827 396.155 202.18C400.923 206.533 400.819 207.092 413.008 210.461C425.197 213.83 424.639 216.216 430.809 217.624C436.985 219.027 442.457 222.536 443.998 224.503C445.545 226.469 452.134 231.101 452.558 234.191C452.977 237.281 442.538 235.035 436.642 250.619C430.751 266.203 428.424 267.07 427.86 270.218C427.302 273.366 415.793 284.597 415.793 284.597C415.793 284.597 405.384 291.592 405.75 297.644C406.117 303.696 417.619 289.829 429.686 294.234C441.753 298.639 462.241 302.41 463.782 303.119C465.323 303.835 473.186 304.51 482.723 303.119C492.26 301.729 496.779 297.655 497.959 297.097C499.14 296.538 506.578 292.47 506.578 292.47C506.578 292.47 526.083 279.965 528.467 275.612C530.851 271.26 533.66 268.961 534.079 257.264C534.497 245.568 537.155 240.092 537.155 240.092C537.155 240.092 540.255 239.109 541.656 239.109C543.058 239.109 549.652 240.79 551.339 240.79C553.025 240.79 557.933 240.93 557.933 242.472C557.933 244.02 557.654 258.201 559.76 262.688C561.865 267.18 565.371 263.392 564.953 271.324C564.528 279.255 556.555 287.274 555.985 288.036C555.415 288.798 557.521 292.732 551.345 297.929C545.169 303.125 541.075 300.454 537.161 308.176C533.247 315.898 529.176 316.882 523.285 316.882C517.394 316.882 511.079 320.955 511.079 320.955C511.079 320.955 502.239 324.604 491.859 339.489C481.473 354.375 478.809 355.893 478.809 355.893L471.796 359.426C471.796 359.426 467.446 362.9 466.184 367.06C464.922 371.221 464.218 365.466 457.624 371.5C451.029 377.541 451.169 378.943 449.488 383.855C447.801 388.766 446.26 386.101 441.631 391.437C437.002 396.773 433.775 397.681 433.775 402.843C433.775 408.004 427.18 404.774 426.901 412.357C426.622 419.939 425.36 429.343 425.36 429.343C425.36 429.343 420.062 440.714 420.533 447.452C421.01 454.191 423.534 454.191 421.289 460.225C419.044 466.266 418.056 465.282 418.056 465.282C418.056 465.282 422.411 477.537 417.503 481.657C412.589 485.777 409.042 497.014 409.205 501.925C409.367 506.837 407.501 503.066 409.205 513.727C410.908 524.387 409.647 522.141 408.524 524.248C407.402 526.354 408.245 530.917 410.769 533.762C413.293 536.608 420.452 545.22 429.012 547.303C437.572 549.387 437.712 552.61 441.218 556.823C444.725 561.037 445.568 563.987 442.905 566.093C440.241 568.2 436.031 572.692 436.031 574.38C436.031 576.067 434.909 580.42 438.694 585.471C442.486 590.528 445.289 590.383 449.22 590.383C453.152 590.383 456.379 592.297 454.413 600.677C452.448 609.056 449.505 618.326 444.591 623.517C439.683 628.713 437.293 633.328 432.803 639.584C428.314 645.839 428.314 643.174 428.314 646.962C428.314 650.756 430.448 650.733 420.545 656.43C410.635 662.127 406.308 665.072 400.197 665.357C394.079 665.636 390.584 666.34 383 668.028C375.417 669.715 375.138 671.525 370.648 673.352C366.159 675.185 361.169 676.448 350.754 676.448C340.339 676.448 316.798 677.432 311.029 675.604C305.26 673.777 310.174 664.408 305.26 664.6C300.352 664.792 298.805 668.726 298.805 672.095C298.805 675.465 300.206 677.99 303.294 684.03C306.382 690.071 309.185 692.032 309.185 698.491C309.185 704.95 308.441 704.811 304.673 706.073C300.904 707.336 299.788 715.902 299.788 715.902C299.788 715.902 298.671 726.854 299.788 727.558C300.904 728.262 303.707 729.944 303.707 732.615C303.707 735.28 300.759 740.337 294.868 743.427C288.977 746.517 286.029 751.288 279.853 751.149C273.677 751.009 260.528 747.919 254.544 745.394C248.56 742.868 248.24 737.532 242.785 737.253C237.336 736.967 235.091 731.916 233.265 736.269C231.439 740.622 231.701 740.203 232.131 746.237C232.562 752.278 235.929 761.711 235.231 770.049C234.527 778.388 236.464 782.043 236.464 782.043C236.464 782.043 242.273 779.378 244.786 783.026C247.298 786.675 246.873 786.401 247.438 788.362C248.002 790.323 249.403 791.592 252.206 790.609C255.015 789.625 258.522 791.027 258.661 786.96C258.801 782.886 261.749 778.394 263.29 778.394C264.831 778.394 268.623 774.839 268.623 780.547C268.623 786.256 269.187 788.927 269.885 792.296C270.589 795.665 268.623 799.035 265.954 801.141C263.29 803.248 256.975 806.338 256.975 806.338C256.975 806.338 256.87 796.789 254.538 795.945C252.206 795.101 246.17 791.732 244.204 794.542C242.239 797.353 237.359 797.493 236.569 797.632C235.783 797.772 234.969 801.985 236.569 802.125C238.168 802.264 246.868 809.282 248.269 809.282C249.671 809.282 246.135 812.233 246.135 812.233C246.135 812.233 232.533 821.799 232.126 827.124C231.713 832.448 225.961 836.661 229.468 838.908C232.98 841.154 232.126 847.613 232.126 847.613C232.126 847.613 232.695 857.302 231.154 858.704C229.613 860.107 227.531 861.09 224.502 863.336C221.472 865.583 220.442 868.533 221.867 870.075C223.298 871.617 226.525 869.796 226.525 872.321C226.525 874.847 227.741 879.199 221.867 877.937C215.999 876.674 212.068 874.707 209.405 875.97C206.741 877.233 202.083 876.528 202.304 880.043C202.531 883.552 206.456 884.396 200.147 884.396C193.831 884.396 187.452 892.426 187.452 892.426C187.452 892.426 183.672 899.049 182.788 901.481C181.904 903.914 180.444 912.619 180.444 912.619C180.444 912.619 178.478 921.045 182.788 926.096C187.097 931.153 195.657 932.835 195.657 932.835C195.657 932.835 192.43 940.976 200.426 941.255C208.422 941.534 213.819 940.976 216.802 941.959C219.785 942.943 223.577 939.713 224.839 944.066C226.101 948.418 223.577 948.418 223.437 954.459C223.298 960.499 227.084 961.902 221.896 963.025C216.703 964.148 210.068 967.127 211.091 968.361C212.115 969.589 220.495 964.852 222.879 966.673C225.263 968.5 219.652 973.679 219.652 974.104C219.652 974.535 215.022 984.922 207.724 989.275C200.426 993.628 199.024 992.225 196.361 996.578C193.697 1000.93 189.632 1005.28 187.457 1013.01C185.277 1020.73 184.777 1028.59 184.777 1028.59C184.777 1028.59 189.568 1032.38 182.794 1038C176.019 1043.61 170.104 1046.7 170.104 1046.7L160.305 1056.11C160.305 1056.11 158.625 1058.64 158.625 1063.42C158.625 1068.19 155.479 1072.69 155.577 1075.35C155.676 1078.02 158.904 1079.29 158.904 1079.29C158.904 1079.29 155.159 1084.98 157.944 1088.59C160.73 1092.2 169.662 1095.99 170.104 1098.66C170.546 1101.33 177.984 1108.35 177.705 1115.79C177.426 1123.23 175.321 1124.63 175.321 1126.04C175.321 1127.44 179.81 1133.33 181.915 1137.69C184.021 1142.05 178.944 1138.7 177.565 1141.06C176.187 1143.42 182.415 1148.37 182.799 1148.37C183.177 1148.37 185.143 1153.98 193.843 1162.4C202.543 1170.83 204.787 1171.53 208.858 1174.34C212.929 1177.14 213.627 1180.93 217.418 1181.63C221.21 1182.34 227.101 1184.3 227.805 1185.71C228.508 1187.11 229.206 1190.9 233.841 1189.63C238.47 1188.37 239.732 1184.58 241.837 1185.85C243.942 1187.11 247.705 1192.3 243.227 1194.34C238.749 1196.37 232.626 1197.22 228.671 1198.34C224.717 1199.46 221.768 1200.87 221.768 1200.87L217.802 1202.14Z" stroke="#1E4C83" stroke-width="2" stroke-miterlimit="10"/>
<path d="M254.515 1192.45C254.846 1190.62 254.567 1190.65 258.213 1190.43C261.86 1190.21 266.349 1191.04 270.28 1189.64C274.212 1188.24 276.032 1192.45 273.787 1192.45C271.542 1192.45 266.913 1193.43 263.261 1194.34C259.615 1195.26 256.986 1196.24 254.509 1196.24C252.043 1196.24 254.515 1192.45 254.515 1192.45Z" stroke="#1E4C83" stroke-width="2" stroke-miterlimit="10"/>
<path d="M70.812 783.725L235.091 775.182" stroke="#1E4C83" stroke-width="2" stroke-miterlimit="10"/>
<path d="M85.0312 932.542L181.531 923.5" stroke="#1E4C83" stroke-width="2" stroke-miterlimit="10"/>
<path d="M286.499 749.13C286.499 749.13 275.712 741.437 275.712 740.814V714.843V525.935H323.415L342.542 500.674L357.151 487.087" stroke="#1E4C83" stroke-width="2" stroke-miterlimit="10"/>
<path d="M273.95 684.665L261.098 683.751C261.098 683.751 253.503 671.333 244.762 671.642C236.022 671.95 214.354 671.636 214.354 671.636H194.959C194.959 671.636 189.9 656.727 180.613 656.442C171.325 656.157 164.678 652.13 164.678 652.13L148.389 650.268L145.941 586.164L142.109 583.429L144.842 580.886L185.829 579.687L227.357 578.471L226.118 487.355L230.451 475.984L231.689 460.4H222.094C222.094 460.4 225.496 454.086 220.547 451.98C215.592 449.873 214.173 446.073 212.097 446.58C210.021 447.086 203.833 446.073 201.664 446.58C199.495 447.086 197.541 448.634 194.959 448.942C192.377 449.251 198.571 449.251 192.377 449.251C186.184 449.251 177.519 446.399 172.256 446.434C166.993 446.463 167.272 446.405 163.73 446.434C160.183 446.463 162.015 452.544 163.73 456.938C165.446 461.331 169.976 470.816 168.796 475.984C167.615 481.151 169.499 486.615 170.738 492.906C171.977 499.197 171.948 504.655 176.286 506.843C180.618 509.031 183.689 507.192 182.776 510.899C181.863 514.606 178.763 509.945 180.624 520.64C182.479 531.33 181.258 535.939 183.107 538.284C184.957 540.623 188.824 543.533 188.824 543.533C188.824 543.533 185.986 573.181 185.835 579.693" stroke="#1E4C83" stroke-width="2" stroke-miterlimit="10"/>
<path d="M177.74 447.033C177.74 447.033 172.25 437.839 170.075 432.672C167.9 427.504 171.901 418.781 169.168 411.728C166.429 404.676 162.515 403.849 159.607 400.946C156.705 398.042 155.048 394.841 148.407 388.557C141.771 382.272 129.257 373.974 129.257 373.974L113.764 371.314C113.764 371.314 115.201 370.651 115.009 364.43C114.811 358.204 115.62 347.182 115.009 346.263C114.398 345.343 113.933 348.247 108.153 342.853C102.372 337.458 97.0394 337.907 97.0394 337.907L93.2535 337.895" stroke="#1E4C83" stroke-width="2" stroke-miterlimit="10"/>
<path d="M108.153 312.808C108.153 312.808 112.305 312.663 115.009 312.808C117.713 312.954 113.154 313.367 117.713 312.954C122.278 312.541 119.37 307.56 122.278 312.541C125.18 317.522 127.326 324.162 127.326 324.162C127.326 324.162 130.949 324.546 134.264 324.162C137.579 323.778 140.131 319.786 143.196 324.33C146.261 328.881 147.023 327.234 147.023 327.234C147.023 327.234 152.832 325.96 155.542 327.234C158.252 328.509 161.782 329.027 161.782 329.027C161.782 329.027 167.476 322.462 168.319 322.462C169.162 322.462 174.838 322.241 175.605 325.052C176.373 327.863 179.688 327.438 181.473 329.818C183.259 332.204 184.741 334.497 184.741 334.497C184.741 334.497 188.992 341.037 188.806 343.254C188.62 345.471 194.918 348.375 196.872 349.655C198.826 350.93 204.7 351.861 205.462 355.946C206.229 360.031 201.379 361.055 206.991 364.116C212.603 367.183 211.585 367.084 213.882 373.77C216.179 380.456 216.773 385.344 216.773 385.344L213.644 390.198C213.644 390.198 214.138 403.558 213.115 404.775C212.091 405.991 208.015 412.887 208.015 412.887V447.016" stroke="#1E4C83" stroke-width="2" stroke-miterlimit="10"/>
<path d="M216.784 385.356C216.784 385.356 221.512 386.159 224.571 383.354C227.63 380.549 228.752 380.875 228.752 377.803C228.752 374.73 229.718 366.694 233.544 367.066C237.371 367.445 243.57 367.578 246.594 367.893C249.624 368.207 258.789 366.921 261.086 367.654C263.383 368.387 267.739 373.531 275.648 373.665C283.557 373.799 282.283 373.531 285.348 373.665C288.413 373.799 290.71 377.634 290.71 377.634L297.345 379.81C297.345 379.81 296.176 389.744 297.45 391.367C298.723 392.985 305.533 390.681 305.533 390.681H310.215L316.379 409.017L308.162 431.147C308.162 431.147 307.185 436.832 308.162 439.032C309.139 441.232 310.401 447.627 309.813 449.157C309.232 450.688 305.556 452.986 308.162 455.285C310.761 457.584 318.786 466.731 318.786 466.731C318.786 466.731 322.869 476.385 319.042 481.669C315.216 486.953 308.58 491.957 308.836 492.522C309.092 493.086 302.782 505.149 302.364 505.755C301.945 506.36 294.036 516.584 294.036 516.584L287.965 525.93" stroke="#1E4C83" stroke-width="2" stroke-miterlimit="10"/>
<path d="M409.17 317.254H323.887L310.209 390.681" stroke="#1E4C83" stroke-width="2" stroke-miterlimit="10"/>
<path d="M323.887 317.254L325.73 240.779H272.891L308.319 199.504L308.173 140.858" stroke="#1E4C83" stroke-width="2" stroke-miterlimit="10"/>
<path d="M308.301 192.683C308.301 192.683 310.674 188.243 315.466 192.683C320.258 197.123 325.422 197.327 327.969 200.027C330.522 202.727 339.96 209.256 345.834 211.613C351.702 213.964 363.955 218.561 366.636 227.499C369.311 236.438 370.846 237.607 375.44 241.745C380.034 245.882 374.928 236.95 381.82 248.565C388.711 260.186 393.596 261.716 393.596 261.716L405.296 268.891C405.296 268.891 404.878 262.531 410.577 268.891C416.27 275.252 420.131 280.163 420.131 280.163" stroke="#1E4C83" stroke-width="2" stroke-miterlimit="10"/>
<path d="M471.772 359.432L470.633 340.63C470.633 340.63 463.741 348.294 473.185 335.009C482.63 321.729 482.88 313.018 482.88 313.018L482.711 303.12" stroke="#1E4C83" stroke-width="2" stroke-miterlimit="10"/>
<path d="M436.868 393.59C436.868 393.59 436.665 392.461 430.611 389.837C424.557 387.212 429.442 387.212 418.02 387.212C406.599 387.212 411.24 388.475 404.18 388.551C397.12 388.626 402.162 387.131 395.102 390.401C388.042 393.672 385.57 393.59 385.57 393.59" stroke="#1E4C83" stroke-width="2" stroke-miterlimit="10"/>
<path d="M407.21 510.905C407.21 510.905 396.515 507.774 388.851 506.849C381.186 505.923 377.551 503.7 370.695 498.05C363.833 492.4 354.807 484.928 354.807 484.928C354.807 484.928 348.701 464.892 350.318 456.943C351.928 448.989 357.441 442.529 357.441 442.529L369.282 431.153C369.282 431.153 376.882 424.566 378.627 415.476C380.377 406.392 385.571 403.448 385.571 398.519C385.571 393.59 389.112 382.138 389.531 375.906C389.944 369.673 384.413 365.978 390.665 359.437C396.922 352.897 401.633 350.959 401.9 342.841C402.168 334.723 402.773 330.01 404.587 326.815C406.401 323.62 410.722 317.766 410.577 310.9C410.437 304.033 410.577 297.917 410.577 297.917" stroke="#1E4C83" stroke-width="2" stroke-miterlimit="10"/>
<path d="M272.891 240.779L256.37 242.693L249.821 241.739C249.821 241.739 241.581 247.634 242.093 250.776C242.605 253.913 246.78 264.835 244.756 266.872C242.732 268.909 243.872 271.551 241.348 277.079C238.825 282.607 234.097 289.544 231.945 290.835C229.799 292.121 228.63 295.497 228.63 295.497C228.63 295.497 224.164 303.137 224.431 304.475C224.699 305.814 225.751 310.446 225.751 310.446L220.43 312.203C220.43 312.203 223.28 323.545 223.315 328.381C223.356 333.216 216.028 333.216 223.315 336.708C230.602 340.199 230.892 343.115 230.892 345.285C230.892 347.456 232.48 356.854 232.48 356.854L233.538 367.09" stroke="#1E4C83" stroke-width="2" stroke-miterlimit="10"/>
<path d="M90.0377 589.294V595.288C90.0377 595.288 94.5447 594.398 94.5447 596.621C94.5447 598.844 97.0395 601.951 97.0395 601.951C97.0395 601.951 102.454 605.827 104.047 606.554C105.64 607.281 107.193 613.851 107.193 613.851C107.193 613.851 107.81 620.049 111.049 619.211C114.288 618.373 124.721 621.707 125.832 621.707C126.942 621.707 128.198 625.036 128.198 625.036L134.706 626.368C134.706 626.368 139.585 628.812 140.696 628.812C141.806 628.812 145.941 630.808 147.645 630.808" stroke="#1E4C83" stroke-width="2" stroke-miterlimit="10"/>
<path d="M64.1416 752.115C64.1416 752.115 70.3583 750.846 73.4637 752.115C76.5691 753.384 80.1921 755.828 82.4892 753.832C84.7863 751.836 82.4892 744.37 82.4892 744.37C82.4892 744.37 83.7453 736.683 86.0424 737.264C88.3395 737.846 90.3342 737.625 92.5557 736.072C94.7713 734.518 92.7767 732.964 97.4348 732.964C102.093 732.964 101.791 733.185 104.053 730.299C106.315 727.413 111.194 725.457 110.752 719.33C110.31 713.202 115.021 711.206 115.021 711.206C115.021 711.206 123.401 707.191 124.069 705.538C124.738 703.88 127.402 699.661 129.617 698.328C131.839 696.996 137.16 695.884 137.16 693.219C137.16 690.554 138.183 683.751 138.183 683.751L150.471 677.81C150.471 677.81 155.624 680.603 155.821 677.81C156.019 675.011 158.665 670.187 154.786 669.937C150.907 669.687 149.803 666.352 149.803 666.352L148.395 650.285" stroke="#1E4C83" stroke-width="2" stroke-miterlimit="10"/>
<path d="M124.924 224.834C124.924 224.834 129.931 228.175 134.706 228.175C139.48 228.175 144.342 228.867 150.814 228.175C157.293 227.482 166.894 225.835 170.069 226.662C173.244 227.482 179.257 226.662 179.257 226.662C179.257 226.662 180.415 227.854 180.415 229.053V236.508L177.873 239.051H172.779L172.547 244.282L173.902 248.769L176.484 249.927C176.484 249.927 179.031 252.848 179.49 255.786C179.955 258.725 184.741 262.659 184.741 262.659C184.741 262.659 187.486 254.791 188.806 254.791C190.126 254.791 193.366 255.786 193.366 255.786C193.366 255.786 194.907 257.439 194.947 259.773C194.988 262.106 191.284 263.817 191.743 266.36C192.208 268.909 194.674 270.294 194.947 270.294C195.215 270.294 199.146 272.144 199.146 272.144C199.146 272.144 202.856 273.302 202.275 276.078C201.693 278.854 200.28 282.485 200.28 282.485L193.831 291.12L197.832 293.663C197.832 293.663 199.332 301.205 200.28 303.911C201.228 306.623 203.502 310.487 203.502 310.487C203.502 310.487 205.625 307.082 206.317 308.24C207.009 309.398 205.625 312.25 208.631 313.833C211.638 315.415 213.254 309.823 214.877 310.423C216.494 311.022 222.861 312.18 225.746 310.423C228.63 308.665 220.425 312.18 220.425 312.18" stroke="#1E4C83" stroke-width="2" stroke-miterlimit="10"/>
<path d="M160.166 178.141C160.166 178.141 174.018 191.165 178.089 190.711C182.165 190.257 183.096 193.545 182.764 185.788C182.433 178.031 178.211 173.137 182.764 172.863C187.323 172.59 189.213 172.072 191.825 175.051C194.436 178.025 194.761 180.486 194.436 181.837C194.11 183.187 199.542 183.105 199.542 183.105L204.159 190.711C204.159 190.711 211.894 200.83 215.022 200.027C218.145 199.224 223.321 201.395 223.321 201.395L228.63 203.373L231.584 199.504C231.584 199.504 236.754 203.996 237.749 203.373C238.743 202.751 251.758 190.705 251.758 190.705L249.816 167.422H244.751C244.751 167.422 243.733 170.955 241.866 170.681C239.999 170.408 237.83 163.89 234.027 164.158C230.224 164.431 230.288 173.084 228.624 169.302C226.961 165.52 222.652 155.912 223.315 152.968C223.978 150.029 224.251 153.288 219.907 149.755C215.563 146.223 222.053 145.135 216.499 139.973C210.946 134.812 215.016 131.821 215.016 130.465C215.016 129.109 216.778 123.558 216.778 123.558" stroke="#1E4C83" stroke-width="2" stroke-miterlimit="10"/>
<path d="M242.878 253.855C242.878 253.855 239.383 255.292 236.435 255.792C233.486 256.293 234.638 258.795 228.63 258.085C222.623 257.375 221.535 259.639 218.279 255.792C215.022 251.946 215.237 252.947 209.969 253.127L204.7 253.302V260.75L194.953 258.725" stroke="#1E4C83" stroke-width="2" stroke-miterlimit="10"/>
<path d="M227.583 543.538H275.712" stroke="#1E4C83" stroke-width="2" stroke-miterlimit="10"/>
<path d="M85.1235 472.527C85.1235 472.527 90.8924 470.107 93.2535 469.577C95.6145 469.047 99.8481 469.583 99.8481 468.407C99.8481 467.232 99.4469 458.148 99.8481 456.129C100.249 454.11 107.176 452.474 108.153 451.98C109.13 451.485 112.7 448.052 114.747 449.262C116.794 450.473 120.627 452.09 120.627 453.097C120.627 454.104 123.15 460.761 123.15 460.761H125.709L133.136 453.912C133.136 453.912 133.851 451.008 138.241 450.473C142.632 449.931 146.395 455.477 149.948 455.186C153.501 454.895 163.73 456.932 163.73 456.932" stroke="#1E4C83" stroke-width="2" stroke-miterlimit="10"/>
<path d="M723.603 0.203125V266.354L715.484 268.88C715.484 268.88 716.583 272.511 717.886 275.042C719.148 277.568 715.368 280.251 715.368 280.251L711.425 279.302C711.425 279.302 708.901 278.668 708.901 280.879C708.901 283.09 704.016 285.93 704.33 287.449C704.644 288.973 709.378 287.978 712.216 290.033C715.054 292.087 710.006 309.131 710.006 309.917C710.006 310.702 715.211 314.491 715.211 314.491L715.368 317.802C715.525 321.113 710.163 319.85 710.163 327.461C710.163 335.073 709.215 336.266 707.796 344.599C706.377 352.932 696.602 349.993 696.759 353.939C696.916 357.884 701.964 360.41 701.964 360.41C701.964 360.41 698.649 363.878 691.711 364.826C684.773 365.769 674.521 377.448 672.788 379.974C671.049 382.499 658.435 390.704 658.435 395.528C658.435 400.352 652.44 395.912 652.283 409.168C652.126 422.424 651.335 416.739 648.026 417.53C644.711 418.322 640.611 425.107 637.459 431.578C634.301 438.049 624.683 446.888 619.478 449.885C614.273 452.882 594.408 464.247 593.617 464.247C592.826 464.247 594.879 459.987 595.664 459.83C596.449 459.673 598.659 456.99 598.659 456.99C598.659 456.99 611.278 449.099 619.635 445.916C627.992 442.739 622.316 441.209 622.787 437.42C623.258 433.638 625.945 433.161 629.097 431.584C632.254 430.001 633.673 422.902 635.249 420.062C636.825 417.222 641.873 411.223 642.03 408.354C642.187 405.485 639.814 406.486 637.296 406.486C634.778 406.486 631.777 409.954 631.463 410.902C631.149 411.845 630.044 410.588 629.254 409.797C628.468 409.005 623.892 405.374 623.578 400.8C623.264 396.227 619.792 393.224 619.635 397.803C619.478 402.377 619.635 398.746 619.635 404.746C619.635 410.74 623.578 410.425 623.578 410.425C623.578 410.425 621.374 415.005 619.007 419.579C616.64 424.159 617.588 424.63 617.588 426.05C617.588 427.47 608.283 433.941 606.707 434.412C605.125 434.883 596.612 439.777 596.612 443.717C596.612 447.656 586.348 454.203 585.109 454.762C583.864 455.32 590.104 467.447 590.104 467.447C590.104 467.447 578.485 484.835 578.485 488.623C578.485 492.412 568.477 504.085 561.882 510.23C555.287 516.375 543.314 524.993 542.488 525.796C541.656 526.599 534.625 536.998 534.625 537.615C534.625 538.232 519.319 545.709 519.319 545.709L508.561 550.661H498.378C496.471 550.661 486.736 542.73 483.427 543.568C480.118 544.412 477.53 548.788 469.667 547.502C461.805 546.216 464.893 543.568 464.893 543.568C464.893 543.568 458.083 540.315 455.524 540.315C452.966 540.315 448.034 533.111 448.034 533.111C448.034 533.111 440.294 529.142 427.936 529.171C415.578 529.2 409.6 513.081 409.6 513.081C411.304 523.742 410.042 521.496 408.92 523.602C407.797 525.703 408.64 530.265 411.164 533.111C413.688 535.956 420.841 544.569 429.401 546.652C437.962 548.729 438.101 551.959 441.608 556.172C445.115 560.379 445.952 563.33 443.289 565.436C440.625 567.537 436.415 572.029 436.415 573.717C436.415 575.405 435.292 579.751 439.084 584.808C442.876 589.865 445.679 589.726 449.61 589.726C453.541 589.726 456.769 591.64 454.803 600.02C452.838 608.399 449.889 617.663 444.981 622.86C440.067 628.056 437.683 632.671 433.193 638.927C428.704 645.182 428.704 642.511 428.704 646.305C428.704 650.094 430.844 650.076 420.934 655.773C411.031 661.47 406.704 664.42 400.586 664.7C394.468 664.979 390.973 665.677 383.39 667.365C375.807 669.052 375.528 670.862 371.038 672.695C366.549 674.528 361.559 675.791 351.144 675.791C340.728 675.791 317.187 676.774 311.419 674.947C305.65 673.12 310.558 663.751 305.65 663.943C300.736 664.135 299.195 668.069 299.195 671.438C299.195 674.808 300.596 677.333 303.684 683.373C306.766 689.408 309.575 691.375 309.575 697.834C309.575 704.293 308.831 704.154 305.062 705.416C301.294 706.679 300.177 715.245 300.177 715.245C300.177 715.245 299.061 726.197 300.177 726.901C301.288 727.605 304.097 729.292 304.097 731.958C304.097 734.629 301.149 739.68 295.258 742.77C289.361 745.86 286.418 750.631 280.242 750.492C274.066 750.352 260.918 747.262 254.934 744.737C250.642 742.927 249.258 739.674 246.809 737.876L234.225 755.252C235.144 759.785 236.01 764.754 235.621 769.386C234.917 777.731 236.854 781.38 236.854 781.38C236.854 781.38 242.663 778.715 245.175 782.363C247.688 786.012 247.263 785.738 247.827 787.699C248.385 789.666 249.787 790.929 252.596 789.946C255.405 788.962 258.911 790.37 259.051 786.297C259.19 782.224 262.139 777.731 263.68 777.731C265.227 777.731 269.013 774.176 269.013 779.884C269.013 785.593 269.571 788.264 270.275 791.633C270.972 795.002 269.013 798.372 266.343 800.478C263.68 802.585 257.364 805.675 257.364 805.675C257.364 805.675 257.26 796.131 254.928 795.288C252.59 794.444 246.559 791.075 244.594 793.885C242.628 796.696 237.743 796.835 236.958 796.975C236.173 797.115 235.359 801.328 236.958 801.468C238.557 801.613 247.257 808.631 248.659 808.631C250.06 808.631 246.525 811.581 246.525 811.581C246.525 811.581 232.928 821.148 232.515 826.473C232.102 831.797 226.351 836.01 229.858 838.256C233.364 840.503 232.515 846.962 232.515 846.962C232.515 846.962 233.085 856.651 231.544 858.053C229.997 859.456 227.921 860.439 224.891 862.685C221.861 864.931 220.826 867.882 222.257 869.424C223.682 870.966 226.909 869.144 226.909 871.67C226.909 874.196 228.125 878.548 222.257 877.285C216.389 876.017 212.458 874.056 209.794 875.319C207.125 876.581 202.467 875.883 202.694 879.392C202.915 882.901 206.846 883.745 200.531 883.745C194.215 883.745 187.835 891.775 187.835 891.775C187.835 891.775 184.055 898.397 183.172 900.83C182.288 903.262 180.828 911.968 180.828 911.968C180.828 911.968 178.862 920.388 183.172 925.445C187.481 930.496 196.041 932.184 196.041 932.184C196.041 932.184 192.813 940.33 200.81 940.61C208.806 940.895 214.203 940.33 217.186 941.314C220.169 942.297 223.961 939.068 225.223 943.42C226.49 947.767 223.961 947.767 223.821 953.807C223.682 959.848 227.473 961.25 222.28 962.373C217.087 963.496 210.452 966.482 211.475 967.709C212.499 968.937 220.879 964.195 223.263 966.022C225.647 967.849 220.035 973.028 220.035 973.459C220.035 973.889 215.406 984.277 208.108 988.629C200.815 992.982 199.414 991.58 196.745 995.932C194.081 1000.29 190.022 1004.64 187.841 1012.36C185.661 1020.08 185.16 1027.94 185.16 1027.94C185.16 1027.94 189.952 1031.74 183.177 1037.35C176.402 1042.97 170.488 1046.06 170.488 1046.06L160.689 1055.47C160.689 1055.47 159.003 1058 159.003 1062.77C159.003 1067.54 155.857 1072.04 155.955 1074.71C156.054 1077.38 159.282 1078.64 159.282 1078.64C159.282 1078.64 155.537 1084.33 158.322 1087.94C161.102 1091.56 170.04 1095.35 170.482 1098.02C170.924 1100.69 178.362 1107.71 178.083 1115.15C177.804 1122.59 175.699 1123.99 175.699 1125.4C175.699 1126.81 180.188 1132.7 182.293 1137.05C184.399 1141.41 179.322 1138.06 177.943 1140.42C176.565 1142.79 182.799 1147.73 183.177 1147.73C183.555 1147.73 185.521 1153.33 194.221 1161.76C202.921 1170.19 205.165 1170.89 209.236 1173.7C213.307 1176.51 214.011 1180.3 217.796 1181C221.588 1181.7 227.479 1183.67 228.183 1185.07C228.886 1186.48 229.59 1190.27 234.219 1189.01C238.848 1187.74 240.11 1183.95 242.215 1185.21C244.32 1186.48 248.083 1191.67 243.605 1193.7C239.127 1195.74 233.004 1196.58 229.049 1197.71C225.095 1198.83 222.146 1200.23 222.146 1200.23L218.215 1201.49C218.215 1201.49 204.468 1199.11 200.397 1199.11C197.826 1199.11 192.121 1198.94 187.841 1198.92C187.841 1198.92 186.19 1203.08 186.236 1207.82C186.283 1212.56 182.561 1212.97 179.269 1211.53C175.972 1210.09 175.152 1211.74 172.285 1212.35C169.424 1212.97 179.269 1223.06 171.145 1218.32C163.021 1213.59 160.951 1214.41 154.35 1212.56C147.75 1210.7 147.57 1207.2 156.223 1205.27C164.882 1203.33 155.595 1203.49 161.451 1198.75C167.307 1194.02 154.35 1198.75 154.35 1198.75C154.35 1198.75 146.337 1196.49 138.649 1196.89C132.665 1197.19 123.203 1201.15 120.557 1202.4C121.953 1200.56 115.143 1192.21 123.279 1189.78C131.926 1187.19 136.043 1193.6 136.863 1193.34C137.683 1193.08 138.713 1189.9 141.801 1184.75C144.889 1179.6 141.801 1184.75 157.241 1184.75H159.433H159.706C162.172 1184.75 165.673 1190.82 165.673 1190.82C165.673 1190.82 166.906 1188.24 171.134 1184.54C175.361 1180.83 166.481 1180.21 166.481 1180.21C166.481 1180.21 158.264 1178.57 151.419 1177.74C144.581 1176.91 149.826 1174.44 149.826 1166.13C149.826 1157.81 156.206 1160.03 160.596 1155.87C164.987 1151.7 162.998 1151.99 157.892 1151.79C152.786 1151.58 154.56 1153.44 150.03 1155.29C145.499 1157.15 146.942 1154.06 143.185 1152.61C139.428 1151.17 138.091 1144.17 145.337 1144.37C152.582 1144.58 141.382 1136.55 143.441 1134.49C145.499 1132.43 143.441 1134.49 149.82 1135.72C156.2 1136.95 147.965 1130.36 159.491 1124.47C171.017 1118.57 172.535 1126.36 172.535 1126.36L175.972 1142.67C174.989 1133.2 174.024 1123.44 174.303 1121.45C174.838 1117.66 170.064 1113.73 169.645 1113.73C169.389 1113.73 166.01 1112.76 161.428 1111.93C161.428 1111.93 158.648 1115.11 155.932 1119.12C153.216 1123.13 150.838 1125.22 145.982 1126.99C141.126 1128.77 138.073 1132.84 133.136 1135.1C128.193 1137.37 130.868 1138.81 130.914 1145.61C130.961 1152.4 135.096 1150.84 133.136 1154.46C131.176 1158.07 131.694 1165.58 130.048 1170.52C128.402 1175.47 122.639 1169.91 120.58 1167.16C118.522 1164.4 108.234 1166.41 105.763 1164.35C103.297 1162.29 102.058 1154.88 106.588 1154.05C111.119 1153.22 110.299 1161.46 112.561 1161.74C114.829 1162.03 114.416 1162.29 115.405 1155.7C116.393 1149.1 122.447 1147.87 125.122 1143.34C127.797 1138.8 124.919 1138.8 121.418 1136.24C117.923 1133.67 116.068 1129.95 111.95 1129.8C107.833 1129.66 106.804 1128.51 104.443 1131.8C102.082 1135.1 99.8019 1131.19 96.5104 1135.51C93.2189 1139.83 93.8353 1123.77 94.2482 1116.77C94.6611 1109.77 91.5731 1108.32 91.5731 1103.17C91.5731 1098.02 85.6065 1101.94 84.7807 1098.65C83.9608 1095.35 80.6692 1097.83 77.2963 1098.03C73.9292 1098.23 77.1684 1102.15 80.2563 1104.41C83.3443 1106.68 80.0528 1111.41 79.0235 1107.71C77.9941 1104 75.732 1106.88 72.0275 1109.37C68.3231 1111.86 66.061 1109.56 66.061 1107.29C66.061 1105.02 65.6481 1101.73 68.7244 1099.92C71.8008 1098.11 66.4738 1096.17 64.4152 1097.61C62.3565 1099.05 57.8322 1096.99 58.0764 1095.35C58.3265 1093.7 57.4193 1087.73 55.3606 1089.89C53.302 1092.05 46.7189 1084.02 49.5975 1084.02C52.482 1084.02 54.3313 1081.56 60.6061 1082.79C66.8751 1084.03 61.5366 1079.91 63.7988 1078.88C66.061 1077.85 65.3631 1073.13 65.3631 1073.13L64.8397 1067.57C64.8397 1067.57 59.2686 1069.82 59.4721 1074.56C59.6756 1079.29 58.2334 1078.05 55.9712 1076.99C53.709 1075.92 46.7131 1071.05 48.9753 1068.79C51.2375 1066.52 48.9753 1068.79 55.9712 1068.58C62.9672 1068.38 44.6486 1064.67 44.6486 1064.67C44.6486 1064.67 39.0891 1059.73 42.7063 1059.32C46.3235 1058.91 48.353 1060.15 53.709 1060.76C59.065 1061.38 54.3255 1059.12 52.4704 1057.61C50.6211 1056.1 47.1202 1055.61 53.709 1055.61C60.2979 1055.61 55.349 1050.05 49.3824 1050.05C43.4158 1050.05 46.7073 1045.11 47.7366 1043.05C48.7659 1040.99 49.3824 1041.61 49.3824 1039.76C49.3824 1037.9 51.0281 1041.4 58.972 1041.91C66.9158 1042.42 55.5583 1036.76 55.5583 1036.76C55.5583 1036.76 52.8832 1036.67 49.7953 1035.22C46.7073 1033.78 50.8246 1029.46 50.8711 1028.84C50.9176 1028.22 45.678 1028.43 45.678 1033.99C45.678 1039.55 43.4158 1035.22 42.7063 1033.99C41.9968 1032.76 39.7055 1016.69 40.5313 1016.69C41.3571 1016.69 41.1478 1012.16 42.7063 1011.97C44.259 1011.78 44.0264 1009.28 46.4979 1009.85C48.9695 1010.43 45.2651 1004.13 46.9108 1003.51C48.5566 1002.89 44.2357 995.269 38.4727 1000.01C32.7096 1004.74 31.6803 994.646 31.6803 991.603C31.6803 988.554 34.3554 990.73 42.7063 990.526C50.307 990.34 47.5563 995.438 52.1272 994.961L49.1788 979.645C48.6089 978.225 48.3589 975.99 45.8815 976.933C41.5607 978.58 43.8228 982.496 40.1184 984.143C36.414 985.79 31.0639 981.466 31.0639 981.466C31.0639 981.466 27.7723 977.346 32.0932 975.699C36.4198 974.052 26.743 971.579 33.9483 972.406C41.1536 973.226 27.1559 967.256 32.919 967.256C38.682 967.256 34.3612 960.872 37.6527 960.872C40.9442 960.872 28.5923 959.225 35.7976 955.932C42.9971 952.638 32.9132 952.842 29.4181 951.195C25.923 949.548 18.7119 952.428 18.7119 952.428C18.7119 952.428 12.3324 949.752 14.5946 945.632C16.8568 941.512 11.7102 944.398 5.7436 951.398C-0.228823 958.399 11.7102 960.046 11.7102 960.046C11.7102 960.046 9.44801 962.513 6.97646 962.926C4.50491 963.339 2.65562 960.04 1.38786 956.129C0.120101 952.219 2.24272 948.716 7.59289 942.798C12.9431 936.88 15.6181 934.092 18.2932 931.212C20.9683 928.331 19.5261 927.714 15.8217 929.006C12.1173 930.304 10.4715 929.978 10.4715 926.684C10.4715 923.391 14.5888 922.978 24.8821 922.978C35.1753 922.978 26.1208 935.541 26.3243 937.846C26.5278 940.15 23.6492 940.074 28.5865 941.931C33.5296 943.781 31.878 935.343 38.4669 936.781C45.0557 938.218 36.2047 949.961 38.4669 948.518C40.7291 947.075 44.2299 937.398 46.2886 937.846C48.3472 938.294 47.9402 933.074 44.4393 929.012C40.9384 924.956 43.6135 925.864 43.6135 919.277C43.6135 912.683 51.0223 911.653 49.993 910.42C48.9695 909.186 43.8229 908.36 44.4393 904.81C45.0557 901.26 46.9108 900.952 50.8188 900.859C54.7267 900.766 58.0182 901.569 60.5887 901.627C63.1532 901.685 58.844 899.299 55.3432 899.003C51.8423 898.706 47.725 899.299 44.4335 896.209C41.142 893.119 48.5508 888.796 50.1965 885.886C51.8423 882.977 56.7854 879.73 59.0476 875.406C61.3098 871.082 58.059 864.699 58.059 864.699C58.059 864.699 53.4939 863.872 53.6974 867.375C53.9009 870.879 46.2886 865.729 45.4628 865.315C44.6428 864.908 42.5842 860.788 42.5842 856.255C42.5842 851.728 44.6428 855.638 46.7015 848.51C48.7601 841.381 42.5842 837.104 42.5842 836.278C42.5842 835.451 40.7349 831.337 47.1144 832.012C53.4939 832.687 45.2593 822.481 48.7601 822.492C52.2552 822.504 54.9361 830.307 59.8734 830.511C64.8106 830.715 53.9068 823.097 53.081 822.492C52.261 821.887 46.4979 821.451 45.6721 813.211C44.8522 804.971 47.5273 806.827 47.5273 806.827L50.6152 808.474V805.593C50.6152 805.593 47.9402 802.713 47.7366 800.857C47.5273 799.006 47.7366 800.857 49.5859 797.563C51.4352 794.269 53.0868 801.27 54.3197 797.563C55.5525 793.856 53.2903 793.03 49.7895 791.796C46.2944 790.562 45.2651 790.359 44.8522 787.746C44.4393 785.133 47.1144 782.736 51.4352 781.292C55.7561 779.855 57.8147 775.939 55.5525 774.705C53.2903 773.472 53.9068 776.562 48.5566 778.912C43.2064 781.263 41.5607 775.322 39.0891 775.322C36.6176 775.322 34.5647 782.323 32.7096 784.383C30.8603 786.442 22.6257 785.412 27.3594 779.925C32.0932 774.438 26.3301 779.029 19.9506 778.907C13.5711 778.784 16.4498 773.256 15.8333 769.427C15.2169 765.598 13.1582 757.806 13.1582 757.806C13.1582 757.806 14.1876 751.626 14.1876 742.118C14.1876 732.609 19.9506 725.673 23.8644 726.435C27.7782 727.197 23.4515 719.702 21.6022 718.259C19.7529 716.816 21.3987 717.02 21.3987 707.308C21.3987 697.595 20.9858 698.486 20.9858 693.737C20.9858 688.989 22.6315 691.485 22.6315 686.673C22.6315 681.86 14.1934 680.359 13.3676 679.178C12.5418 677.997 12.9547 671.712 14.3969 667.592C15.8391 663.472 13.3676 661.004 11.7218 660.591C10.0761 660.178 5.95877 656.058 5.95877 656.058C5.95877 656.058 4.7259 647.615 4.7259 644.111C4.7259 640.608 1.02149 637.518 1.43438 634.004C1.84146 630.489 7.40098 630.931 11.6346 634.004C15.8682 637.076 13.9898 632.368 15.2227 629.11C16.4556 625.851 11.7218 619.223 11.7218 619.223C11.7218 619.223 10.6983 614.038 15.6356 614.818C20.5787 615.598 19.2063 615.068 19.2063 610.948C19.2063 606.834 21.1428 605.914 21.1428 605.914V596.418C21.1428 590.849 21.387 594.235 25.4985 585.536C29.6158 576.836 25.4985 578.25 25.4985 572.786C25.4985 567.322 25.7428 566.379 37.6004 550.638C49.458 534.897 37.3561 546.763 38.81 535.927C40.2638 525.086 40.7465 524.964 45.8292 512.977C50.9118 500.995 43.8926 507.041 43.41 505.831C42.9273 504.62 40.7465 500.023 40.7465 493.238C40.7465 486.453 48.4926 490.573 49.2195 481.035C49.9465 471.497 44.8638 473.371 43.8926 461.238C42.9215 449.099 41.7119 450.124 41.7119 438.52C41.7119 426.917 35.1812 425.41 34.9369 415.482C34.6927 405.549 33.0004 406.521 33.0004 406.521C33.0004 406.521 33.9657 399.253 40.0196 397.315C46.0734 395.377 39.2927 394.65 44.6196 387.905C49.9407 381.155 42.4388 383.995 42.4388 375.254C42.4388 366.514 41.2292 372.368 38.083 362.435C34.9369 352.501 32.2735 360.008 38.083 350.081C43.8926 340.147 42.4388 340.63 43.41 332.576C44.3753 324.523 43.8926 324.162 50.1849 312.157C56.483 300.152 47.283 310.12 47.283 297.766C47.283 285.412 49.2195 298.005 52.1214 287.46C55.0291 276.91 54.3022 279.599 54.3022 257.556C54.3022 235.513 58.6579 237.695 60.3793 235.03C62.0948 232.365 62.2868 230.91 59.1406 225.318C55.9945 219.72 58.0764 204.654 58.0764 204.654C58.0764 204.654 57.931 195.064 58.0764 189.733C58.2218 184.403 58.6579 178.351 58.0764 175.546C57.4949 172.747 52.1214 174.475 52.1214 174.475V167.207C52.1214 161.394 53.8137 156.791 54.5406 156.791C55.2676 156.791 58.8964 158.915 58.8964 158.915C58.8964 158.915 61.8041 158.246 64.2233 148.557C66.6425 138.868 63.2579 131.361 67.3694 113.194C71.4867 95.0264 64.2233 99.094 64.2233 99.094C64.4036 86.4839 63.95 88.7534 63.95 82.4047C63.95 76.056 63.0428 60.1929 63.0428 58.8312C63.0428 57.4695 60.862 37.5273 60.1409 36.1656C59.4198 34.8039 54.436 12.5921 54.436 11.2304V0" stroke="#1E4C83" stroke-width="2" stroke-miterlimit="10"/>
<path d="M125.715 1203.31C125.872 1203.25 125.989 1203.16 126.076 1203.04C125.326 1203.4 125.122 1203.54 125.715 1203.31Z" fill="#F2F2F2" stroke="#1E4C83" stroke-width="2" stroke-miterlimit="10"/>
<path d="M438.962 394.638C438.962 394.638 445.935 395.441 450.25 395.953C454.565 396.465 459.392 393.858 460.659 392.874C461.927 391.891 476.146 402.651 480.211 407.94C484.27 413.23 485.823 416.279 489.62 417.041C493.418 417.804 492.4 420.725 494.685 421.679C496.971 422.634 502.303 415.01 503.315 419.835C504.333 424.659 505.857 431.776 507.124 432.788C508.392 433.806 518.552 439.69 524.896 439.032C531.241 438.374 540.383 450.315 540.383 450.315C540.383 450.315 549.269 460.476 549.269 463.019C549.269 465.556 550.03 471.404 553.078 475.722C556.125 480.04 557.393 479.906 557.393 483.781C557.393 487.663 548.507 495.536 548.507 503.159C548.507 510.782 552.298 517.992 552.298 517.992" stroke="#1E4C83" stroke-width="2" stroke-miterlimit="10"/>
<path d="M296.659 126.781L310.209 84.8832V67.2046L327.667 35.0188L379.825 26.2377H410.571L436.973 44.7019V54.5305L439.055 59.8899L444.115 71.505V76.5095L446.196 82.2239V88.1827L441.05 99.7628C441.05 99.7628 440.788 120.159 447.61 124.966C454.425 129.766 451.337 133.886 455.798 134.399C460.258 134.916 469.859 135.946 477.059 135.946C484.258 135.946 490.091 130.453 491.12 130.453C492.15 130.453 495.872 135.26 498.808 135.946C501.751 136.633 512.038 134.916 512.038 141.091C512.038 147.265 516.836 148.638 516.836 161.335C516.836 174.033 515.464 179.52 516.836 183.64C518.209 187.76 521.297 191.944 526.094 191.397C530.898 190.85 537.143 189.25 537.143 189.25L547.355 192.689V206.504C547.355 211.438 543.994 217.874 543.959 225.981C543.924 234.087 539.551 239.743 539.551 239.743" stroke="#1E4C83" stroke-width="2" stroke-miterlimit="10"/>
<path d="M158.45 147.422L144.935 149.715L138.236 148.568L134.712 136.563L132.857 128.859L128.199 117.977V113.898L122.895 107.549V93.0417L117.458 85.3372H112.474V77.6326L104.041 68.5605L108.153 65.3891L106.129 61.3098L104.041 57.2306H109.752L108.153 47.2565L115.009 35.013L104.041 23.6831L99.331 19.15L94.5 0.499695" stroke="#1E4C83" stroke-width="2" stroke-miterlimit="10"/>
<path d="M436.973 54.5247L447.987 50.0556L439.951 40.227C445.307 29.2055 450.663 19.9763 450.663 19.9763V0.662476" stroke="#1E4C83" stroke-width="2" stroke-miterlimit="10"/>
<path d="M217.802 1202.14C217.802 1202.14 204.049 1199.75 199.984 1199.75C195.919 1199.75 183.986 1199.34 182.305 1199.75C180.619 1200.17 179.077 1200.88 179.077 1191.05C179.077 1181.22 177.397 1166.61 177.397 1162.41C177.397 1158.19 173.378 1125.9 173.913 1122.11C174.448 1118.32 169.68 1114.39 169.255 1114.39C168.831 1114.39 159.858 1111.73 151.018 1111.45C142.173 1111.16 136.142 1111.73 132.775 1111.45C129.408 1111.16 127.867 1111.29 118.184 1111.37C108.502 1111.45 107.24 1113.97 106.117 1112.01C104.995 1110.05 104.879 1106.96 101.151 1104.71C97.4234 1102.46 96.1556 1103.92 95.8765 1100.6C95.5973 1097.27 95.1728 1091.09 94.6145 1085.9C94.0504 1080.7 95.1728 1082.75 95.3182 1077.65C95.4578 1072.55 96.5801 1071.99 92.3698 1071.29C88.1594 1070.59 85.9147 1071.57 83.9491 1073.12C81.9835 1074.66 76.9357 1085.19 75.3888 1084.35C73.8477 1083.5 75.5284 1076.35 73.2836 1074.24C71.0389 1072.13 67.5322 1070.73 64.3047 1064.41C61.0771 1058.09 62.9031 1052.62 62.7636 1043.07C62.624 1033.52 63.8103 1038.3 62.3739 1032.54C60.9375 1026.79 58.1345 1026.5 60.9375 1026.08C63.7406 1025.66 67.9509 1025.38 67.9509 1025.38C67.9509 1025.38 69.3524 1023.83 70.3352 1018.5C71.318 1013.16 71.318 1011.9 73.4232 1009.37C75.5284 1006.85 78.4768 1005.02 78.6164 1003.05C78.7559 1001.09 83.385 995.612 82.2626 993.505C81.1403 991.399 78.4768 993.226 78.4768 986.906C78.4768 980.587 74.691 980.587 74.691 977.218C74.691 973.848 73.429 972.446 77.6394 965.707C81.8497 958.969 84.7981 959.108 84.7981 955.175C84.7981 951.241 83.1117 948.576 83.1117 945.905C83.1117 943.234 88.4037 935.797 88.4037 935.797C88.4037 935.797 82.2684 924.705 82.2684 923.018C82.2684 921.33 89.4214 922.593 89.4214 917.821C89.4214 913.05 83.2454 914.592 83.2454 909.256C83.2454 903.919 87.3162 901.493 87.3162 901.493C87.3162 901.493 84.7109 899.572 88.3979 896.343C92.0848 893.113 95.0332 892.694 90.9625 890.023C86.8917 887.358 88.1536 883.145 83.9491 883.285C79.7387 883.424 80.1633 886.514 77.7731 885.67C75.3888 884.827 70.8993 882.72 70.7598 880.334C70.6202 877.948 71.0389 876.546 73.4232 876.686C75.8075 876.825 81.8439 879.636 83.385 877.669C84.9261 875.702 87.1476 873.596 90.0378 875.144C92.9281 876.686 92.6489 877.948 93.3468 871.914C94.0504 865.879 93.9051 865.879 90.6833 865.879C87.4558 865.879 77.2846 867.421 76.895 866.584C76.5112 865.74 76.581 859.28 76.895 856.615C77.209 853.95 78.3314 853.06 78.0523 849.149C77.7731 845.239 80.5762 846.083 78.8955 843.132C77.209 840.182 73.2836 837.092 72.7195 836.109C72.1613 835.125 72.4404 832.32 72.8591 830.068C73.2778 827.822 74.8247 824.953 72.0159 825.192C69.207 825.436 68.6488 826.007 68.6488 823.126C68.6488 820.246 71.7367 819.477 67.1077 817.825C62.4786 816.172 61.775 817.295 62.1995 812.238C62.6182 807.182 66.4098 806.047 65.9853 803.527C65.5666 801.007 59.6582 797.917 59.7338 794.967C59.8094 792.017 72.8591 791.173 72.58 787.245C72.3008 783.317 67.3868 782.334 67.2473 777.696C67.1077 773.064 68.2301 770.957 67.3868 769.415C66.5436 767.873 65.0025 765.446 65.0025 761.955C65.0025 758.463 64.2988 752.569 63.601 748.775C62.8973 744.98 64.3047 744.09 64.3047 740.814C64.3047 737.544 68.7942 735.577 65.7062 731.922C62.6182 728.274 60.3734 729.758 60.6584 727.121C60.9375 724.485 69.1489 721.96 68.9046 719.149C68.6546 716.344 62.624 717.182 62.7636 711.427C62.9031 705.672 69.6374 708.762 69.6374 706.655C69.6374 704.549 72.4462 696.827 72.4462 692.334C72.4462 687.842 70.6202 685.433 73.5686 683.757C76.517 682.081 80.7448 680.242 80.7448 680.242C80.7448 680.242 83.3908 673.096 83.3908 669.308C83.3908 665.514 78.7617 664.676 78.343 664.251C77.9243 663.832 77.7789 658.124 77.7789 656.692C77.7789 655.266 71.7426 647.119 70.4806 644.873C69.2187 642.627 72.0217 639.752 72.0217 637.681C72.0217 635.609 71.0389 634.067 70.8993 628.591C70.7598 623.115 68.2359 616.999 70.341 612.967C72.4462 608.934 72.1671 605.565 72.4462 603.319C72.7254 601.072 73.2895 602.475 77.4998 599.245C81.7102 596.016 81.0065 586.606 84.5132 587.875C88.0199 589.137 90.0436 589.3 90.0436 589.3C90.0436 589.3 86.8103 579.763 86.7812 578.482C86.7579 577.202 92.2302 568.497 85.6356 566.39C79.0409 564.284 80.582 562.177 83.1117 558.947C85.6356 555.718 87.0894 557.202 86.787 553.373C86.4846 549.544 86.316 540.448 90.0494 537.131C93.7829 533.814 95.7427 532.878 96.3068 529.84C96.8709 526.797 99.2552 528.484 99.2552 526.657C99.2552 524.83 97.9933 520.663 97.9933 512.359C97.9933 504.055 101.5 500.552 99.2552 498.865C97.0105 497.177 93.5096 502.234 92.5908 502.088C91.6778 501.949 88.8689 497.573 88.7294 490.776C88.5898 483.979 87.8396 478.271 87.8396 478.271C87.8396 478.271 84.519 473.726 82.9779 469.658C81.4368 465.591 76.802 460.953 78.0639 457.863C79.3258 454.773 82.8325 452.806 78.2035 449.437C73.5744 446.067 73.0103 446.655 72.5916 440.114C72.1729 433.568 68.8058 434.551 69.7828 429.36C70.7656 424.164 72.1671 420.655 73.8535 424.304C75.54 427.952 77.4998 429.221 77.4998 426.131C77.4998 423.041 78.0581 413.684 78.2035 409.028C78.343 404.367 75.9587 405.211 79.0467 402.685C82.1347 400.16 82.8325 400.8 85.0831 400.41C87.3278 400.02 89.8285 398.606 90.0494 395.871C90.2704 393.136 85.3622 388.783 85.3622 380.357C85.3622 371.931 85.0831 370.744 83.5362 367.898C81.9951 365.053 82.4138 362.527 85.9205 362.103C89.4272 361.684 92.0674 356.406 90.0494 354.055C88.0257 351.71 89.6889 350.167 90.0494 349.184C90.41 348.201 93.9225 347.7 93.9225 344.581C93.9225 341.462 91.8173 331.075 94.0621 330.929C96.3068 330.79 101.221 332.192 101.919 327.7C102.622 323.207 103.32 320.693 105.71 319.914C108.095 319.134 105.431 313.099 108.17 307.903C110.903 302.706 113.009 302.706 113.009 298.778C113.009 294.845 111.322 289.508 113.567 289.508C115.812 289.508 124.093 292.738 124.093 291.196C124.093 289.654 130.833 291.906 130.548 288.112C130.263 284.318 129.705 279.965 127.32 279.121C124.936 278.277 121.144 273.785 120.162 270.841C119.179 267.89 120.58 265.784 121.988 263.677C123.389 261.571 126.338 265.365 124.372 252.446C122.406 239.528 120.586 244.584 119.882 239.667C119.179 234.75 120.441 227.732 122.267 226.609C124.093 225.486 128.861 223.1 124.791 219.87C120.72 216.641 119.458 216.129 119.458 211.613C119.458 207.097 123.104 207.586 123.25 206.498C123.389 205.41 126.448 203.024 128.216 202.18C129.984 201.336 138.172 197.729 144.953 194.621C151.733 191.508 158.328 185.054 159.869 173.678C161.41 162.307 162.533 159.799 162.533 159.799C162.533 159.799 165.132 153.451 161.8 150.436C158.462 147.422 157.764 148.97 158.462 147.422C159.16 145.874 161.125 140.404 164.213 138.012C167.301 135.626 173.192 136.61 173.192 134.503C173.192 132.397 173.617 129.167 176.001 128.329C178.385 127.485 179.676 128.143 180.432 122.83C181.188 117.517 179.2 110.36 184.753 110.779C190.307 111.198 195.5 118.221 198.728 120.048C201.955 121.876 205.183 124.541 209.393 124.541C213.604 124.541 219.465 122.295 224.182 123.697C228.898 125.1 235.574 124.262 236.446 127.346C237.319 130.436 237.737 136.755 240.686 138.297C243.634 139.839 242.791 147.422 247.699 140.683C252.613 133.945 252.921 135.766 252.764 129.592C252.607 123.412 253.451 121.026 257.242 121.026C261.028 121.026 264.139 120.462 265.459 123.412C266.785 126.362 268.326 128.533 269.728 126.042C271.129 123.552 271.129 121.591 277.166 121.591C283.202 121.591 292.6 120.467 296.671 126.787C300.741 133.107 303.684 135.638 311.122 144.198C318.56 152.764 322.346 151.216 329.504 159.078C336.663 166.939 338.053 170.594 343.88 175.924C349.713 181.26 349.568 183.786 353.08 183.786C356.587 183.786 359.396 180.981 372.16 184.63C384.931 188.278 391.386 197.827 396.155 202.18C400.923 206.533 400.819 207.092 413.008 210.461C425.197 213.83 424.639 216.216 430.809 217.624C436.985 219.027 442.457 222.536 443.998 224.503C445.545 226.469 452.134 231.101 452.558 234.191C452.977 237.281 442.538 235.035 436.642 250.619C430.751 266.203 428.424 267.07 427.86 270.218C427.302 273.366 415.793 284.597 415.793 284.597C415.793 284.597 405.384 291.592 405.75 297.644C406.117 303.696 417.619 289.829 429.686 294.234C441.753 298.639 462.241 302.41 463.782 303.119C465.323 303.835 473.186 304.51 482.723 303.119C492.26 301.729 496.779 297.655 497.959 297.097C499.14 296.538 506.578 292.47 506.578 292.47C506.578 292.47 526.083 279.965 528.467 275.612C530.851 271.26 533.66 268.961 534.079 257.264C534.497 245.568 537.155 240.092 537.155 240.092C537.155 240.092 540.255 239.109 541.656 239.109C543.058 239.109 549.652 240.79 551.339 240.79C553.025 240.79 557.933 240.93 557.933 242.472C557.933 244.02 557.654 258.201 559.76 262.688C561.865 267.18 565.371 263.392 564.953 271.324C564.528 279.255 556.555 287.274 555.985 288.036C555.415 288.798 557.521 292.732 551.345 297.929C545.169 303.125 541.075 300.454 537.161 308.176C533.247 315.898 529.176 316.882 523.285 316.882C517.394 316.882 511.079 320.955 511.079 320.955C511.079 320.955 502.239 324.604 491.859 339.489C481.473 354.375 478.809 355.893 478.809 355.893L471.796 359.426C471.796 359.426 467.446 362.9 466.184 367.06C464.922 371.221 464.218 365.466 457.624 371.5C451.029 377.541 451.169 378.943 449.488 383.855C447.801 388.766 446.26 386.101 441.631 391.437C437.002 396.773 433.775 397.681 433.775 402.843C433.775 408.004 427.18 404.774 426.901 412.357C426.622 419.939 425.36 429.343 425.36 429.343C425.36 429.343 420.062 440.714 420.533 447.452C421.01 454.191 423.534 454.191 421.289 460.225C419.044 466.266 418.056 465.282 418.056 465.282C418.056 465.282 422.411 477.537 417.503 481.657C412.589 485.777 409.042 497.014 409.205 501.925C409.367 506.837 407.501 503.066 409.205 513.727C410.908 524.387 409.647 522.141 408.524 524.248C407.402 526.354 408.245 530.917 410.769 533.762C413.293 536.608 420.452 545.22 429.012 547.303C437.572 549.387 437.712 552.61 441.218 556.823C444.725 561.037 445.568 563.987 442.905 566.093C440.241 568.2 436.031 572.692 436.031 574.38C436.031 576.067 434.909 580.42 438.694 585.471C442.486 590.528 445.289 590.383 449.22 590.383C453.152 590.383 456.379 592.297 454.413 600.677C452.448 609.056 449.505 618.326 444.591 623.517C439.683 628.713 437.293 633.328 432.803 639.584C428.314 645.839 428.314 643.174 428.314 646.962C428.314 650.756 430.448 650.733 420.545 656.43C410.635 662.127 406.308 665.072 400.197 665.357C394.079 665.636 390.584 666.34 383 668.028C375.417 669.715 375.138 671.525 370.648 673.352C366.159 675.185 361.169 676.448 350.754 676.448C340.339 676.448 316.798 677.432 311.029 675.604C305.26 673.777 310.174 664.408 305.26 664.6C300.352 664.792 298.805 668.726 298.805 672.095C298.805 675.465 300.206 677.99 303.294 684.03C306.382 690.071 309.185 692.032 309.185 698.491C309.185 704.95 308.441 704.811 304.673 706.073C300.904 707.336 299.788 715.902 299.788 715.902C299.788 715.902 298.671 726.854 299.788 727.558C300.904 728.262 303.707 729.944 303.707 732.615C303.707 735.28 300.759 740.337 294.868 743.427C288.977 746.517 286.029 751.288 279.853 751.149C273.677 751.009 260.528 747.919 254.544 745.394C248.56 742.868 248.24 737.532 242.785 737.253C237.336 736.967 235.091 731.916 233.265 736.269C231.439 740.622 231.701 740.203 232.131 746.237C232.562 752.278 235.929 761.711 235.231 770.049C234.527 778.388 236.464 782.043 236.464 782.043C236.464 782.043 242.273 779.378 244.786 783.026C247.298 786.675 246.873 786.401 247.438 788.362C248.002 790.323 249.403 791.592 252.206 790.609C255.015 789.625 258.522 791.027 258.661 786.96C258.801 782.886 261.749 778.394 263.29 778.394C264.831 778.394 268.623 774.839 268.623 780.547C268.623 786.256 269.187 788.927 269.885 792.296C270.589 795.665 268.623 799.035 265.954 801.141C263.29 803.248 256.975 806.338 256.975 806.338C256.975 806.338 256.87 796.789 254.538 795.945C252.206 795.101 246.17 791.732 244.204 794.542C242.239 797.353 237.359 797.493 236.569 797.632C235.783 797.772 234.969 801.985 236.569 802.125C238.168 802.264 246.868 809.282 248.269 809.282C249.671 809.282 246.135 812.233 246.135 812.233C246.135 812.233 232.533 821.799 232.126 827.124C231.713 832.448 225.961 836.661 229.468 838.908C232.98 841.154 232.126 847.613 232.126 847.613C232.126 847.613 232.695 857.302 231.154 858.704C229.613 860.107 227.531 861.09 224.502 863.336C221.472 865.583 220.442 868.533 221.867 870.075C223.298 871.617 226.525 869.796 226.525 872.321C226.525 874.847 227.741 879.199 221.867 877.937C215.999 876.674 212.068 874.707 209.405 875.97C206.741 877.233 202.083 876.528 202.304 880.043C202.531 883.552 206.456 884.396 200.147 884.396C193.831 884.396 187.452 892.426 187.452 892.426C187.452 892.426 183.672 899.049 182.788 901.481C181.904 903.914 180.444 912.619 180.444 912.619C180.444 912.619 178.478 921.045 182.788 926.096C187.097 931.153 195.657 932.835 195.657 932.835C195.657 932.835 192.43 940.976 200.426 941.255C208.422 941.534 213.819 940.976 216.802 941.959C219.785 942.943 223.577 939.713 224.839 944.066C226.101 948.418 223.577 948.418 223.437 954.459C223.298 960.499 227.084 961.902 221.896 963.025C216.703 964.148 210.068 967.127 211.091 968.361C212.115 969.589 220.495 964.852 222.879 966.673C225.263 968.5 219.652 973.679 219.652 974.104C219.652 974.535 215.022 984.922 207.724 989.275C200.426 993.628 199.024 992.225 196.361 996.578C193.697 1000.93 189.632 1005.28 187.457 1013.01C185.277 1020.73 184.777 1028.59 184.777 1028.59C184.777 1028.59 189.568 1032.38 182.794 1038C176.019 1043.61 170.104 1046.7 170.104 1046.7L160.305 1056.11C160.305 1056.11 158.625 1058.64 158.625 1063.42C158.625 1068.19 155.479 1072.69 155.577 1075.35C155.676 1078.02 158.904 1079.29 158.904 1079.29C158.904 1079.29 155.159 1084.98 157.944 1088.59C160.73 1092.2 169.662 1095.99 170.104 1098.66C170.546 1101.33 177.984 1108.35 177.705 1115.79C177.426 1123.23 175.321 1124.63 175.321 1126.04C175.321 1127.44 179.81 1133.33 181.915 1137.69C184.021 1142.05 178.944 1138.7 177.565 1141.06C176.187 1143.42 182.415 1148.37 182.799 1148.37C183.177 1148.37 185.143 1153.98 193.843 1162.4C202.543 1170.83 204.787 1171.53 208.858 1174.34C212.929 1177.14 213.627 1180.93 217.418 1181.63C221.21 1182.34 227.101 1184.3 227.805 1185.71C228.508 1187.11 229.206 1190.9 233.841 1189.63C238.47 1188.37 239.732 1184.58 241.837 1185.85C243.942 1187.11 247.705 1192.3 243.227 1194.34C238.749 1196.37 232.626 1197.22 228.671 1198.34C224.717 1199.46 221.768 1200.87 221.768 1200.87L217.802 1202.14Z" stroke="#1E4C83" stroke-width="2" stroke-miterlimit="10"/>
<path d="M254.515 1192.45C254.846 1190.62 254.567 1190.65 258.213 1190.43C261.86 1190.21 266.349 1191.04 270.28 1189.64C274.212 1188.24 276.032 1192.45 273.787 1192.45C271.542 1192.45 266.913 1193.43 263.261 1194.34C259.615 1195.26 256.986 1196.24 254.509 1196.24C252.043 1196.24 254.515 1192.45 254.515 1192.45Z" stroke="#1E4C83" stroke-width="2" stroke-miterlimit="10"/>
<path d="M70.812 783.725L235.091 775.182" stroke="#1E4C83" stroke-width="2" stroke-miterlimit="10"/>
<path d="M85.0312 932.542L181.531 923.5" stroke="#1E4C83" stroke-width="2" stroke-miterlimit="10"/>
<path d="M286.499 749.13C286.499 749.13 275.712 741.437 275.712 740.814V714.843V525.935H323.415L342.542 500.674L357.151 487.087" stroke="#1E4C83" stroke-width="2" stroke-miterlimit="10"/>
<path d="M273.95 684.665L261.098 683.751C261.098 683.751 253.503 671.333 244.762 671.642C236.022 671.95 214.354 671.636 214.354 671.636H194.959C194.959 671.636 189.9 656.727 180.613 656.442C171.325 656.157 164.678 652.13 164.678 652.13L148.389 650.268L145.941 586.164L142.109 583.429L144.842 580.886L185.829 579.687L227.357 578.471L226.118 487.355L230.451 475.984L231.689 460.4H222.094C222.094 460.4 225.496 454.086 220.547 451.98C215.592 449.873 214.173 446.073 212.097 446.58C210.021 447.086 203.833 446.073 201.664 446.58C199.495 447.086 197.541 448.634 194.959 448.942C192.377 449.251 198.571 449.251 192.377 449.251C186.184 449.251 177.519 446.399 172.256 446.434C166.993 446.463 167.272 446.405 163.73 446.434C160.183 446.463 162.015 452.544 163.73 456.938C165.446 461.331 169.976 470.816 168.796 475.984C167.615 481.151 169.499 486.615 170.738 492.906C171.977 499.197 171.948 504.655 176.286 506.843C180.618 509.031 183.689 507.192 182.776 510.899C181.863 514.606 178.763 509.945 180.624 520.64C182.479 531.33 181.258 535.939 183.107 538.284C184.957 540.623 188.824 543.533 188.824 543.533C188.824 543.533 185.986 573.181 185.835 579.693" stroke="#1E4C83" stroke-width="2" stroke-miterlimit="10"/>
<path d="M177.74 447.033C177.74 447.033 172.25 437.839 170.075 432.672C167.9 427.504 171.901 418.781 169.168 411.728C166.429 404.676 162.515 403.849 159.607 400.946C156.705 398.042 155.048 394.841 148.407 388.557C141.771 382.272 129.257 373.974 129.257 373.974L113.764 371.314C113.764 371.314 115.201 370.651 115.009 364.43C114.811 358.204 115.62 347.182 115.009 346.263C114.398 345.343 113.933 348.247 108.153 342.853C102.372 337.458 97.0394 337.907 97.0394 337.907L93.2535 337.895" stroke="#1E4C83" stroke-width="2" stroke-miterlimit="10"/>
<path d="M108.153 312.808C108.153 312.808 112.305 312.663 115.009 312.808C117.713 312.954 113.154 313.367 117.713 312.954C122.278 312.541 119.37 307.56 122.278 312.541C125.18 317.522 127.326 324.162 127.326 324.162C127.326 324.162 130.949 324.546 134.264 324.162C137.579 323.778 140.131 319.786 143.196 324.33C146.261 328.881 147.023 327.234 147.023 327.234C147.023 327.234 152.832 325.96 155.542 327.234C158.252 328.509 161.782 329.027 161.782 329.027C161.782 329.027 167.476 322.462 168.319 322.462C169.162 322.462 174.838 322.241 175.605 325.052C176.373 327.863 179.688 327.438 181.473 329.818C183.259 332.204 184.741 334.497 184.741 334.497C184.741 334.497 188.992 341.037 188.806 343.254C188.62 345.471 194.918 348.375 196.872 349.655C198.826 350.93 204.7 351.861 205.462 355.946C206.229 360.031 201.379 361.055 206.991 364.116C212.603 367.183 211.585 367.084 213.882 373.77C216.179 380.456 216.773 385.344 216.773 385.344L213.644 390.198C213.644 390.198 214.138 403.558 213.115 404.775C212.091 405.991 208.015 412.887 208.015 412.887V447.016" stroke="#1E4C83" stroke-width="2" stroke-miterlimit="10"/>
<path d="M216.784 385.356C216.784 385.356 221.512 386.159 224.571 383.354C227.63 380.549 228.752 380.875 228.752 377.803C228.752 374.73 229.718 366.694 233.544 367.066C237.371 367.445 243.57 367.578 246.594 367.893C249.624 368.207 258.789 366.921 261.086 367.654C263.383 368.387 267.739 373.531 275.648 373.665C283.557 373.799 282.283 373.531 285.348 373.665C288.413 373.799 290.71 377.634 290.71 377.634L297.345 379.81C297.345 379.81 296.176 389.744 297.45 391.367C298.723 392.985 305.533 390.681 305.533 390.681H310.215L316.379 409.017L308.162 431.147C308.162 431.147 307.185 436.832 308.162 439.032C309.139 441.232 310.401 447.627 309.813 449.157C309.232 450.688 305.556 452.986 308.162 455.285C310.761 457.584 318.786 466.731 318.786 466.731C318.786 466.731 322.869 476.385 319.042 481.669C315.216 486.953 308.58 491.957 308.836 492.522C309.092 493.086 302.782 505.149 302.364 505.755C301.945 506.36 294.036 516.584 294.036 516.584L287.965 525.93" stroke="#1E4C83" stroke-width="2" stroke-miterlimit="10"/>
<path d="M409.17 317.254H323.887L310.209 390.681" stroke="#1E4C83" stroke-width="2" stroke-miterlimit="10"/>
<path d="M323.887 317.254L325.73 240.779H272.891L308.319 199.504L308.173 140.858" stroke="#1E4C83" stroke-width="2" stroke-miterlimit="10"/>
<path d="M308.301 192.683C308.301 192.683 310.674 188.243 315.466 192.683C320.258 197.123 325.422 197.327 327.969 200.027C330.522 202.727 339.96 209.256 345.834 211.613C351.702 213.964 363.955 218.561 366.636 227.499C369.311 236.438 370.846 237.607 375.44 241.745C380.034 245.882 374.928 236.95 381.82 248.565C388.711 260.186 393.596 261.716 393.596 261.716L405.296 268.891C405.296 268.891 404.878 262.531 410.577 268.891C416.27 275.252 420.131 280.163 420.131 280.163" stroke="#1E4C83" stroke-width="2" stroke-miterlimit="10"/>
<path d="M471.772 359.432L470.633 340.63C470.633 340.63 463.741 348.294 473.185 335.009C482.63 321.729 482.88 313.018 482.88 313.018L482.711 303.12" stroke="#1E4C83" stroke-width="2" stroke-miterlimit="10"/>
<path d="M436.868 393.59C436.868 393.59 436.665 392.461 430.611 389.837C424.557 387.212 429.442 387.212 418.02 387.212C406.599 387.212 411.24 388.475 404.18 388.551C397.12 388.626 402.162 387.131 395.102 390.401C388.042 393.672 385.57 393.59 385.57 393.59" stroke="#1E4C83" stroke-width="2" stroke-miterlimit="10"/>
<path d="M407.21 510.905C407.21 510.905 396.515 507.774 388.851 506.849C381.186 505.923 377.551 503.7 370.695 498.05C363.833 492.4 354.807 484.928 354.807 484.928C354.807 484.928 348.701 464.892 350.318 456.943C351.928 448.989 357.441 442.529 357.441 442.529L369.282 431.153C369.282 431.153 376.882 424.566 378.627 415.476C380.377 406.392 385.571 403.448 385.571 398.519C385.571 393.59 389.112 382.138 389.531 375.906C389.944 369.673 384.413 365.978 390.665 359.437C396.922 352.897 401.633 350.959 401.9 342.841C402.168 334.723 402.773 330.01 404.587 326.815C406.401 323.62 410.722 317.766 410.577 310.9C410.437 304.033 410.577 297.917 410.577 297.917" stroke="#1E4C83" stroke-width="2" stroke-miterlimit="10"/>
<path d="M272.891 240.779L256.37 242.693L249.821 241.739C249.821 241.739 241.581 247.634 242.093 250.776C242.605 253.913 246.78 264.835 244.756 266.872C242.732 268.909 243.872 271.551 241.348 277.079C238.825 282.607 234.097 289.544 231.945 290.835C229.799 292.121 228.63 295.497 228.63 295.497C228.63 295.497 224.164 303.137 224.431 304.475C224.699 305.814 225.751 310.446 225.751 310.446L220.43 312.203C220.43 312.203 223.28 323.545 223.315 328.381C223.356 333.216 216.028 333.216 223.315 336.708C230.602 340.199 230.892 343.115 230.892 345.285C230.892 347.456 232.48 356.854 232.48 356.854L233.538 367.09" stroke="#1E4C83" stroke-width="2" stroke-miterlimit="10"/>
<path d="M90.0377 589.294V595.288C90.0377 595.288 94.5447 594.398 94.5447 596.621C94.5447 598.844 97.0395 601.951 97.0395 601.951C97.0395 601.951 102.454 605.827 104.047 606.554C105.64 607.281 107.193 613.851 107.193 613.851C107.193 613.851 107.81 620.049 111.049 619.211C114.288 618.373 124.721 621.707 125.832 621.707C126.942 621.707 128.198 625.036 128.198 625.036L134.706 626.368C134.706 626.368 139.585 628.812 140.696 628.812C141.806 628.812 145.941 630.808 147.645 630.808" stroke="#1E4C83" stroke-width="2" stroke-miterlimit="10"/>
<path d="M64.1416 752.115C64.1416 752.115 70.3583 750.846 73.4637 752.115C76.5691 753.384 80.1921 755.828 82.4892 753.832C84.7863 751.836 82.4892 744.37 82.4892 744.37C82.4892 744.37 83.7453 736.683 86.0424 737.264C88.3395 737.846 90.3342 737.625 92.5557 736.072C94.7713 734.518 92.7767 732.964 97.4348 732.964C102.093 732.964 101.791 733.185 104.053 730.299C106.315 727.413 111.194 725.457 110.752 719.33C110.31 713.202 115.021 711.206 115.021 711.206C115.021 711.206 123.401 707.191 124.069 705.538C124.738 703.88 127.402 699.661 129.617 698.328C131.839 696.996 137.16 695.884 137.16 693.219C137.16 690.554 138.183 683.751 138.183 683.751L150.471 677.81C150.471 677.81 155.624 680.603 155.821 677.81C156.019 675.011 158.665 670.187 154.786 669.937C150.907 669.687 149.803 666.352 149.803 666.352L148.395 650.285" stroke="#1E4C83" stroke-width="2" stroke-miterlimit="10"/>
<path d="M124.924 224.834C124.924 224.834 129.931 228.175 134.706 228.175C139.48 228.175 144.342 228.867 150.814 228.175C157.293 227.482 166.894 225.835 170.069 226.662C173.244 227.482 179.257 226.662 179.257 226.662C179.257 226.662 180.415 227.854 180.415 229.053V236.508L177.873 239.051H172.779L172.547 244.282L173.902 248.769L176.484 249.927C176.484 249.927 179.031 252.848 179.49 255.786C179.955 258.725 184.741 262.659 184.741 262.659C184.741 262.659 187.486 254.791 188.806 254.791C190.126 254.791 193.366 255.786 193.366 255.786C193.366 255.786 194.907 257.439 194.947 259.773C194.988 262.106 191.284 263.817 191.743 266.36C192.208 268.909 194.674 270.294 194.947 270.294C195.215 270.294 199.146 272.144 199.146 272.144C199.146 272.144 202.856 273.302 202.275 276.078C201.693 278.854 200.28 282.485 200.28 282.485L193.831 291.12L197.832 293.663C197.832 293.663 199.332 301.205 200.28 303.911C201.228 306.623 203.502 310.487 203.502 310.487C203.502 310.487 205.625 307.082 206.317 308.24C207.009 309.398 205.625 312.25 208.631 313.833C211.638 315.415 213.254 309.823 214.877 310.423C216.494 311.022 222.861 312.18 225.746 310.423C228.63 308.665 220.425 312.18 220.425 312.18" stroke="#1E4C83" stroke-width="2" stroke-miterlimit="10"/>
<path d="M160.166 178.141C160.166 178.141 174.018 191.165 178.089 190.711C182.165 190.257 183.096 193.545 182.764 185.788C182.433 178.031 178.211 173.137 182.764 172.863C187.323 172.59 189.213 172.072 191.825 175.051C194.436 178.025 194.761 180.486 194.436 181.837C194.11 183.187 199.542 183.105 199.542 183.105L204.159 190.711C204.159 190.711 211.894 200.83 215.022 200.027C218.145 199.224 223.321 201.395 223.321 201.395L228.63 203.373L231.584 199.504C231.584 199.504 236.754 203.996 237.749 203.373C238.743 202.751 251.758 190.705 251.758 190.705L249.816 167.422H244.751C244.751 167.422 243.733 170.955 241.866 170.681C239.999 170.408 237.83 163.89 234.027 164.158C230.224 164.431 230.288 173.084 228.624 169.302C226.961 165.52 222.652 155.912 223.315 152.968C223.978 150.029 224.251 153.288 219.907 149.755C215.563 146.223 222.053 145.135 216.499 139.973C210.946 134.812 215.016 131.821 215.016 130.465C215.016 129.109 216.778 123.558 216.778 123.558" stroke="#1E4C83" stroke-width="2" stroke-miterlimit="10"/>
<path d="M242.878 253.855C242.878 253.855 239.383 255.292 236.435 255.792C233.486 256.293 234.638 258.795 228.63 258.085C222.623 257.375 221.535 259.639 218.279 255.792C215.022 251.946 215.237 252.947 209.969 253.127L204.7 253.302V260.75L194.953 258.725" stroke="#1E4C83" stroke-width="2" stroke-miterlimit="10"/>
<path d="M227.583 543.538H275.712" stroke="#1E4C83" stroke-width="2" stroke-miterlimit="10"/>
<path d="M85.1235 472.527C85.1235 472.527 90.8924 470.107 93.2535 469.577C95.6145 469.047 99.8481 469.583 99.8481 468.407C99.8481 467.232 99.4469 458.148 99.8481 456.129C100.249 454.11 107.176 452.474 108.153 451.98C109.13 451.485 112.7 448.052 114.747 449.262C116.794 450.473 120.627 452.09 120.627 453.097C120.627 454.104 123.15 460.761 123.15 460.761H125.709L133.136 453.912C133.136 453.912 133.851 451.008 138.241 450.473C142.632 449.931 146.395 455.477 149.948 455.186C153.501 454.895 163.73 456.932 163.73 456.932" stroke="#1E4C83" stroke-width="2" stroke-miterlimit="10"/>
</svg>
