<svg width="24" height="24" viewBox="0 0 24 24" fill="none" xmlns="http://www.w3.org/2000/svg">
<path fill-rule="evenodd" clip-rule="evenodd" d="M4 8C3.44775 8 3 8.44775 3 9C3 9.55225 3.44775 10 4 10H20C20.5522 10 21 9.55225 21 9C21 8.44775 20.5522 8 20 8H4ZM4 14C3.44775 14 3 14.4478 3 15C3 15.5522 3.44775 16 4 16H20C20.5522 16 21 15.5522 21 15C21 14.4478 20.5522 14 20 14H4Z" fill="#00214E"/>
<mask id="mask0" mask-type="alpha" maskUnits="userSpaceOnUse" x="3" y="8" width="18" height="8">
<path fill-rule="evenodd" clip-rule="evenodd" d="M4 8C3.44775 8 3 8.44775 3 9C3 9.55225 3.44775 10 4 10H20C20.5522 10 21 9.55225 21 9C21 8.44775 20.5522 8 20 8H4ZM4 14C3.44775 14 3 14.4478 3 15C3 15.5522 3.44775 16 4 16H20C20.5522 16 21 15.5522 21 15C21 14.4478 20.5522 14 20 14H4Z" fill="white"/>
</mask>
<g mask="url(#mask0)">
<path d="M1 1H23V23H1V1Z" fill="#00214E"/>
</g>
</svg>
